<svg width="1440" height="301" viewBox="0 0 1440 301" fill="none" xmlns="http://www.w3.org/2000/svg">
<g id="ABOUT ME">
<path d="M147.782 149.739C146.686 145.081 145.179 138.779 143.261 130.833C141.343 122.887 139.288 114.119 137.096 104.529C134.904 94.9388 132.575 84.9378 130.109 74.5258C127.917 64.1138 125.725 54.3868 123.533 45.3448C121.615 36.0288 119.697 27.8088 117.779 20.6848C116.135 13.2868 114.902 7.80683 114.08 4.24483C105.038 5.06683 97.64 5.61484 91.886 5.88883C86.406 5.88883 81.885 5.88883 78.323 5.88883C74.761 5.88883 71.884 5.88883 69.692 5.88883C67.5 5.88883 65.445 6.02583 63.527 6.29983C56.951 28.2198 50.923 50.2768 45.443 72.4708C39.963 94.6648 34.894 116.037 30.236 136.587C25.578 157.137 21.468 176.591 17.906 194.949C14.618 213.033 11.741 229.062 9.27498 243.036C6.80898 257.01 4.89098 268.381 3.52098 277.149C2.15098 285.917 1.19198 291.26 0.643982 293.178C0.917982 293.452 1.19198 293.589 1.46598 293.589C20.098 293.315 33.798 293.452 42.566 294C51.334 294.548 56.814 294.548 59.006 294C59.28 294 59.417 294 59.417 294C59.691 293.726 59.965 293.589 60.239 293.589C62.705 288.931 64.623 283.588 65.993 277.56C67.363 271.532 68.596 265.367 69.692 259.065C71.062 252.489 72.295 246.324 73.391 240.57C74.761 234.542 76.405 229.336 78.323 224.952C81.337 224.952 83.666 224.952 85.31 224.952C87.228 224.678 88.872 224.541 90.242 224.541C91.886 224.541 93.667 224.541 95.585 224.541C97.503 224.541 100.243 224.815 103.805 225.363C105.723 229.473 107.504 234.405 109.148 240.159C110.792 245.913 112.299 251.941 113.669 258.243C115.313 264.545 116.82 270.71 118.19 276.738C119.834 282.766 121.478 287.972 123.122 292.356H123.533C132.301 294.274 141.617 295.37 151.481 295.644C161.345 296.192 170.387 295.644 178.607 294V293.589L147.782 149.739ZM105.86 176.454C100.654 176.454 95.448 176.591 90.242 176.865C85.036 176.865 80.104 176.728 75.446 176.454C77.364 162.48 79.008 149.465 80.378 137.409C82.022 125.353 83.392 115.352 84.488 107.406C85.858 99.4598 87.228 94.2538 88.598 91.7878C90.242 89.0478 91.749 90.0068 93.119 94.6648C94.763 99.3228 96.544 108.228 98.462 121.38C100.654 134.532 103.12 152.89 105.86 176.454Z" fill="#ED722C"/>
<path d="M339.552 157.959C338.182 156.315 337.223 154.945 336.675 153.849C336.127 152.753 336.401 151.246 337.497 149.328C342.977 140.012 347.635 129.874 351.471 118.914C355.581 107.954 357.636 96.7198 357.636 85.2118C357.636 69.8678 355.17 56.9898 350.238 46.5778C345.306 35.8918 338.593 27.2608 330.099 20.6848C321.605 13.8348 311.741 8.90283 300.507 5.88883C289.547 2.87484 278.039 1.09384 265.983 0.545828C253.927 -0.00216509 241.734 0.545836 229.404 2.18983C217.074 3.83383 205.429 6.16283 194.469 9.17684L194.058 9.58783C194.88 57.2638 194.88 104.529 194.058 151.383C193.236 197.963 193.647 244.954 195.291 292.356C196.661 292.904 198.031 293.178 199.401 293.178C201.045 293.178 202.689 293.178 204.333 293.178C214.197 293.452 224.746 294 235.98 294.822C247.488 295.644 258.859 295.918 270.093 295.644C281.601 295.644 292.698 294.959 303.384 293.589C314.07 291.945 323.797 288.931 332.565 284.547C341.333 280.163 348.731 273.998 354.759 266.052C361.061 257.832 365.308 247.283 367.5 234.405C369.144 225.637 369.418 217.691 368.322 210.567C367.226 203.443 365.171 197.004 362.157 191.25C359.417 185.222 355.992 179.605 351.882 174.399C348.046 168.919 343.936 163.439 339.552 157.959ZM300.918 226.185C298.178 229.473 294.89 231.939 291.054 233.583C287.492 234.953 283.519 235.912 279.135 236.46C275.025 236.734 270.778 236.871 266.394 236.871C262.284 236.597 258.311 236.46 254.475 236.46L253.653 236.049C251.461 232.761 249.954 228.651 249.132 223.719C248.31 218.787 247.899 213.718 247.899 208.512C248.173 203.032 248.721 197.689 249.543 192.483C250.365 187.277 251.324 182.619 252.42 178.509C257.626 179.057 262.969 179.468 268.449 179.742C273.929 179.742 279.272 180.427 284.478 181.797C288.04 182.619 291.465 184.4 294.753 187.14C298.041 189.606 300.507 192.483 302.151 195.771C304.069 200.429 305.028 205.635 305.028 211.389C305.302 217.143 303.932 222.075 300.918 226.185ZM300.507 109.05C298.315 113.16 295.301 116.311 291.465 118.503C287.903 120.421 283.93 121.654 279.546 122.202C275.162 122.75 270.641 122.887 265.983 122.613C261.325 122.339 256.941 121.928 252.831 121.38C250.365 111.79 249.543 102.474 250.365 93.4318C251.461 84.3898 251.735 76.7178 251.187 70.4158C255.297 68.2238 260.366 67.2648 266.394 67.5388C272.696 67.5388 278.587 68.0868 284.067 69.1828C288.451 70.2788 292.287 72.0598 295.575 74.5258C299.137 76.7178 302.014 80.0058 304.206 84.3898C306.398 88.7738 306.809 93.1578 305.439 97.5418C304.069 101.926 302.425 105.762 300.507 109.05Z" fill="#ED722C"/>
<path d="M552.681 50.6878C549.393 41.0978 543.776 32.7408 535.83 25.6168C527.884 19.5888 518.842 15.0678 508.704 12.0538C498.84 8.76584 488.565 6.84784 477.879 6.29983C467.467 5.75183 456.918 6.57384 446.232 8.76584C435.82 10.6838 426.093 13.8348 417.051 18.2188C413.489 20.4108 410.338 22.8768 407.598 25.6168C399.104 35.2068 393.35 46.3038 390.336 58.9078C387.596 71.2378 386.089 83.5678 385.815 95.8978C384.445 117.544 384.171 139.19 384.993 160.836C386.089 182.208 387.048 203.58 387.87 224.952C388.144 232.898 388.829 240.844 389.925 248.79C391.295 256.462 393.898 263.723 397.734 270.573C400.2 276.053 403.351 280.574 407.187 284.136C411.023 287.424 415.27 290.164 419.928 292.356C424.86 294.548 429.929 296.055 435.135 296.877C440.615 297.973 446.232 298.795 451.986 299.343C459.932 299.891 467.741 299.891 475.413 299.343C483.359 298.795 491.168 297.425 498.84 295.233C507.334 293.041 515.28 290.027 522.678 286.191C530.35 282.081 536.515 276.738 541.173 270.162C546.105 262.216 549.804 253.448 552.27 243.858C554.736 233.994 556.243 224.267 556.791 214.677L558.024 201.114C559.12 186.866 559.531 172.892 559.257 159.192C558.983 145.492 559.257 131.381 560.079 116.859C560.353 110.009 560.353 103.296 560.079 96.7198C560.079 89.8698 559.805 83.0198 559.257 76.1698C558.709 71.7858 557.887 67.5388 556.791 63.4288C555.969 59.0448 554.599 54.7978 552.681 50.6878ZM508.704 170.7C508.704 171.248 508.567 173.577 508.293 177.687C508.293 181.797 508.156 186.592 507.882 192.072C507.334 197.826 507.06 202.484 507.06 206.046C507.334 209.334 507.334 212.211 507.06 214.677C506.786 217.143 506.101 219.472 505.005 221.664C503.909 223.582 502.128 226.185 499.662 229.473C495.552 234.131 490.483 237.556 484.455 239.748C478.427 241.666 472.399 242.488 466.371 242.214C460.343 241.666 454.726 239.885 449.52 236.871C444.314 233.857 440.341 229.61 437.601 224.13C434.861 215.088 433.217 205.635 432.669 195.771C432.121 185.633 431.162 175.769 429.792 166.179C429.244 154.671 429.107 143.163 429.381 131.655C429.929 120.147 431.299 109.187 433.491 98.7748C436.779 87.2668 443.218 77.8138 452.808 70.4158C457.192 67.1278 462.261 64.7988 468.015 63.4288C473.769 62.0588 479.386 62.4698 484.866 64.6618C491.168 67.6758 496.1 72.3338 499.662 78.6358C503.498 84.9378 505.69 91.9248 506.238 99.5968C506.512 104.255 506.786 109.324 507.06 114.804C507.608 120.01 507.882 122.75 507.882 123.024L508.704 150.972V170.7Z" fill="#ED722C"/>
<path d="M764.51 19.0408C761.222 17.1228 756.975 15.8898 751.769 15.3418C746.563 14.7938 741.083 14.6568 735.329 14.9308C729.575 15.2048 723.821 15.7528 718.067 16.5748C712.587 17.1228 708.066 17.5338 704.504 17.8078C703.682 49.5918 703.134 82.4718 702.86 116.448C702.86 150.424 702.175 183.852 700.805 216.732C699.435 223.034 696.421 227.966 691.763 231.528C687.105 235.09 682.036 237.008 676.556 237.282C671.076 237.556 665.733 236.186 660.527 233.172C655.595 230.158 652.17 225.363 650.252 218.787C644.772 150.561 643.539 83.2938 646.553 16.9858V16.5748C642.443 15.4788 637.922 14.7938 632.99 14.5198C628.058 13.9718 622.989 13.6978 617.783 13.6978C612.577 13.6978 607.371 13.8348 602.165 14.1088C597.233 14.3828 592.712 14.5198 588.602 14.5198H588.191L588.602 14.9308C589.15 51.0988 589.013 87.5408 588.191 124.257C587.369 160.973 586.958 197.415 586.958 233.583C587.506 246.187 591.068 257.01 597.644 266.052C604.494 274.82 612.851 281.944 622.715 287.424C632.853 292.63 644.087 296.192 656.417 298.11C668.747 300.302 680.666 300.85 692.174 299.754C711.902 297.836 727.52 290.575 739.028 277.971C750.536 265.367 757.386 250.023 759.578 231.939C763.414 196.593 765.606 161.11 766.154 125.49C766.702 89.5958 766.154 54.1128 764.51 19.0408Z" fill="#ED722C"/>
<path d="M956.81 8.35483C928.588 5.34083 899.544 3.97083 869.678 4.24483C840.086 4.24483 811.316 4.38183 783.368 4.65582C783.368 4.92984 783.368 5.06684 783.368 5.06684C783.642 5.06684 783.779 5.20384 783.779 5.47784C783.231 12.0538 782.957 18.9038 782.957 26.0278C782.957 33.1518 782.957 39.8648 782.957 46.1668C783.231 52.1948 783.505 57.4008 783.779 61.7848C784.327 66.1688 784.875 68.9088 785.423 70.0048C787.067 70.5528 789.944 70.8268 794.054 70.8268C798.164 70.8268 802.685 70.9638 807.617 71.2378C812.549 71.2378 817.481 71.5118 822.413 72.0598C827.345 72.3338 831.455 73.2928 834.743 74.9368L835.154 75.3478C836.798 113.708 837.757 146.451 838.031 173.577C838.579 200.703 838.716 223.034 838.442 240.57C838.442 257.832 838.305 270.847 838.031 279.615C837.757 288.383 837.757 293.315 838.031 294.411C842.963 293.589 848.306 293.178 854.06 293.178C859.814 293.178 865.568 293.178 871.322 293.178C877.35 293.178 883.241 293.178 888.995 293.178C895.023 292.904 900.503 292.356 905.435 291.534V290.712C904.887 260.846 904.476 234.953 904.202 213.033C903.928 190.839 903.654 171.933 903.38 156.315C903.106 140.423 902.832 127.545 902.558 117.681C902.558 107.543 902.558 99.4598 902.558 93.4318C902.558 87.1298 902.558 82.6088 902.558 79.8688C902.832 76.8548 903.106 74.6628 903.38 73.2928C903.38 73.0188 903.38 72.8818 903.38 72.8818C903.654 72.6078 903.791 72.3338 903.791 72.0598H905.024C917.902 71.5118 928.177 71.1008 935.849 70.8268C943.521 70.5528 949.96 70.9638 955.166 72.0598C956.536 62.1958 957.221 51.3728 957.221 39.5908C957.495 27.8088 957.358 17.3968 956.81 8.35483Z" fill="#ED722C"/>
<path d="M1232.41 163.302C1233.78 136.998 1233.91 111.105 1232.82 85.6228C1231.72 59.8668 1231.72 33.8368 1232.82 7.53284C1228.43 7.53284 1223.09 7.66983 1216.79 7.94383C1210.76 7.94383 1204.73 8.08083 1198.71 8.35483C1192.95 8.62884 1187.47 8.90284 1182.27 9.17684C1177.33 9.45084 1173.91 9.45084 1171.99 9.17684C1169.52 12.4648 1166.92 17.6708 1164.18 24.7948C1161.72 31.9188 1159.39 39.1798 1157.19 46.5778C1155.28 53.7018 1153.36 60.0038 1151.44 65.4838C1149.8 70.9638 1148.56 73.5668 1147.74 73.2928C1146.92 73.2928 1146.1 72.8818 1145.28 72.0598C1143.08 68.7718 1140.89 64.2508 1138.7 58.4968C1136.78 52.7428 1134.73 46.7148 1132.53 40.4128C1130.34 34.1108 1128.01 28.2198 1125.55 22.7398C1123.08 16.9858 1120.62 12.7388 1118.15 9.99883H1117.74C1113.08 10.2728 1108.29 10.4098 1103.35 10.4098C1098.42 10.1358 1093.49 9.99883 1088.56 9.99883C1083.63 9.72483 1078.83 9.72483 1074.17 9.99883C1069.51 10.2728 1065.4 10.9578 1061.84 12.0538C1061.57 49.3178 1061.29 81.9238 1061.02 109.872C1061.02 137.82 1060.88 161.932 1060.61 182.208C1060.61 202.484 1060.61 219.472 1060.61 233.172C1060.61 246.872 1060.61 257.969 1060.61 266.463C1060.88 274.683 1061.16 280.848 1061.43 284.958C1061.71 289.068 1061.98 291.671 1062.25 292.767C1062.53 293.589 1062.94 294 1063.49 294C1072.25 294 1081.84 294.137 1092.26 294.411C1102.67 294.685 1112.26 294.137 1121.03 292.767C1119.38 267.285 1118.15 241.392 1117.33 215.088C1116.78 188.784 1117.6 162.754 1119.79 136.998C1119.79 136.998 1120.2 138.368 1121.03 141.108C1122.12 143.848 1123.36 147.273 1124.73 151.383C1126.1 155.493 1127.74 160.014 1129.66 164.946C1131.58 169.878 1133.36 174.536 1135 178.92C1136.92 183.304 1138.7 187.003 1140.34 190.017C1142.26 192.757 1143.91 194.127 1145.28 194.127C1146.37 194.127 1148.02 191.524 1150.21 186.318C1152.4 181.112 1154.73 175.084 1157.19 168.234C1159.66 161.384 1162.13 154.808 1164.59 148.506C1167.06 141.93 1169.25 137.135 1171.17 134.121C1172.54 145.629 1173.5 158.233 1174.05 171.933C1174.87 185.633 1175.28 199.607 1175.28 213.855C1175.55 228.103 1175.69 242.077 1175.69 255.777C1175.96 269.477 1176.37 282.218 1176.92 294C1180.21 294 1184.05 294 1188.43 294C1193.09 293.726 1197.88 293.589 1202.82 293.589C1207.75 293.589 1212.68 293.589 1217.61 293.589C1222.54 293.589 1227.06 293.863 1231.17 294.411L1232.41 163.302Z" fill="#ED722C"/>
<path d="M1439.95 238.104C1421.32 238.652 1403.24 238.515 1385.7 237.693C1368.17 236.597 1350.36 236.049 1332.27 236.049L1331.86 235.638C1331.31 229.062 1330.76 220.842 1330.22 210.978C1329.94 201.114 1330.49 192.209 1331.86 184.263C1333.23 183.167 1335.83 182.482 1339.67 182.208C1343.51 181.934 1347.75 181.797 1352.41 181.797C1357.34 181.797 1362.41 181.797 1367.62 181.797C1372.82 181.523 1377.48 180.838 1381.59 179.742C1381.32 169.604 1381.45 159.877 1382 150.561C1382.55 141.245 1382.14 131.929 1380.77 122.613V122.202C1372.28 121.928 1363.78 121.791 1355.29 121.791C1346.79 121.791 1338.44 121.517 1330.22 120.969L1329.81 120.558C1327.89 113.16 1327.34 105.351 1328.16 97.1308C1329.26 88.6368 1329.67 80.4168 1329.39 72.4708L1329.81 72.0598H1331.04C1340.08 71.2378 1349.12 70.8268 1358.16 70.8268C1367.21 70.8268 1376.25 70.9638 1385.29 71.2378C1394.33 71.2378 1403.24 71.1008 1412.01 70.8268C1421.05 70.2788 1429.95 69.0458 1438.72 67.1278V66.7168C1438.72 57.1268 1438.99 47.3998 1439.54 37.5358C1440.36 27.6718 1440.09 17.9448 1438.72 8.35483C1438.72 8.08083 1435.98 7.80683 1430.5 7.53284C1425.02 7.25884 1417.76 7.12184 1408.72 7.12184C1399.68 7.12184 1389.26 7.25884 1377.48 7.53284C1365.7 7.80683 1353.51 8.08083 1340.9 8.35483C1328.3 8.62884 1315.69 9.03984 1303.09 9.58783C1290.76 9.86183 1279.25 10.2728 1268.57 10.8208C1267.2 34.3848 1266.37 57.8118 1266.1 81.1018C1265.83 104.392 1265.83 127.682 1266.1 150.972C1266.37 174.262 1266.79 197.689 1267.33 221.253C1267.88 244.543 1268.16 268.107 1268.16 291.945C1294.73 294.137 1322.41 294.822 1351.18 294C1380.22 292.904 1408.72 292.493 1436.67 292.767C1438.86 284.547 1440.09 275.779 1440.36 266.463C1440.64 256.873 1440.5 247.694 1439.95 238.926V238.104Z" fill="#ED722C"/>
</g>
</svg>
