<?xml version="1.0" encoding="UTF-8" standalone="no"?>
<!-- Created with Inkscape (http://www.inkscape.org/) -->

<svg
   width="224.36183mm"
   height="172.9642mm"
   viewBox="0 0 224.36182 172.96421"
   version="1.1"
   id="svg5"
   sodipodi:docname="duva-exp-2.svg"
   inkscape:version="1.1 (c4e8f9e, 2021-05-24)"
   xmlns:inkscape="http://www.inkscape.org/namespaces/inkscape"
   xmlns:sodipodi="http://sodipodi.sourceforge.net/DTD/sodipodi-0.dtd"
   xmlns="http://www.w3.org/2000/svg"
   xmlns:svg="http://www.w3.org/2000/svg">
  <sodipodi:namedview
     id="namedview108"
     pagecolor="#ffffff"
     bordercolor="#666666"
     borderopacity="1.0"
     inkscape:pageshadow="2"
     inkscape:pageopacity="0.0"
     inkscape:pagecheckerboard="0"
     inkscape:document-units="mm"
     showgrid="false"
     inkscape:zoom="1.2798489"
     inkscape:cx="294.17535"
     inkscape:cy="373.09092"
     inkscape:window-width="2560"
     inkscape:window-height="1387"
     inkscape:window-x="0"
     inkscape:window-y="25"
     inkscape:window-maximized="1"
     inkscape:current-layer="svg5"
     fit-margin-top="0"
     fit-margin-left="0"
     fit-margin-right="0"
     fit-margin-bottom="0" />
  <defs
     id="defs2" />
  <g
     id="layer2"
     style="display:inline;stroke:none;stroke-width:1.32292;stroke-miterlimit:4;stroke-dasharray:none;stroke-opacity:1"
     transform="translate(-13.819431,-9.4937254)">
    <path
       style="display:inline;fill:#fcffe4;fill-opacity:1;stroke:none;stroke-width:1.32292;stroke-linecap:round;stroke-linejoin:round;stroke-miterlimit:4;stroke-dasharray:none;stroke-opacity:1;paint-order:stroke markers fill"
       d="m 30.105749,16.77217 c 0.30289,-0.795069 1.8173,-0.189303 2.19591,0.227162 0.3786,0.416465 11.07348,18.097401 16.92294,25.472801 5.84945,7.375401 18.99473,21.580586 19.21274,21.754999 0.21801,0.174411 1.28629,0.45783 1.4607,0.283419 0.17441,-0.174413 0.50143,-1.308089 0.50143,-1.940332 0,-0.632243 -0.52323,-1.809522 -0.19621,-1.94033 0.32702,-0.13081 4.81015,3.661013 6.07399,6.13374 1.26384,2.472727 2.47273,7.308284 2.80243,9.121616 0.32969,1.813333 0.49454,4.17616 0.49454,4.17616 0,0 10.6602,9.451313 13.73737,11.759192 3.07718,2.307878 6.15435,3.846465 7.418191,4.23111 1.26383,0.384646 9.34141,0.604444 9.34141,0.604444 0,0 5.60485,-3.901414 8.40727,-4.505857 2.80243,-0.604443 6.53899,-1.098989 8.51717,1.04404 1.97818,2.14303 1.64849,2.857373 1.64849,3.351919 0,0.494546 -0.5495,2.088081 -0.38465,2.472727 0.16485,0.384646 1.56462,2.19486 1.58522,2.29785 0.0206,0.10298 8.51046,-0.16609 12.02424,-0.65572 3.51377,-0.48962 11.27653,-1.800856 11.27653,-1.800856 3.18115,-0.570973 10.52226,-2.447036 12.96929,-3.018009 2.44704,-0.570976 7.34111,-1.549789 8.31993,-1.712926 0.97881,-0.163137 3.09958,-0.326271 3.09958,0.08157 0,0.40784 -1.54979,1.060382 -1.54979,1.060382 0,0 12.15361,-1.549789 13.54026,-1.712926 1.38666,-0.163134 6.3623,-0.815679 7.34111,-1.060381 0.97881,-0.244703 11.25637,-2.773307 12.80615,-3.262715 1.5498,-0.489408 8.72777,-3.018012 9.05404,-3.262714 0.32627,-0.244706 -0.32627,-0.734111 0.16313,-1.060384 0.48941,-0.326271 12.15362,-5.954453 13.70341,-6.770132 1.54979,-0.815679 3.92546,-2.146189 4.4154,-2.091751 0.48995,0.05444 1.22487,0.626041 1.17043,0.816576 -0.0544,0.190534 -3.78346,3.429611 -4.00122,3.456828 -0.21775,0.02722 0.10888,0.05444 0.0817,0.326631 -0.0272,0.27219 -0.48994,0.871014 -0.97988,1.25208 -0.48995,0.381069 -6.88645,3.837898 -7.32195,4.08287 -0.43551,0.244972 -3.91956,1.932559 -4.51838,2.204752 -0.59882,0.27219 -3.02132,1.197641 -3.02132,1.197641 0,0 0.97989,0 1.03432,0.299411 0.0544,0.29941 0.0817,0.326628 -0.35384,0.789355 -0.43551,0.462725 -2.39529,2.095873 -3.94678,3.048543 -1.55149,0.952669 -5.03554,1.87812 -5.17164,2.177531 -0.13609,0.29941 0.0817,1.687586 -0.13609,2.068655 -0.21775,0.381066 -1.8509,1.823681 -2.96689,2.476939 -1.11598,0.65326 -2.98003,1.58709 -4.23634,2.10439 -1.25631,0.51731 -1.94569,0.79635 -2.29642,0.79635 -0.35073,0 -0.94696,-0.21044 -0.94696,-0.21044 0,0 0.28058,-0.17536 0.2455,0.56117 -0.0351,0.73652 -1.05217,2.03421 -1.82378,2.66552 -0.7716,0.63131 -2.77074,2.03422 -4.52437,2.66553 -1.75364,0.63131 -3.40206,0.63131 -3.40206,0.63131 0,0 0.17537,0.28058 -0.21043,1.05218 -0.3858,0.7716 -1.85886,2.56031 -3.71771,3.3319 -1.85885,0.7716 -4.66467,1.47306 -5.12061,1.50813 -0.45595,0.0351 -1.1574,-0.14029 -1.1574,-0.14029 0,0 0.3858,0.35073 0.10521,0.98204 -0.28058,0.6313 -1.82377,1.85885 -2.77074,2.38494 -0.94696,0.52609 -3.89307,1.50813 -4.6296,1.64842 -0.73652,0.14029 -1.96407,-0.0351 -1.96407,-0.0351 0,0 -0.3858,0.73653 -0.70145,1.05218 -0.31565,0.31566 -2.03422,1.64842 -2.87596,2.13944 -0.84175,0.49102 -3.54234,1.36783 -4.48931,1.01711 -0.94696,-0.35073 -1.96407,-1.43798 -1.96407,-1.43798 0,0 0.21044,0.87681 0,1.82378 -0.21044,0.94696 -1.26261,2.24465 -2.17451,2.80581 -0.91189,0.56117 -2.98118,1.89393 -3.54234,2.06929 -0.56116,0.17537 -1.85885,-0.0351 -1.85885,-0.0351 0,0 -2.59538,2.24465 -3.96322,2.63045 -1.36783,0.3858 -1.78871,0.56117 -2.3148,0.0701 -0.52609,-0.49102 -1.12232,-1.05218 -1.22754,-1.68349 -0.10522,-0.63131 -0.0701,-1.71856 -0.0701,-1.71856 0,0 -6.52352,3.68263 -6.8041,3.92814 -0.28058,0.24551 -3.92815,3.82292 -4.41916,3.92814 -0.49102,0.10522 -1.22755,0.28058 -1.57827,-0.0701 -0.35073,-0.35073 -0.80668,0.21043 -0.66639,-2.45509 0.14029,-2.66553 0.3858,-3.68264 0.3858,-3.68264 0,0 -2.80581,3.05133 -3.78785,3.68264 -0.98203,0.63131 -2.20958,1.47305 -2.42002,1.89392 -0.21043,0.42087 -0.14029,1.05218 -0.31565,1.19247 -0.17536,0.1403 -1.50813,0.56117 -2.06929,-0.91189 -0.56116,-1.47305 -0.49102,-2.87596 0.10522,-4.34901 0.59624,-1.47305 1.57827,-3.92814 1.57827,-3.92814 0,0 -4.91018,4.59452 -5.68178,5.36612 -0.7716,0.7716 -2.1745,2.17451 -2.34987,2.45509 -0.17536,0.28058 -0.0351,0.87682 -0.17536,1.12233 -0.14029,0.2455 -1.29769,0.6313 -1.82378,-0.17537 -0.52609,-0.80667 -0.87682,-1.29769 -0.80667,-2.03421 0.0701,-0.73653 0.94696,-1.82378 0.59623,-2.24466 -0.35072,-0.42087 -1.12233,0.94697 -2.03421,1.43798 -0.91189,0.49102 -3.68264,0.45595 -4.03337,0.28058 -0.35072,-0.17536 -0.66638,-0.70145 -0.73652,-1.33276 -0.0702,-0.63131 -0.14029,-1.36783 -0.14029,-1.36783 l -3.64756,6.62874 c 0,0 5.96236,4.41916 8.41745,5.71685 2.45508,1.29769 7.71599,4.38409 9.96064,5.78699 2.24466,1.40291 4.6296,2.34988 5.19076,3.26177 0.56116,0.91189 0.84175,2.03421 0.70146,2.5603 -0.1403,0.52609 -0.24551,1.68349 -3.19162,3.15655 -2.94611,1.47305 -3.99829,1.78871 -4.87511,1.85885 -0.87681,0.0701 -1.29769,0.0351 -1.29769,0.0351 0,0 1.40291,1.05218 1.1574,1.71856 -0.2455,0.66639 -1.05218,1.82378 -2.31479,2.66553 -1.26262,0.84175 -3.15655,1.89393 -4.20873,2.38494 -1.05218,0.49102 -3.33191,1.05219 -3.33191,1.05219 0,0 0.31566,0.2455 0.35073,0.6313 0.0351,0.3858 -3.0864,4.13858 -5.19076,5.12062 -2.10436,0.98203 -4.94525,1.50813 -5.57656,1.61334 -0.631311,0.10522 -2.244651,0.14029 -2.244651,0.14029 0,0 0.59623,0.45595 0.10522,1.26262 -0.49102,0.80667 -3.89307,2.7006 -5.43627,2.94611 -1.5432,0.24551 -2.59538,0.21043 -3.54235,0 -0.94696,-0.21044 -2.5603,-0.87682 -2.9461,-0.7716 -0.3858,0.10522 -3.858,2.84089 -6.9444,3.01625 -3.0864,0.17536 -6.69888,-2.06929 -7.36527,-2.17451 -0.66638,-0.10521 -5.89221,2.3148 -8.3473,0.73653 -2.45509,-1.57827 -3.89307,-2.45509 -4.10351,-4.6296 -0.21043,-2.17451 -0.28058,-2.66552 -0.28058,-2.66552 0,0 -0.3858,1.61334 -1.50812,2.20958 -1.12233,0.59623 -4.84003,1.68349 -7.26005,0.17536 -2.42002,-1.50813 -3.29684,-4.34901 -3.54235,-4.76989 -0.2455,-0.42087 -4.62959,0.21044 -6.69888,-1.5432 -2.06929,-1.75363 -4.31394,-4.38408 -4.48931,-5.01539 -0.17536,-0.63131 0.35073,-2.10436 0.17537,-2.3148 -0.17537,-0.21044 -3.68264,-0.73653 -5.29598,-3.01625 -1.61335,-2.27973 -2.06929,-2.42002 -2.17451,-3.99829 -0.10522,-1.57827 0.98204,-2.94611 0.91189,-3.50727 -0.0701,-0.56116 -3.0864,-3.01625 -3.54234,-4.31394 -0.45595,-1.29769 -1.36784,-2.49016 -1.01711,-3.75278 0.35073,-1.26262 0.28058,-1.82378 0.94696,-2.42002 0.66638,-0.59623 1.22755,-0.94696 1.22755,-0.94696 0,0 -1.33277,-1.29769 -1.75364,-2.73567 -0.42087,-1.43798 -0.98203,-3.05133 -0.80667,-3.96322 0.17536,-0.91189 1.01711,-2.7006 1.5432,-3.54234 0.52609,-0.84175 0.75547,-0.94366 0.86487,-1.0713 0.10941,-0.12764 0.83877,-0.36468 0.83877,-0.36468 0,0 -0.87523,-1.27639 -1.00287,-2.00575 -0.12764,-0.72937 -0.0182,-2.9357 0.12764,-3.6833 0.14587,-0.74759 0.27351,-2.04222 0.83876,-2.47984 0.56526,-0.43762 1.4405,-0.76583 2.49808,-0.8023 1.05758,-0.0365 6.28989,0.50545 8.97798,0.92192 2.68809,0.41646 10.5252,1.96874 14.50055,2.3852 3.97534,0.41647 9.99515,0.64363 11.66101,0.90865 1.66586,0.26502 1.93088,0.30289 3.48316,0.11358 1.55227,-0.1893 8.59431,-6.20911 8.40501,-6.39841 -0.1893,-0.1893 -1.59014,1.21154 -1.85516,1.06009 -0.26502,-0.15144 -2.80167,-1.51441 -2.80167,-1.51441 0,0 -0.45433,1.24939 -1.21153,1.59013 -0.75721,0.34075 -2.30949,0.75721 -3.14242,0.18931 -0.83293,-0.56791 -1.96874,-1.09796 -1.96874,-1.09796 0,0 -1.28726,1.85516 -2.34735,1.96875 -1.06009,0.11358 -2.04446,0.30288 -2.61237,-0.0757 l -0.5679,-0.3786 -1.66586,-1.32511 c 0,0 -0.34075,1.36297 -1.21154,1.02223 -0.87079,-0.34075 -2.87739,-1.32512 -3.25599,-1.96874 -0.37861,-0.64363 -0.98438,-1.21154 -0.98438,-1.21154 0,0 -1.51441,-0.26502 -2.15804,-0.56791 -0.64363,-0.30288 -1.06009,-1.02223 -1.06009,-1.02223 0,0 -2.15805,0.37861 -3.48316,-0.71934 -1.32512,-1.09796 -1.47656,-1.36298 -1.628,-2.08233 -0.15144,-0.71935 -0.26502,-2.12018 -0.26502,-2.12018 0,0 -0.94651,1.70372 -2.99097,1.32511 -2.04447,-0.3786 -2.80168,-1.47655 -3.02884,-2.08232 -0.22716,-0.60577 -0.15144,-2.53665 -0.15144,-2.53665 0,0 -0.90865,0.98437 -1.77944,0.83293 -0.87079,-0.15144 -2.04446,0.0379 -2.95311,-2.08232 -0.90866,-2.12019 -0.30289,-4.16465 -0.30289,-4.16465 0,0 -2.08232,-0.75721 -2.83953,-2.498787 -0.75721,-1.74158 -0.1893,-4.013205 -0.1893,-4.013205 0,0 -1.628,1.060093 -3.29386,0.03786 -1.66586,-1.022231 -1.55228,-1.590138 -1.628,-2.347346 -0.0757,-0.757209 0.53005,-3.066693 0.53005,-3.066693 0,0 -1.74158,-0.530048 -2.30949,-2.158045 -0.5679,-1.628 0,-3.748183 0,-3.748183 0,0 -3.14241,-1.211535 -4.05106,-3.48316 -0.90866,-2.271625 0.22716,-5.641202 0.22716,-5.641202 0,0 -3.18028,-3.596741 -3.18028,-4.883997 0,-1.287253 1.51442,-3.255996 1.51442,-3.255996 0,0 -2.80167,-1.438696 -3.256,-4.694693 -0.45432,-3.255997 1.36298,-4.31609 1.36298,-4.31609 0,0 -2.49879,-3.672461 -2.65023,-6.701295 -0.15144,-3.028833 2.42307,-3.369577 2.42307,-3.369577 0,0 -2.19591,-4.240369 -2.15805,-7.193481 0.0379,-2.953115 3.10456,-3.142417 3.10456,-3.142417 0,0 -4.27823,-7.496365 -2.61237,-9.275804 1.66586,-1.77944 8.82148,5.035436 8.82148,5.035436 0,0 -4.08893,-5.944086 -5.30046,-8.405014 -1.21154,-2.460928 -2.23377,-6.398413 -1.21154,-7.155621 1.02224,-0.757209 1.89302,-0.07572 2.42307,0.416465 0.53005,0.492185 2.04446,3.104555 2.91525,4.278228 0.87079,1.173673 4.99758,5.262599 4.99758,5.262599 0,0 -3.67246,-5.830505 -5.18688,-9.237944 -1.51442,-3.407438 -2.04446,-4.505391 -2.27162,-5.527622 -0.22717,-1.022232 -0.68149,-1.590138 -0.0757,-2.0444635 0.60577,-0.4543251 1.81731,-0.03786 2.27163,0.3407435 0.45433,0.378605 2.95311,5.414042 4.27823,7.420644 1.32511,2.006603 3.40744,4.959716 4.65683,6.549854 1.2494,1.590138 3.86176,4.27823 3.86176,4.27823 0,0 -2.17397,-4.977653 -2.91525,-6.549855 -0.74128,-1.572202 -2.04454,-4.16465 -1.74166,-4.959719 z"
       id="path904-5-9" />
  </g>
  <g
     id="layer6"
     style="display:inline"
     transform="translate(-13.819431,-9.4937254)">
    <path
       id="path4441"
       style="fill:#c9b687;fill-opacity:1;stroke:none;stroke-width:0.264583px;stroke-linecap:butt;stroke-linejoin:miter;stroke-opacity:1"
       d="m 87.769749,114.54908 12.219927,20.94911 c -6.04303,11.68319 -24.843081,37.46653 -35.183381,11.54865 -4.204565,-10.53872 -1.193128,-17.87945 3.861263,-22.88129 1.199499,-0.2219 5.156419,-3.3898 7.15977,-5.1785 6.055294,-3.27443 11.942421,-4.43797 11.942421,-4.43797 z" />
    <path
       id="path904"
       style="display:inline;fill:#c9b687;fill-opacity:1;stroke:none;stroke-width:0.264583px;stroke-linecap:butt;stroke-linejoin:miter;stroke-opacity:1"
       d="m 45.511869,37.375496 c 1.33306,1.918864 2.61948,3.718129 3.71295,5.096846 5.84945,7.375401 18.99477,21.580332 19.21278,21.754745 0.21801,0.174411 1.28596,0.458113 1.46037,0.283703 0.17442,-0.174414 0.50127,-1.308206 0.50127,-1.940449 0,-0.632243 -0.52288,-1.809642 -0.19586,-1.940452 0.32702,-0.13081 4.81021,3.661267 6.07405,6.133994 0.60084,1.175563 1.18584,2.884583 1.67328,4.549593 l 0.6873,39.475624 c 0,0 -7.6544,0.67099 -17.86041,-5.9092 -10.206,-6.580189 -11.41495,-16.248668 -13.69787,-23.366015 -1.97913,-6.170202 -2.44154,-23.046459 -1.56786,-44.138389 z" />
  </g>
  <g
     id="layer5"
     style="display:inline"
     transform="translate(-13.819431,-9.4937254)">
    <path
       id="path3352"
       style="fill:#f8f8f8;fill-opacity:1;stroke:none;stroke-width:0.264583px;stroke-linecap:butt;stroke-linejoin:miter;stroke-opacity:1"
       d="m 58.73638,53.580191 c 4.958104,5.566357 9.57298,10.544302 9.701218,10.646896 0.218009,0.174411 1.285965,0.458113 1.460376,0.283703 0.17441,-0.174414 0.501261,-1.308206 0.501261,-1.940449 0,-0.632243 -0.522873,-1.809642 -0.195853,-1.940452 0.32702,-0.13081 4.810207,3.661267 6.074048,6.133994 1.26384,2.472727 2.472711,7.308075 2.802413,9.121407 0.32969,1.813333 0.494544,4.175972 0.494544,4.175972 0,0 10.659975,9.45161 13.737145,11.759488 3.077178,2.307879 6.154311,3.846105 7.418148,4.230751 1.26383,0.384646 9.34155,0.604613 9.34155,0.604613 0,0 5.60482,-3.901223 8.40724,-4.505667 2.80243,-0.604443 6.53913,-1.099166 8.51731,1.043864 1.97818,2.143029 1.64848,2.857187 1.64848,3.351733 0,0.494546 -0.54984,2.088071 -0.38499,2.472717 0.16485,0.384646 1.56483,2.195059 1.58543,2.298049 0.0206,0.10298 8.51029,-0.16614 12.02407,-0.65577 3.51377,-0.48962 11.27683,-1.800926 11.27683,-1.800926 3.18115,-0.570973 10.5222,-2.44693 12.96924,-3.017904 2.44704,-0.570976 7.34109,-1.549937 8.3199,-1.713073 0.97882,-0.163137 3.09956,-0.326192 3.09956,0.08165 0,0.407839 -1.54978,1.0604 -1.54978,1.0604 0,0 1.30901,-0.16546 1.61644,-0.20464 -1.91312,2.272866 -4.99982,5.168573 -7.79901,7.069333 -4.09361,2.77973 -23.73032,10.34624 -29.14551,11.55795 -5.41517,1.21173 -14.16235,0.53819 -16.09772,1.90118 -1.93537,1.36299 -3.50699,4.4309 -5.24413,6.02909 -1.73713,1.59819 -5.94179,4.0274 -7.37371,5.41052 -2.66641,2.57555 -2.74033,2.58326 -3.87366,4.62814 l -3.64732,6.62905 c -1.18298,2.16445 -1.97594,1.97609 -4.447792,3.65715 -2.471852,1.68106 -4.274159,2.89336 -4.274159,2.89336 0,0 0.09069,1.38773 -0.618051,2.8329 -0.708779,1.44517 -1.512752,2.04586 -1.794721,2.90008 -0.281972,0.85424 0.180665,1.31184 -1.157036,2.28513 -1.337689,0.97331 -5.64314,2.90673 -6.5257,2.95693 -0.88256,0.0502 -1.729642,-0.31498 -1.884124,-0.9555 -0.154487,-0.64052 0.585814,-0.49347 0.977202,-0.66921 0.39139,-0.17573 0.431313,-1.13438 -0.180867,-1.31206 -0.61219,-0.17768 -5.319233,0.0899 -8.171595,-1.28261 -2.85237,-1.37249 -6.340216,-1.67003 -7.097758,-8.96999 -0.757528,-7.29996 8.108551,-24.94577 8.108551,-24.94577 0,0 2.519153,-1.58345 3.590994,-2.87218 1.07184,-1.28873 3.526115,-3.58885 2.807065,-3.98476 -0.71904,-0.39592 -2.53147,-0.71763 -3.650941,0.14882 -1.11947,0.86644 -4.908492,0.66841 -8.674923,-2.24585 C 67.659607,105.81399 56.238261,95.555556 55.71641,84.511636 55.293146,75.554231 57.529378,59.288989 58.73638,53.580191 Z" />
  </g>
  <g
     id="layer4"
     style="display:inline;opacity:1"
     transform="translate(-13.819431,-9.4937254)">
    <path
       id="path3130"
       style="fill:#ddcfa6;fill-opacity:1;stroke:none;stroke-width:0.264583px;stroke-linecap:butt;stroke-linejoin:miter;stroke-opacity:1"
       d="m 52.059787,48.192922 c 0.795371,-0.02641 2.383229,0.967182 4.237984,2.627231 1.86019,2.117963 3.647115,4.118289 5.381067,6.038392 1.99241,2.822847 2.931903,5.170072 2.255157,5.694743 -0.845219,0.655286 -4.136284,-2.056979 -7.500834,-5.901967 -3.38832,-3.872154 -5.559708,-7.599754 -4.735626,-8.33179 0.09013,-0.08007 0.212053,-0.121621 0.362252,-0.126609 z" />
    <path
       style="fill:#ddcfa6;fill-opacity:1;stroke:none;stroke-width:0.264583px;stroke-linecap:butt;stroke-linejoin:miter;stroke-opacity:1"
       d="m 49.738284,52.535732 c -0.741576,0.815508 1.525444,4.020141 4.95796,7.130873 3.39875,3.080131 6.668893,5.116054 7.435275,4.383045 0.824338,-0.788442 -1.232834,-4.148698 -4.75216,-7.341923 -3.48751,-3.164357 -6.8995,-4.987502 -7.641075,-4.171995 z"
       id="path3134" />
    <path
       style="fill:#ddcfa6;fill-opacity:1;stroke:none;stroke-width:0.264583px;stroke-linecap:butt;stroke-linejoin:miter;stroke-opacity:1"
       d="m 47.608082,55.091581 c -0.639352,0.897895 2.412431,4.075398 6.581941,7.218612 4.115958,3.102843 7.841112,5.30819 8.560256,4.550388 0.792674,-0.835284 -1.813867,-4.458374 -6.15376,-7.738466 -4.288917,-3.241564 -8.349086,-4.92843 -8.988437,-4.030534 z"
       id="path3138" />
    <path
       style="fill:#ddcfa6;fill-opacity:1;stroke:none;stroke-width:0.264583px;stroke-linecap:butt;stroke-linejoin:miter;stroke-opacity:1"
       d="m 46.27881,58.907291 c -0.525955,0.968689 2.7787,3.665873 7.177121,6.000954 4.316758,2.291726 8.149739,3.788916 8.740838,2.971783 0.693625,-0.958864 -2.27352,-4.050292 -6.863527,-6.499113 -4.518511,-2.410678 -8.528476,-3.442312 -9.054432,-2.473624 z"
       id="path3142" />
    <path
       style="fill:#ddcfa6;fill-opacity:1;stroke:none;stroke-width:0.264583px;stroke-linecap:butt;stroke-linejoin:miter;stroke-opacity:1"
       d="m 46.424201,62.286189 c -0.307607,1.097852 3.23324,2.889357 7.546655,4.584109 4.244348,1.667615 7.964739,2.881213 8.517113,1.992834 0.599863,-0.964756 -2.342924,-3.844726 -7.051605,-5.708535 -4.663021,-1.845734 -8.728241,-1.881728 -9.012163,-0.868408 z"
       id="path3146" />
    <path
       style="fill:#ddcfa6;fill-opacity:1;stroke:none;stroke-width:0.264583px;stroke-linecap:butt;stroke-linejoin:miter;stroke-opacity:1"
       d="m 48.073354,65.326583 c -0.373765,1.177222 2.855175,2.840975 6.873431,4.059076 1.791423,0.543055 3.897331,1.077471 5.029674,1.303876 1.308868,0.261699 2.282533,0.328961 2.58421,-0.136953 0.297638,-0.459676 -0.15967,-1.376662 -1.329424,-2.36644 C 60.03757,67.176125 58.2819,66.238549 56.12678,65.56233 51.908632,64.238789 48.406911,64.276 48.073354,65.326583 Z"
       id="path3150" />
    <path
       style="fill:#ddcfa6;fill-opacity:1;stroke:none;stroke-width:0.264583px;stroke-linecap:butt;stroke-linejoin:miter;stroke-opacity:1"
       d="m 46.718692,67.973518 c -0.121599,1.095537 4.590647,2.333555 10.13493,3.342473 1.431148,0.260433 6.554,1.189098 7.031767,1.268328 1.811133,0.300344 3.064736,0.410625 3.31381,-0.09071 0.543389,-1.093735 -3.551629,-3.961207 -9.616345,-5.107159 -5.913118,-1.117307 -10.742562,-0.508466 -10.864162,0.58707 z"
       id="path3154" />
    <path
       style="fill:#ddcfa6;fill-opacity:1;stroke:none;stroke-width:0.264583px;stroke-linecap:butt;stroke-linejoin:miter;stroke-opacity:1"
       d="m 50.068245,70.617168 c -0.225422,1.078968 2.629112,2.518569 6.176698,3.383058 3.458532,0.842787 6.542708,1.072225 6.941706,0.1097 0.439365,-1.059905 -2.160649,-3.043494 -5.98943,-3.989592 -3.744259,-0.925212 -6.903552,-0.582133 -7.128974,0.496834 z"
       id="path3158" />
    <path
       style="fill:#ddcfa6;fill-opacity:1;stroke:none;stroke-width:0.264583px;stroke-linecap:butt;stroke-linejoin:miter;stroke-opacity:1"
       d="m 45.299847,71.830543 c -0.205694,1.082901 2.820615,2.469588 6.481013,3.292149 3.531368,0.793567 6.68056,1.133017 7.104239,0.220388 0.492235,-1.060302 -2.179503,-3.184226 -6.215713,-4.117034 -3.918841,-0.905682 -7.163844,-0.478405 -7.369539,0.604497 z"
       id="path3162" />
    <path
       style="fill:#ddcfa6;fill-opacity:1;stroke:none;stroke-width:0.264583px;stroke-linecap:butt;stroke-linejoin:miter;stroke-opacity:1"
       d="m 46.698552,76.665809 c 0.109656,1.084617 3.200869,1.659146 6.821672,1.693147 3.635417,0.03414 6.744651,-0.506037 6.857615,-1.606118 0.111468,-1.085518 -2.881827,-2.352611 -6.821126,-2.387658 -3.950885,-0.03515 -6.969348,1.200855 -6.858161,2.300629 z"
       id="path3166" />
    <path
       style="fill:#ddcfa6;fill-opacity:1;stroke:none;stroke-width:0.264583px;stroke-linecap:butt;stroke-linejoin:miter;stroke-opacity:1"
       d="m 46.82703,80.146534 c 0.227883,1.078451 4.039203,1.066198 8.371348,0.517861 4.18928,-0.530253 7.819011,-1.105633 7.940741,-2.092555 0.143215,-1.161113 -3.59684,-2.453471 -8.429333,-1.873094 -4.734828,0.568647 -8.091606,2.45941 -7.882756,3.447788 z"
       id="path3170" />
    <path
       style="fill:#ddcfa6;fill-opacity:1;stroke:none;stroke-width:0.264583px;stroke-linecap:butt;stroke-linejoin:miter;stroke-opacity:1"
       d="m 46.365927,83.528203 c 0.251201,1.073259 3.626657,1.126802 7.421757,0.332597 3.707234,-0.775818 6.75862,-1.934825 6.697555,-2.971051 -0.0678,-1.150547 -3.446385,-1.778829 -7.510153,-0.940547 -3.981456,0.821301 -6.86036,2.505743 -6.609159,3.579001 z"
       id="path3174" />
    <path
       style="fill:#ddcfa6;fill-opacity:1;stroke:none;stroke-width:0.264583px;stroke-linecap:butt;stroke-linejoin:miter;stroke-opacity:1"
       d="m 46.617889,87.65374 c 0.550428,0.935399 3.961529,-0.09188 7.810877,-1.281868 3.838486,-1.186628 7.232765,-2.244285 7.172433,-3.315453 -0.06101,-1.083161 -3.791031,-1.907798 -8.350936,-0.501375 -4.554093,1.404631 -7.177512,4.172288 -6.632374,5.098696 z"
       id="path3178" />
    <path
       style="fill:#ddcfa6;fill-opacity:1;stroke:none;stroke-width:0.264583px;stroke-linecap:butt;stroke-linejoin:miter;stroke-opacity:1"
       d="m 47.056564,90.45552 c 0.702547,0.905371 3.125264,0.0088 5.52911,-1.180929 2.205482,-1.091529 4.407798,-2.204758 4.383365,-3.162763 -0.02856,-1.11977 -2.813227,-1.971966 -6.106736,-0.438035 -3.180617,1.481353 -4.419153,3.99122 -3.805739,4.781727 z"
       id="path3190" />
    <path
       style="fill:#ddcfa6;fill-opacity:1;stroke:none;stroke-width:0.264583px;stroke-linecap:butt;stroke-linejoin:miter;stroke-opacity:1"
       d="m 50.532592,93.963688 c 0.735072,0.82814 3.580215,-0.581627 6.597077,-2.543704 2.990726,-1.94508 5.444879,-3.924056 5.03368,-4.916975 -0.422909,-1.021194 -3.755092,-0.670297 -7.208043,1.56764 -3.43515,2.226399 -5.138233,5.086927 -4.422714,5.893039 z"
       id="path3198" />
    <path
       style="fill:#ddcfa6;fill-opacity:1;stroke:none;stroke-width:0.264583px;stroke-linecap:butt;stroke-linejoin:miter;stroke-opacity:1"
       d="m 53.362148,96.650021 c 0.792443,0.875551 3.165033,-0.30045 5.432254,-2.00849 2.055031,-1.548184 3.93433,-3.17253 3.687507,-4.090953 -0.300751,-1.119086 -3.183439,-1.194133 -6.054008,0.867882 -2.73148,1.962104 -3.731668,4.495808 -3.065753,5.231561 z"
       id="path3202" />
    <path
       style="fill:#ddcfa6;fill-opacity:1;stroke:none;stroke-width:0.264583px;stroke-linecap:butt;stroke-linejoin:miter;stroke-opacity:1"
       d="m 55.377896,98.236797 c 0.750476,0.893188 2.727223,0.23494 4.389843,-0.977263 1.419251,-1.034764 2.736612,-2.418705 2.54216,-3.350036 -0.232911,-1.115528 -2.517623,-1.487967 -4.830732,0.06991 -2.136589,1.438996 -2.746792,3.489108 -2.101271,4.257384 z"
       id="path3206" />
    <path
       style="fill:#ddcfa6;fill-opacity:1;stroke:none;stroke-width:0.264583px;stroke-linecap:butt;stroke-linejoin:miter;stroke-opacity:1"
       d="m 57.037946,99.924292 c 0.407763,0.380108 1.060161,0.390688 1.80807,0.08129 0.757228,-0.313252 1.475775,-0.888848 2.113093,-1.517428 0.004,-0.0038 0.008,-0.0075 0.01195,-0.01131 0.59751,-0.566912 1.049598,-1.197162 1.354164,-1.723979 0.301643,-0.521761 0.569187,-1.12702 0.442778,-1.643067 -0.13066,-0.5334 -0.695201,-0.929467 -1.64556,-0.894111 -0.944229,0.03513 -2.087375,0.511169 -2.979918,1.440433 -0.0056,0.0058 -0.01118,0.01166 -0.01673,0.01751 -0.842985,0.861388 -1.274153,1.78424 -1.426033,2.506291 -0.152518,0.725079 -0.05637,1.376596 0.33819,1.74439 z"
       id="path3210" />
    <path
       style="fill:#ddcfa6;fill-opacity:1;stroke:none;stroke-width:0.264583px;stroke-linecap:butt;stroke-linejoin:miter;stroke-opacity:1"
       d="m 123.37716,123.19273 c 0.8641,0.58352 3.22604,-1.0193 4.97106,-4.00738 1.79402,-3.07196 1.90027,-6.01718 0.81648,-6.38535 -0.97723,-0.33197 -2.71706,1.75373 -4.26109,4.35976 -1.60532,2.70947 -2.43994,5.41609 -1.52645,6.03297 z"
       id="path3218" />
    <path
       style="fill:#ddcfa6;fill-opacity:1;stroke:none;stroke-width:0.264583px;stroke-linecap:butt;stroke-linejoin:miter;stroke-opacity:1"
       d="m 129.98767,123.00577 c 1.02354,0.40908 2.86436,-1.26708 3.89809,-4.32849 0.0246,-0.073 0.0484,-0.14611 0.0714,-0.21933 0.54033,-1.5362 0.51538,-3.10604 0.085,-4.25799 -0.42676,-1.14232 -1.11413,-1.56547 -1.62053,-1.403 -0.49299,0.15817 -0.80414,0.8249 -1.11927,1.51535 -0.27011,0.59179 -0.82025,1.80657 -1.14228,2.91766 -0.02,0.0596 -0.0401,0.11966 -0.0601,0.18021 -0.85383,2.5786 -1.26327,5.13558 -0.11227,5.59559 z"
       id="path3222" />
    <path
       style="fill:#ddcfa6;fill-opacity:1;stroke:none;stroke-width:0.264583px;stroke-linecap:butt;stroke-linejoin:miter;stroke-opacity:1"
       d="m 136.53273,121.85376 c 0.52455,0.12791 1.14362,-0.21831 1.69779,-0.8712 0.54767,-0.64523 1.13083,-1.72114 1.35139,-3.14731 0.001,-0.008 0.002,-0.0154 0.004,-0.0231 0.24365,-1.57198 -0.22183,-2.97372 -0.89635,-3.81625 -0.68181,-0.85164 -1.42274,-1.00318 -1.87711,-0.71241 -0.44689,0.28598 -0.62948,0.96062 -0.77325,1.60531 -0.13521,0.60627 -0.30539,1.53742 -0.40655,2.35665 4e-5,-3.6e-4 -0.002,0.0163 -0.002,0.0159 -0.13391,1.01788 -0.25231,2.02114 -0.11964,2.94888 0.12857,0.89913 0.47832,1.51085 1.02228,1.64349 z"
       id="path3226" />
    <path
       style="fill:#ddcfa6;fill-opacity:1;stroke:none;stroke-width:0.264583px;stroke-linecap:butt;stroke-linejoin:miter;stroke-opacity:1"
       d="m 140.881,122.20154 c 1.07457,0.24551 2.65217,-1.61631 3.31298,-4.67485 0.33788,-1.56385 0.26348,-3.03277 -0.12035,-4.11754 -0.37222,-1.05198 -0.99475,-1.58391 -1.53666,-1.4835 -0.54029,0.10011 -0.91006,0.74898 -1.23504,1.53933 -0.28536,0.69398 -0.71953,1.97335 -1.0149,3.15753 -0.67504,2.70632 -0.59666,5.307 0.59397,5.57903 z"
       id="path3230" />
    <path
       style="fill:#ddcfa6;fill-opacity:1;stroke:none;stroke-width:0.264583px;stroke-linecap:butt;stroke-linejoin:miter;stroke-opacity:1"
       d="m 148.68432,116.9554 c 0.99586,-0.0494 2.07512,-1.62106 1.96551,-3.82031 -0.0571,-1.14609 -0.43708,-2.19039 -0.98888,-2.8705 -0.55344,-0.68213 -1.18282,-0.88828 -1.69365,-0.66808 -0.87086,0.3754 -1.34063,2.06693 -1.32044,3.67044 0.0246,1.95627 0.85925,3.74687 2.03746,3.68845 z"
       id="path3234" />
    <path
       style="fill:#ddcfa6;fill-opacity:1;stroke:none;stroke-width:0.264583px;stroke-linecap:butt;stroke-linejoin:miter;stroke-opacity:1"
       d="m 153.66717,115.89845 c 0.9909,9e-4 2.16436,-1.49349 1.96886,-3.83605 0,0 -1.1e-4,-10e-4 -1.1e-4,-10e-4 -0.0932,-1.26314 -0.67821,-2.32489 -1.3787,-2.91864 -0.70671,-0.59901 -1.38431,-0.62935 -1.82001,-0.2958 -0.42084,0.32218 -0.60452,0.95028 -0.70789,1.51994 -0.10544,0.58106 -0.16055,1.29977 -0.0706,2.05733 0,0 9e-5,8.9e-4 9e-5,8.9e-4 0.17236,1.68682 0.79045,3.47248 2.00835,3.4736 z"
       id="path3238" />
    <path
       style="fill:#ddcfa6;fill-opacity:1;stroke:none;stroke-width:0.264583px;stroke-linecap:butt;stroke-linejoin:miter;stroke-opacity:1"
       d="m 158.27278,111.84961 c 0.49185,-0.18415 0.92104,-0.59776 1.15139,-1.02637 0.24039,-0.44732 0.34805,-1.06433 0.0582,-1.86674 -9.9e-4,-0.003 -0.002,-0.005 -0.003,-0.008 -0.30476,-0.92404 -1.09601,-1.53418 -1.82674,-1.68455 -0.71293,-0.14671 -1.23947,0.17848 -1.47516,0.67562 -0.15877,0.33489 -0.31936,1.19503 -0.37362,1.4097 -0.0999,0.39531 -0.21255,0.7057 -0.0662,0.99524 0,-1e-5 0.002,0.004 0.002,0.004 0.15285,0.38868 0.48169,0.89906 0.96916,1.2484 0.4969,0.3561 1.03248,0.45203 1.56444,0.25285 z"
       id="path3242" />
    <path
       style="fill:#ddcfa6;fill-opacity:1;stroke:none;stroke-width:0.264583px;stroke-linecap:butt;stroke-linejoin:miter;stroke-opacity:1"
       d="m 162.23134,109.66386 c 0.4589,-0.23668 0.84133,-0.69186 1.03595,-1.10999 0.20574,-0.442 0.28674,-1.0165 -0.0123,-1.75047 -0.006,-0.0152 -0.0115,-0.0304 -0.0174,-0.0456 -0.32694,-0.83036 -1.04922,-1.39681 -1.73838,-1.55338 -0.70763,-0.16077 -1.21157,0.11678 -1.50191,0.59131 -0.24689,0.40351 -0.3886,1.07404 -0.45973,1.4092 -0.0883,0.41588 -0.14991,0.77615 0.0246,1.12258 0.003,0.007 0.007,0.0132 0.0102,0.0198 0.18318,0.41635 0.58133,0.92967 1.08906,1.23017 0.53236,0.31508 1.06992,0.34431 1.56998,0.0864 z"
       id="path3246" />
    <path
       style="fill:#ddcfa6;fill-opacity:1;stroke:none;stroke-width:0.264583px;stroke-linecap:butt;stroke-linejoin:miter;stroke-opacity:1"
       d="m 166.6966,107.40018 c 0.45512,-0.2759 0.724,-0.8419 0.73735,-1.51738 0.0134,-0.67601 -0.2364,-1.58111 -0.9894,-2.48011 -0.0164,-0.0181 -0.0329,-0.0361 -0.0495,-0.0539 -2.02883,-2.1728 -4.05613,-1.10907 -4.26019,-0.2471 -0.23334,0.98567 0.78402,2.30117 1.29771,2.92159 3e-5,4e-5 0.0183,0.022 0.0183,0.0221 0.42523,0.43582 0.93617,0.93453 1.55635,1.25543 0.61484,0.31813 1.21364,0.38784 1.68942,0.0994 z"
       id="path3250" />
    <path
       style="fill:#ddcfa6;fill-opacity:1;stroke:none;stroke-width:0.264583px;stroke-linecap:butt;stroke-linejoin:miter;stroke-opacity:1"
       d="m 179.37683,98.250211 c -0.001,-1.114629 -1.97389,-1.980651 -4.37109,-1.964785 -2.3623,0.01564 -4.30908,0.868171 -4.34419,1.956785 -0.0359,1.113759 1.92144,2.052429 4.36995,2.037049 2.41445,-0.0152 4.34634,-0.93949 4.34533,-2.029049 z"
       id="path3254" />
    <path
       style="fill:#ddcfa6;fill-opacity:1;stroke:none;stroke-width:0.264583px;stroke-linecap:butt;stroke-linejoin:miter;stroke-opacity:1"
       d="m 173.58943,101.89988 c 0.50184,-0.93887 -0.0102,-2.32266 -1.31427,-3.068194 -1.43604,-0.820974 -2.99294,-0.502143 -3.38787,0.554854 -0.36996,0.99017 0.27463,2.25523 1.38745,2.90619 1.25224,0.73252 2.78047,0.6066 3.31469,-0.39285 z"
       id="path3258" />
    <path
       style="fill:#ddcfa6;fill-opacity:1;stroke:none;stroke-width:0.264583px;stroke-linecap:butt;stroke-linejoin:miter;stroke-opacity:1"
       d="m 170.23889,105.3407 c 1.25737,-1.01408 1.68323,-2.75933 0.75154,-3.9871 -1.06497,-1.403414 -2.99825,-1.48127 -4.1674,-0.28018 -1.1198,1.15039 -1.3764,2.86684 -0.63008,3.87647 0.88247,1.19383 2.73643,1.44694 4.04594,0.39081 z"
       id="path3262" />
    <path
       style="fill:#ddcfa6;fill-opacity:1;stroke:none;stroke-width:0.264583px;stroke-linecap:butt;stroke-linejoin:miter;stroke-opacity:1"
       d="m 59.110855,165.34109 c 1.695068,1.49702 6.068042,-0.89372 9.53457,-5.51343 3.382464,-4.50768 4.573109,-9.21932 2.874524,-10.52458 -1.795152,-1.37946 -5.931864,1.27653 -9.26761,5.73346 -3.246813,4.3381 -4.744637,8.88872 -3.141484,10.30455 z"
       id="path3274" />
    <path
       style="fill:#ddcfa6;fill-opacity:1;stroke:none;stroke-width:0.264583px;stroke-linecap:butt;stroke-linejoin:miter;stroke-opacity:1"
       d="m 71.581917,167.24034 c 1.998326,0.83875 5.185685,-1.83712 6.797358,-6.33507 1.642656,-4.58442 0.797492,-8.74069 -1.372966,-9.25097 -2.104479,-0.49477 -4.699537,2.5474 -6.144075,6.54732 -1.479539,4.09685 -1.340079,8.17418 0.719683,9.03872 z"
       id="path3278" />
    <path
       style="fill:#ddcfa6;fill-opacity:1;stroke:none;stroke-width:0.264583px;stroke-linecap:butt;stroke-linejoin:miter;stroke-opacity:1"
       d="m 78.738178,163.85728 c 2.001125,0.81741 4.834318,-0.95127 5.590384,-4.6517 0.76691,-3.7535 -1.177715,-6.51856 -3.360653,-6.4801 -2.153173,0.0379 -3.945021,2.41458 -4.459143,4.8635 -0.527654,2.51338 0.202122,5.44021 2.229412,6.2683 z"
       id="path3282" />
    <path
       style="fill:#ddcfa6;fill-opacity:1;stroke:none;stroke-width:0.264583px;stroke-linecap:butt;stroke-linejoin:miter;stroke-opacity:1"
       d="m 56.101832,155.04688 c 1.176284,1.83524 4.979158,1.60381 8.486318,-0.76456 3.567815,-2.40933 5.187467,-5.92555 3.814599,-7.67622 -1.343694,-1.71347 -5.018783,-1.14359 -8.281068,1.05359 -3.329887,2.24271 -5.209451,5.53118 -4.019849,7.38719 z"
       id="path3286" />
    <path
       style="fill:#ddcfa6;fill-opacity:1;stroke:none;stroke-width:0.264583px;stroke-linecap:butt;stroke-linejoin:miter;stroke-opacity:1"
       d="m 56.428601,147.39747 c 0.86254,2.07172 4.183181,2.54454 7.319259,1.03217 2.98796,-1.44094 4.681837,-4.18619 3.843049,-6.17642 -0.871614,-2.06812 -4.190296,-2.52686 -7.314096,-1.01984 -2.975359,1.43541 -4.678245,4.17045 -3.848212,6.16409 z"
       id="path3290" />
    <path
       style="fill:#ddcfa6;fill-opacity:1;stroke:none;stroke-width:0.264583px;stroke-linecap:butt;stroke-linejoin:miter;stroke-opacity:1"
       d="m 58.863094,140.27515 c 0.749358,2.03873 3.194554,3.14829 5.608321,2.11342 2.54826,-1.09252 3.459832,-3.72522 2.306564,-5.62074 -1.123869,-1.84719 -3.567625,-2.512 -5.425561,-1.73451 -2.002924,0.83816 -3.257437,3.15207 -2.489324,5.24183 z"
       id="path3294" />
    <path
       style="fill:#ddcfa6;fill-opacity:1;stroke:none;stroke-width:0.264583px;stroke-linecap:butt;stroke-linejoin:miter;stroke-opacity:1"
       d="m 61.13309,135.84502 c 0.928249,2.02663 3.195346,2.90075 4.888085,2.14273 1.51508,-0.67846 2.353838,-2.83695 1.755774,-4.91547 -0.614419,-2.13536 -2.857843,-3.32015 -4.981486,-2.39481 -1.953219,0.85108 -2.567107,3.19226 -1.662373,5.16755 z"
       id="path3298" />
  </g>
  <g
     id="layer3"
     style="display:inline;opacity:1"
     transform="translate(-13.819431,-9.4937254)">
    <path
       id="path2724"
       style="fill:#f9f3d1;fill-opacity:1;stroke:none;stroke-width:0.264583px;stroke-linecap:butt;stroke-linejoin:miter;stroke-opacity:1"
       d="m 20.559384,9.5007119 c 0.244444,0.019981 0.485124,0.094576 0.714169,0.1782837 0.330205,0.5650724 0.711935,1.2292634 1.165302,1.9952274 0.985956,1.665767 2.161598,3.516894 3.68918,5.591906 0.03693,0.05764 0.08095,0.134105 0.116274,0.187586 1.32511,2.006603 3.407172,4.95985 4.656561,6.549987 1.249402,1.590139 3.861781,4.278293 3.861781,4.278293 0,0 -0.453988,-1.0345 -0.849045,-1.933216 2.100633,2.224451 4.120195,4.294016 5.846673,6.174817 1.293376,1.410944 2.45115,3.252383 3.142961,4.266922 1.773185,2.548689 3.233306,3.659312 3.062343,3.990454 -0.185938,0.360159 -2.197618,-0.232526 -4.574913,-2.757453 -1.054391,-1.09923 -2.125937,-2.495029 -3.445785,-3.684529 -2.249741,-2.06411 -5.20251,-4.821695 -7.864118,-7.704958 -1.220269,-1.321889 -2.348997,-2.633779 -3.391008,-3.958931 -3.001981,-3.81389 -4.866516,-7.357184 -5.927286,-10.204545 -0.428252,-1.149528 -0.707871,-2.124383 -0.866613,-2.8830277 0.196273,-0.079733 0.424479,-0.1063569 0.663524,-0.086816 z" />
    <path
       id="path2732"
       style="fill:#f9f3d1;fill-opacity:1;stroke:none;stroke-width:0.264583px;stroke-linecap:butt;stroke-linejoin:miter;stroke-opacity:1"
       d="m 19.491232,18.006653 c 0.263848,0.03426 0.850062,0.67595 1.723925,1.723925 0.368776,0.572344 0.728273,1.121899 1.015441,1.508952 0.385366,0.519404 1.419321,1.614343 2.440163,2.668571 2.516243,2.966157 5.492242,6.191211 9.626803,10.045899 4.633532,4.319881 9.924846,8.63084 12.708784,11.027232 0.740691,0.631638 1.596528,1.707936 1.904794,2.042253 1.049493,0.982906 1.73958,1.104075 1.796788,1.345139 0.02077,0.08752 -0.924748,0.984628 -2.666503,-0.280088 -0.697166,-0.442759 -1.400135,-1.107329 -2.167826,-1.54926 C 42.441251,44.446171 37.259254,40.836807 32.248075,36.148182 27.595102,31.794701 24.279736,27.629723 22.051282,24.056929 19.906411,20.618143 19.05173,18.22465 19.410616,18.019572 c 0.02244,-0.01282 0.04941,-0.01697 0.08062,-0.01292 z" />
    <path
       id="path2740"
       style="fill:#f9f3d1;fill-opacity:1;stroke:none;stroke-width:0.264583px;stroke-linecap:butt;stroke-linejoin:miter;stroke-opacity:1"
       d="m 19.107277,28.55433 c 2.191954,1.550811 4.29741,3.551203 4.29741,3.551203 0,0 -0.964464,-1.414711 -2.008145,-2.998782 1.448789,1.437235 3.924996,2.749302 6.570141,5.251876 2.106565,1.985899 4.171786,3.826926 6.699332,6.061644 5.038476,4.454747 8.528307,7.568753 11.669572,10.994678 2.798974,3.052612 4.199311,5.215472 3.897953,5.48907 -0.310491,0.281895 -2.252073,-1.36416 -5.359363,-3.960482 C 43.214983,51.557181 35.964648,45.571827 32.68009,42.665612 30.197697,40.469161 28.006595,38.391599 26.028817,36.29701 23.63452,33.741106 20.609507,31.606471 19.371342,29.331025 19.27987,29.057338 19.192388,28.801195 19.107277,28.55433 Z" />
    <path
       style="fill:#f9f3d1;fill-opacity:1;stroke:none;stroke-width:0.264583px;stroke-linecap:butt;stroke-linejoin:miter;stroke-opacity:1"
       d="m 22.531234,42.409206 c -0.45857,0.687855 4.341949,5.104115 11.468769,8.992404 0.103983,0.05673 0.207912,0.11295 0.311787,0.168652 4.050242,2.172542 7.639588,3.460344 9.870117,4.579317 1.637959,0.790052 2.528512,1.57616 2.845972,1.267454 0.250854,-0.243937 -0.19586,-1.386222 -1.801608,-2.799182 -2.600153,-2.290017 -5.061228,-3.286967 -9.494823,-5.684097 -0.09931,-0.05371 -0.198842,-0.107695 -0.298622,-0.16198 -6.838368,-3.720408 -12.443023,-7.050422 -12.901592,-6.362568 z"
       id="path2772" />
    <path
       style="fill:#f9f3d1;fill-opacity:1;stroke:none;stroke-width:0.264583px;stroke-linecap:butt;stroke-linejoin:miter;stroke-opacity:1"
       d="m 22.821702,51.898025 c -0.153412,0.383531 1.138502,1.314792 3.419933,2.424094 2.473632,1.202755 5.324013,2.269547 9.056748,3.637404 4.30625,1.578019 5.861655,2.179062 8.871106,3.416257 2.236538,0.919448 3.682596,1.52306 3.92346,1.172963 0.228077,-0.331511 -0.812249,-1.560396 -2.913837,-3.017815 -2.196366,-1.523145 -5.114239,-3.006697 -8.843441,-4.387361 -3.450689,-1.27755 -7.118875,-2.284558 -9.376983,-2.822941 -2.423326,-0.577776 -3.984029,-0.804992 -4.136986,-0.422601 z"
       id="path2776" />
    <path
       style="fill:#f9f3d1;fill-opacity:1;stroke:none;stroke-width:0.264583px;stroke-linecap:butt;stroke-linejoin:miter;stroke-opacity:1"
       d="m 21.078852,58.966227 c -0.08748,0.408249 1.555287,1.103847 4.122732,2.206485 1.642709,0.705493 7.067559,3.084161 10.246497,4.259325 0.336067,0.124234 0.670525,0.245075 1.003866,0.362381 0,0 1e-6,1e-6 1e-6,1e-6 4.128008,1.447232 8.690756,1.950109 11.066401,2.144762 0,0 10e-7,0 10e-7,0 2.05186,0.135465 3.589495,0.384892 3.672989,0.03174 0.08349,-0.35315 -0.918056,-1.153781 -3.298389,-1.904748 0,0 -10e-7,0 -10e-7,0 -2.577077,-0.831444 -6.451536,-1.61066 -10.428677,-3.083769 0,0 -1e-6,0 -1e-6,0 -0.322336,-0.118742 -0.645804,-0.238639 -0.97447,-0.360797 C 32.109941,60.993711 29.054837,59.8597 25.843684,59.158826 22.989893,58.53595 21.164402,58.566989 21.078852,58.966225 Z"
       id="path2784" />
    <path
       style="fill:#f9f3d1;fill-opacity:1;stroke:none;stroke-width:0.264583px;stroke-linecap:butt;stroke-linejoin:miter;stroke-opacity:1"
       d="m 24.177247,68.648696 c -0.0634,0.824263 6.16255,1.909863 13.837056,2.220258 4.233654,0.171229 8.354857,0.139989 10.790481,-0.02007 1.311132,-0.245041 3.040949,0.189915 3.064325,-0.166867 0.02338,-0.356782 -0.367964,-1.212222 -2.938795,-1.716067 -2.616977,-0.524019 -6.354696,-0.910577 -10.794955,-1.090153 -7.679579,-0.310583 -13.894707,-0.05136 -13.958112,0.7729 z"
       id="path2788" />
    <path
       style="fill:#f9f3d1;fill-opacity:1;stroke:none;stroke-width:0.264583px;stroke-linecap:butt;stroke-linejoin:miter;stroke-opacity:1"
       d="m 26.694685,74.942304 c -1e-6,0.411494 1.499719,0.810511 3.96793,0.870523 2.784615,0.06771 5.488465,-0.257472 9.386119,-0.677632 0.540429,-0.05826 1.063812,-0.113032 1.58358,-0.16392 0,0 10e-7,0 10e-7,0 2.955843,-0.313766 5.894016,0.04359 8.04795,-0.09602 0,0 0,0 0,0 2.170448,-0.126651 3.424708,-0.672183 3.447564,-0.901198 0.03814,-0.382194 -1.403995,-0.714021 -3.330155,-1.094838 0,0 -10e-7,0 -10e-7,0 -1.629222,-0.311137 -5.235937,-1.074921 -8.412248,-0.870623 0,0 -10e-7,0 -10e-7,0 -0.546131,0.03796 -1.097656,0.08733 -1.656173,0.146907 -3.270973,0.348891 -7.36751,1.165835 -9.249748,1.5505 -2.310145,0.472116 -3.784818,0.821845 -3.784818,1.236304 z"
       id="path2796" />
    <path
       style="fill:#f9f3d1;fill-opacity:1;stroke:none;stroke-width:0.264583px;stroke-linecap:butt;stroke-linejoin:miter;stroke-opacity:1"
       d="m 29.018488,81.526379 c 0.184856,0.369711 1.532889,0.04387 3.691506,-0.243972 1.096568,-0.146221 6.275161,-0.631093 8.799307,-1.197958 0.14702,-0.03302 0.29342,-0.06721 0.43922,-0.102646 3.433291,-0.804273 6.17241,-2.008774 8.1643,-2.655143 1.959989,-0.636017 3.29438,-0.913867 3.305488,-1.319288 0.01093,-0.398841 -1.360994,-0.858898 -3.680177,-0.715517 -2.864525,0.177095 -4.80148,0.907354 -8.475255,1.775968 -0.132128,0.02995 -0.265316,0.05941 -0.399691,0.08848 -3.807884,0.823904 -5.931853,1.001727 -8.693306,2.093511 -2.235456,0.883822 -3.334104,1.911138 -3.151392,2.276562 z"
       id="path2804" />
    <path
       style="fill:#f9f3d1;fill-opacity:1;stroke:none;stroke-width:0.264583px;stroke-linecap:butt;stroke-linejoin:miter;stroke-opacity:1"
       d="m 33.181943,86.077142 c 0.210562,0.315843 1.238822,-0.01136 2.830467,-0.423169 1.612612,-0.41723 3.917886,-0.851181 6.61302,-1.648642 0,0 10e-7,0 10e-7,0 0.555858,-0.160292 1.117311,-0.334347 1.686408,-0.521244 2.778089,-0.91235 5.889967,-2.202986 7.514678,-2.919668 1.866976,-0.823548 3.035204,-1.440356 2.947332,-1.845957 -0.08708,-0.401962 -1.43205,-0.512888 -3.537392,-0.185467 -2.260536,0.351556 -4.738994,1.075541 -7.861053,2.104025 -0.547136,0.18024 -1.107827,0.367258 -1.627557,0.540547 0,0 0,10e-7 0,10e-7 -2.785433,0.907062 -4.751363,1.588203 -6.517651,2.691794 -1.572678,0.982621 -2.251653,1.902679 -2.048253,2.20778 z"
       id="path2808" />
    <path
       style="fill:#f9f3d1;fill-opacity:1;stroke:none;stroke-width:0.264583px;stroke-linecap:butt;stroke-linejoin:miter;stroke-opacity:1"
       d="m 34.614029,91.821692 c 0.412955,0.699236 4.91459,-1.226414 10.331763,-3.546355 5.426727,-2.324032 9.921487,-4.284371 9.683847,-5.081768 -0.232257,-0.779334 -5.18202,-0.10593 -10.863273,2.328632 -5.686467,2.436797 -9.575444,5.583068 -9.152337,6.299491 z"
       id="path2828" />
    <path
       style="fill:#f9f3d1;fill-opacity:1;stroke:none;stroke-width:0.264583px;stroke-linecap:butt;stroke-linejoin:miter;stroke-opacity:1"
       d="m 38.893242,95.810158 c 0.466267,0.649142 4.20545,-1.220497 8.63985,-3.528338 4.457807,-2.320023 8.118525,-4.378594 7.810827,-5.164578 -0.292132,-0.746221 -4.497853,0.05906 -9.194761,2.507774 -4.710745,2.455924 -7.747766,5.500383 -7.255916,6.185142 z"
       id="path2836" />
    <path
       style="fill:#f9f3d1;fill-opacity:1;stroke:none;stroke-width:0.264583px;stroke-linecap:butt;stroke-linejoin:miter;stroke-opacity:1"
       d="m 41.883144,102.40315 c 0.61824,0.48354 3.372891,-2.01525 6.635564,-5.1454 0,0 1e-6,-10e-7 1e-6,-10e-7 0.110849,-0.105607 0.222052,-0.211992 0.333754,-0.319209 3.36635,-3.23122 6.230503,-5.921524 5.922826,-6.479545 -0.195969,-0.35542 -1.270185,-0.229021 -2.796484,0.505489 -1.576999,0.758909 -3.366722,2.03174 -5.207806,3.816431 -0.115852,0.112304 -0.229917,0.224679 -0.342162,0.336951 0,0 -1e-6,10e-7 -1e-6,10e-7 -3.416632,3.394172 -5.179049,6.789913 -4.545692,7.285283 z"
       id="path2840" />
    <path
       style="fill:#f9f3d1;fill-opacity:1;stroke:none;stroke-width:0.264583px;stroke-linecap:butt;stroke-linejoin:miter;stroke-opacity:1"
       d="m 47.336928,104.16107 c 0.660906,0.53421 3.120937,-1.62076 6.010486,-4.07525 2.841737,-2.413879 5.408428,-4.376725 5.082405,-5.074983 -0.357459,-0.765587 -3.723247,0.01139 -7.016905,2.78894 -3.270817,2.758283 -4.681295,5.872023 -4.075986,6.361293 z"
       id="path2848" />
    <path
       style="fill:#f9f3d1;fill-opacity:1;stroke:none;stroke-width:0.264583px;stroke-linecap:butt;stroke-linejoin:miter;stroke-opacity:1"
       d="m 50.897597,111.56832 c 0.805433,0.1863 2.00418,-2.5076 3.520229,-5.47492 1.447214,-2.8326 3.108081,-5.18805 2.655883,-5.73996 -0.539955,-0.659022 -3.424273,0.77495 -5.309973,4.36318 -1.860791,3.54084 -1.58522,6.68537 -0.866139,6.8517 z"
       id="path2852" />
    <path
       style="fill:#f9f3d1;fill-opacity:1;stroke:none;stroke-width:0.264583px;stroke-linecap:butt;stroke-linejoin:miter;stroke-opacity:1"
       d="m 53.484839,113.87991 c 0.749266,0.34933 2.655667,-2.43364 4.760175,-5.71075 2.034979,-3.16884 3.987756,-5.78407 3.534345,-6.33794 -0.561058,-0.68537 -3.649518,1.02341 -6.054325,4.70524 -2.368294,3.62593 -2.905582,7.03323 -2.240195,7.34345 z"
       id="path2856" />
    <path
       style="fill:#f9f3d1;fill-opacity:1;stroke:none;stroke-width:0.264583px;stroke-linecap:butt;stroke-linejoin:miter;stroke-opacity:1"
       d="m 59.128037,115.77278 c 0.860061,0.35788 2.409735,-2.22653 3.813787,-5.43805 1.325514,-3.03188 2.455904,-5.67667 1.932905,-6.12392 -0.70107,-0.59953 -3.105229,1.40787 -4.67585,4.90845 -1.520755,3.38944 -1.834098,6.33592 -1.070842,6.65352 z"
       id="path2860" />
    <path
       style="fill:#f9f3d1;fill-opacity:1;stroke:none;stroke-width:0.264583px;stroke-linecap:butt;stroke-linejoin:miter;stroke-opacity:1"
       d="m 62.065964,118.7106 c 0.71325,0.41797 2.524579,-1.48139 4.276193,-3.93964 1.700878,-2.38703 3.02401,-4.57648 2.504722,-5.1461 -0.579677,-0.63586 -2.980788,0.67857 -4.940399,3.4016 -1.926267,2.6767 -2.512106,5.29057 -1.840516,5.68414 z"
       id="path2864" />
    <path
       style="fill:#f9f3d1;fill-opacity:1;stroke:none;stroke-width:0.264583px;stroke-linecap:butt;stroke-linejoin:miter;stroke-opacity:1"
       d="m 67.977485,117.51529 c 0.768829,0.47475 2.22505,-0.91224 3.435967,-2.70684 1.07109,-1.58738 2.000903,-3.19507 1.630937,-3.77378 -0.476941,-0.74604 -2.552705,-0.0984 -4.094736,2.05829 -1.442485,2.01744 -1.675567,3.98798 -0.972168,4.42233 z"
       id="path2868" />
    <path
       style="fill:#f9f3d1;fill-opacity:1;stroke:none;stroke-width:0.264583px;stroke-linecap:butt;stroke-linejoin:miter;stroke-opacity:1"
       d="m 72.661587,115.59716 c 0.695133,0.61753 2.453182,-0.66992 4.038331,-2.43851 1.375085,-1.53422 2.666556,-3.05338 2.424161,-3.64851 -0.343203,-0.84264 -2.654243,-0.46004 -4.626635,1.60677 -1.842974,1.93119 -2.453902,3.93121 -1.835857,4.48025 z"
       id="path2872" />
    <path
       style="fill:#f9f3d1;fill-opacity:1;stroke:none;stroke-width:0.264583px;stroke-linecap:butt;stroke-linejoin:miter;stroke-opacity:1"
       d="m 217.11584,90.045068 c -0.3142,-0.764663 -9.73543,2.713633 -21.64893,5.048806 -6.19914,1.215098 -11.15886,1.747538 -15.37523,2.100652 -3.97352,0.332777 -6.4834,0.477486 -6.51133,0.889891 -0.0279,0.412405 2.45766,1.016909 6.54486,1.221692 4.2001,0.210439 9.65401,-0.05126 15.91643,-1.272443 12.28355,-2.395319 21.3884,-7.223936 21.0742,-7.988598 z"
       id="path2880" />
    <path
       style="fill:#f9f3d1;fill-opacity:1;stroke:none;stroke-width:0.264583px;stroke-linecap:butt;stroke-linejoin:miter;stroke-opacity:1"
       d="m 207.14664,97.717495 c -0.23126,-0.793692 -7.27414,0.836832 -15.88534,1.248597 -4.50315,0.215328 -7.97862,0.02081 -10.99608,-0.230195 -2.82368,-0.234881 -4.6282,-0.433153 -4.74477,-0.03658 -0.25349,0.862381 6.61949,3.677333 15.88002,3.257733 9.25813,-0.41949 15.94453,-3.558776 15.74617,-4.239554 z"
       id="path2884" />
    <path
       style="fill:#f9f3d1;fill-opacity:1;stroke:none;stroke-width:0.264583px;stroke-linecap:butt;stroke-linejoin:miter;stroke-opacity:1"
       d="m 195.04276,104.65375 c -0.0818,-0.82264 -4.96623,-0.84664 -10.69535,-1.76873 -5.72913,-0.92209 -10.17689,-2.64891 -10.56423,-1.91857 -0.39615,0.74695 3.71501,3.83241 10.08427,4.87479 6.35596,1.04019 11.25026,-0.4338 11.17531,-1.18749 z"
       id="path2888" />
    <path
       style="fill:#f9f3d1;fill-opacity:1;stroke:none;stroke-width:0.264583px;stroke-linecap:butt;stroke-linejoin:miter;stroke-opacity:1"
       d="m 187.19436,109.70375 c 0.0671,-0.82397 -3.94224,-1.69501 -8.41603,-3.6579 -4.47379,-1.96289 -7.81232,-4.33323 -8.37641,-3.72888 -0.5434,0.58218 2.0286,4.20969 7.1738,6.46881 5.14417,2.25865 9.55442,1.70619 9.61864,0.91797 z"
       id="path2892" />
    <path
       style="fill:#f9f3d1;fill-opacity:1;stroke:none;stroke-width:0.264583px;stroke-linecap:butt;stroke-linejoin:miter;stroke-opacity:1"
       d="m 178.64099,114.58451 c 0.35358,-0.74727 -2.53831,-2.5411 -5.64983,-4.6582 0,1e-5 -0.018,-0.0123 -0.018,-0.0123 -1.64933,-1.13103 -2.68321,-2.00637 -3.70858,-2.9228 -0.90749,-0.81108 -1.54332,-1.40744 -1.92541,-1.23413 -0.36113,0.16381 -0.41048,1.10828 0.21064,2.45591 0.63044,1.36786 1.86829,2.92815 3.74568,4.18236 0,0 0.0209,0.014 0.0209,0.014 3.60578,2.41367 6.97107,2.9224 7.32464,2.17513 z"
       id="path2900" />
    <path
       style="fill:#f9f3d1;fill-opacity:1;stroke:none;stroke-width:0.264583px;stroke-linecap:butt;stroke-linejoin:miter;stroke-opacity:1"
       d="m 170.0679,119.23684 c 0.37915,-0.60829 -1.75011,-2.81759 -3.57676,-5.66145 -1.89008,-2.94261 -3.20253,-5.77325 -4.01944,-5.557 -0.71424,0.18907 -0.85062,3.57632 1.51562,7.18362 2.38591,3.63727 5.64087,4.7403 6.08058,4.03483 z"
       id="path2904" />
    <path
       style="fill:#f9f3d1;fill-opacity:1;stroke:none;stroke-width:0.264583px;stroke-linecap:butt;stroke-linejoin:miter;stroke-opacity:1"
       d="m 160.68002,121.38216 c 0.76045,-0.22625 0.74454,-2.8726 -0.0839,-5.93213 -0.84153,-3.10788 -2.26623,-5.39256 -3.0793,-5.11681 -0.75071,0.2546 -0.62784,2.88319 0.18741,5.89919 0.82897,3.06675 2.15244,5.3947 2.97579,5.14975 z"
       id="path2908" />
    <path
       style="fill:#f9f3d1;fill-opacity:1;stroke:none;stroke-width:0.264583px;stroke-linecap:butt;stroke-linejoin:miter;stroke-opacity:1"
       d="m 150.9839,128.47358 c 0.55778,0.31576 3.78019,-2.78911 4.65757,-8.46171 0,0 0.001,-0.008 0.001,-0.008 0.4242,-2.80604 -0.005,-5.27036 -0.67039,-6.98175 -0.66019,-1.69869 -1.47103,-2.51118 -1.83444,-2.3656 -0.396,0.15864 -0.30851,1.23556 -0.22937,2.82678 0.0827,1.66167 0.13375,3.68087 -0.22747,6.07308 0,0 -0.001,0.007 -0.001,0.007 -0.69324,4.69115 -2.41554,8.50305 -1.69612,8.91032 z"
       id="path2912" />
    <path
       style="fill:#f9f3d1;fill-opacity:1;stroke:none;stroke-width:0.264583px;stroke-linecap:butt;stroke-linejoin:miter;stroke-opacity:1"
       d="m 146.57327,124.81309 c 0.7575,0.32009 2.62169,-2.13806 3.20655,-5.94623 0.58296,-3.79577 -0.4208,-6.69791 -1.21818,-6.64524 -0.82242,0.0543 -1.2456,2.91895 -1.74287,6.19285 -0.4936,3.2497 -0.97855,6.08885 -0.2455,6.39862 z"
       id="path2916" />
    <path
       style="fill:#f9f3d1;fill-opacity:1;stroke:none;stroke-width:0.264583px;stroke-linecap:butt;stroke-linejoin:miter;stroke-opacity:1"
       d="m 137.41818,132.46973 c 0.72255,0.40168 3.75677,-3.23281 5.937,-8.60965 2.22567,-5.48891 2.13426,-10.2594 1.22262,-10.35642 -0.69232,-0.0737 -1.96159,4.27145 -3.99707,9.22401 -2.08073,5.06264 -3.8851,9.34038 -3.16255,9.74206 z"
       id="path2920" />
    <path
       style="fill:#f9f3d1;fill-opacity:1;stroke:none;stroke-width:0.264583px;stroke-linecap:butt;stroke-linejoin:miter;stroke-opacity:1"
       d="m 133.16741,129.47822 c 0.71166,0.31876 2.92296,-2.6064 4.37633,-6.90475 1.46541,-4.33396 1.35996,-8.0415 0.50731,-8.17013 -0.76618,-0.11558 -1.98849,3.22431 -3.34472,7.20746 -1.37842,4.04834 -2.29339,7.52948 -1.53892,7.86742 z"
       id="path2928" />
    <path
       style="fill:#f9f3d1;fill-opacity:1;stroke:none;stroke-width:0.264583px;stroke-linecap:butt;stroke-linejoin:miter;stroke-opacity:1"
       d="m 126.14761,127.52557 c 0.68619,0.46105 3.09765,-1.61092 5.11809,-5.01094 2.08225,-3.50403 2.36728,-6.80404 1.48013,-7.03207 -0.67323,-0.17304 -2.2204,2.46628 -4.05235,5.48892 -1.90596,3.14477 -3.23206,6.09304 -2.54587,6.55409 z"
       id="path2932" />
    <path
       style="fill:#f9f3d1;fill-opacity:1;stroke:none;stroke-width:0.264583px;stroke-linecap:butt;stroke-linejoin:miter;stroke-opacity:1"
       d="m 116.93563,133.16858 c 0.71328,0.41792 3.50754,-2.9776 6.35812,-7.55624 2.85058,-4.57863 4.55738,-8.69705 3.8473,-9.1204 -0.71008,-0.42335 -3.53642,2.95321 -6.39021,7.53728 -2.85379,4.58406 -4.5285,8.72144 -3.81521,9.13936 z"
       id="path2940" />
    <path
       style="fill:#f9f3d1;fill-opacity:1;stroke:none;stroke-width:0.264583px;stroke-linecap:butt;stroke-linejoin:miter;stroke-opacity:1"
       d="m 111.17409,132.14102 c 0.82939,0.72602 2.61882,0.30283 3.94593,-1.4844 1.47434,-1.9855 1.14163,-4.04827 0.0405,-4.32419 -0.52484,-0.13152 -1.10734,0.11604 -1.60641,0.43232 -0.49103,0.31118 -1.07841,0.80256 -1.59947,1.43952 -1.12062,1.36989 -1.65601,3.17044 -0.78057,3.93675 z"
       id="path2944" />
    <path
       id="path3061"
       style="fill:#f9f3d1;fill-opacity:1;stroke:none;stroke-width:0.264583px;stroke-linecap:butt;stroke-linejoin:miter;stroke-opacity:1"
       d="m 35.044803,120.27741 c 1.428107,0.15919 2.868554,0.3342 3.920175,0.49713 2.68809,0.41646 10.525575,1.96892 14.500923,2.38538 3.035599,0.31802 7.231081,0.52611 9.801987,0.72451 2.84598,0.86283 4.547611,1.67673 4.447789,2.21433 -0.198263,1.06778 -7.805237,0.57829 -17.001545,-0.87333 -9.210736,-1.45389 -16.591272,-3.39621 -16.433104,-4.48707 0.02809,-0.19373 0.296383,-0.34704 0.763775,-0.46095 z" />
    <path
       style="fill:#f9f3d1;fill-opacity:1;stroke:none;stroke-width:0.264583px;stroke-linecap:butt;stroke-linejoin:miter;stroke-opacity:1"
       d="m 32.148507,130.39235 c -0.01073,0.5466 1.807064,1.11071 4.812598,1.33492 3.193836,0.23824 6.922903,0.0638 11.552286,-0.381 2e-6,0 0.0094,-9e-4 0.0094,-9e-4 2.554215,-0.23932 10.250054,-1.08542 11.235703,-1.19721 2.853493,-0.32364 4.69443,-0.5876 4.752242,-1.14406 0.05589,-0.53794 -1.707941,-1.27182 -4.715859,-1.67475 -3.160847,-0.42342 -7.003368,-0.40947 -11.650756,0.0403 0,0 -0.0095,9e-4 -0.0095,9e-4 -4.055506,0.38311 -8.864314,1.1165 -11.304545,1.53833 -2.85549,0.49362 -4.670675,0.9287 -4.681569,1.48347 z"
       id="path3065" />
    <path
       style="fill:#f9f3d1;fill-opacity:1;stroke:none;stroke-width:0.264583px;stroke-linecap:butt;stroke-linejoin:miter;stroke-opacity:1"
       d="m 31.018496,141.21745 c 0.09656,0.53747 1.939538,0.7531 4.84864,0.30434 3.179224,-0.49042 6.46801,-1.53434 10.77094,-3.03326 0,0 8.09e-4,-2.8e-4 8.09e-4,-2.8e-4 4.855303,-1.65574 6.799554,-2.32345 10.258348,-3.2547 2.618323,-0.70496 4.368647,-1.07753 4.384416,-1.64274 0.01483,-0.53148 -1.751858,-1.16649 -4.747953,-1.14599 -3.154892,0.0216 -6.870354,0.74661 -11.201991,2.2697 0,0 -8.32e-4,2.9e-4 -8.32e-4,2.9e-4 -3.519076,1.2123 -8.297161,3.25811 -10.235954,4.09603 -2.542857,1.09898 -4.174501,1.86069 -4.076423,2.40661 z"
       id="path3069" />
    <path
       style="fill:#f9f3d1;fill-opacity:1;stroke:none;stroke-width:0.264583px;stroke-linecap:butt;stroke-linejoin:miter;stroke-opacity:1"
       d="m 31.982891,150.73452 c 0.07425,0.5276 1.759419,0.8728 4.462752,0.46068 2.810706,-0.42848 6.146321,-1.5825 9.802289,-3.60852 2.4e-5,-1e-5 0.0472,-0.0262 0.04722,-0.0262 3.221132,-1.77022 6.659321,-4.12983 8.452558,-5.42105 2.051079,-1.47689 3.313931,-2.5334 3.097816,-3.03953 -0.215401,-0.50446 -1.896789,-0.35309 -4.401168,0.54335 -2.733294,0.97838 -5.482066,2.44079 -9.073841,4.4179 3.64e-4,-1.9e-4 -0.0455,0.0248 -0.04513,0.0246 -3.939599,2.14269 -5.839221,3.10325 -8.672478,4.40914 -2.242067,1.0334 -3.748688,1.68065 -3.670018,2.23969 z"
       id="path3077" />
    <path
       style="fill:#f9f3d1;fill-opacity:1;stroke:none;stroke-width:0.264583px;stroke-linecap:butt;stroke-linejoin:miter;stroke-opacity:1"
       d="m 38.227388,160.34126 c 0.51506,0.94896 5.224902,-0.43776 10.099246,-4.07935 4.883878,-3.64871 7.522975,-7.80508 6.724535,-8.57129 -0.77746,-0.74608 -4.627571,2.02349 -9.113955,5.37106 -4.502913,3.3599 -8.238077,6.30631 -7.709826,7.27958 z"
       id="path3081" />
    <path
       style="fill:#f9f3d1;fill-opacity:1;stroke:none;stroke-width:0.264583px;stroke-linecap:butt;stroke-linejoin:miter;stroke-opacity:1"
       d="m 47.448749,168.33391 c 0.36724,0.40481 1.483751,0.0986 2.915324,-0.92365 1.464138,-1.04547 3.061479,-2.69416 4.568478,-4.85056 2.952239,-4.22443 4.3346,-8.10264 3.430078,-8.73258 -0.904522,-0.62994 -3.925734,2.41294 -6.714061,6.45093 -1.273653,1.84448 -2.65825,4.01986 -3.350529,5.23063 -0.792254,1.38562 -1.222928,2.41336 -0.84929,2.82523 z"
       id="path3085" />
    <path
       style="fill:#f9f3d1;fill-opacity:1;stroke:none;stroke-width:0.264583px;stroke-linecap:butt;stroke-linejoin:miter;stroke-opacity:1"
       d="m 60.151967,173.33406 c 1.084245,0.38852 2.98728,-2.45117 3.717691,-6.52858 0.713517,-3.9831 0.144402,-7.25856 -0.948279,-7.40359 -1.092681,-0.14503 -2.327031,2.94991 -2.985525,6.70622 -0.641082,3.65698 -0.75737,6.87713 0.216113,7.22595 z"
       id="path3089" />
    <path
       style="fill:#f9f3d1;fill-opacity:1;stroke:none;stroke-width:0.264583px;stroke-linecap:butt;stroke-linejoin:miter;stroke-opacity:1"
       d="m 72.412388,178.73592 c 1.075243,0.24256 2.990715,-3.68121 4.25098,-8.93654 1.277871,-5.32875 1.009924,-9.8313 -0.169329,-9.96101 -1.001332,-0.11014 -2.495907,3.97703 -3.715421,9.02611 -1.239853,5.13328 -1.441474,9.62887 -0.36623,9.87144 z"
       id="path3093" />
    <path
       style="fill:#f9f3d1;fill-opacity:1;stroke:none;stroke-width:0.264583px;stroke-linecap:butt;stroke-linejoin:miter;stroke-opacity:1"
       d="m 85.586589,177.03205 c 1.098745,-0.19408 0.95625,-5.50549 0.724597,-11.81855 -0.230569,-6.28349 -0.406693,-11.57324 -1.466737,-11.71299 -1.104972,-0.14568 -2.768557,5.07377 -2.524664,11.85793 0.243318,6.76815 2.211027,11.8601 3.266804,11.67361 z"
       id="path3097" />
    <path
       id="path3101"
       style="fill:#f9f3d1;fill-opacity:1;stroke:none;stroke-width:0.999999px;stroke-linecap:butt;stroke-linejoin:miter;stroke-opacity:1"
       d="m 296.3125,547.70508 c -2.78902,1.57583 -6.40482,3.35929 -9.91211,4.93359 -0.78633,9.22362 0.71306,20.72849 5.57617,33.23438 2e-5,3e-5 0.0527,0.13281 0.0527,0.13281 4.42119,11.58066 10.89036,23.08896 14.71679,29.40039 4.25155,7.01265 7.49793,11.36002 9.47461,10.75586 1.99548,-0.60987 2.31692,-6.18418 0.41992,-14.69141 -2.12449,-9.52751 -5.76019,-18.38703 -10.50781,-30.84375 6e-5,1.5e-4 -0.045,-0.12304 -0.0449,-0.12304 -4.67419,-12.59158 -7.01114,-20.55108 -9.01953,-29.38868 -0.28162,-1.23924 -0.51329,-2.30474 -0.75586,-3.41015 z"
       transform="matrix(0.26458333,0,0,0.26458333,12.837709,8.5015491)" />
    <path
       id="path3109"
       style="fill:#f9f3d1;fill-opacity:1;stroke:none;stroke-width:0.999999px;stroke-linecap:butt;stroke-linejoin:miter;stroke-opacity:1"
       d="m 317.21875,512.57422 c -2.29533,1.54995 -4.04687,2.72851 -4.04687,2.72851 0,0 0.23324,3.67003 -1.25391,8.06446 5.30317,7.50842 11.87978,16.9406 18.08594,28.03711 14.1784,25.35069 21.69071,48.66984 25.76757,47.8125 3.70122,-0.77836 3.52932,-26.63266 -12.5664,-55.22071 -7.9437,-14.10905 -17.40062,-24.53417 -25.67188,-31.18164 -0.10836,-0.0871 -0.20679,-0.15465 -0.31445,-0.24023 z"
       transform="matrix(0.26458333,0,0,0.26458333,12.837709,8.5015491)" />
    <path
       id="path3117"
       style="fill:#f9f3d1;fill-opacity:1;stroke:none;stroke-width:0.999999px;stroke-linecap:butt;stroke-linejoin:miter;stroke-opacity:1"
       d="m 334.92383,500.87695 c -1.58938,0.91643 -3.4156,2.00626 -5.59766,3.49024 -2.07525,1.41134 -3.36593,2.28258 -5.14453,3.48828 7.39985,5.66369 17.47213,13.10063 27.46094,22.14453 l 0.0293,0.0254 c 10.37151,9.36646 17.45589,18.16477 23.15624,25.77149 5.39872,7.20423 8.77219,12.19422 10.81446,11.49414 1.86361,-0.63882 2.10665,-7.00061 -1.42188,-16.51954 -3.57471,-9.64338 -10.72937,-21.43959 -22.44726,-31.96289 l -0.0352,-0.0312 c -9.22573,-8.25461 -18.68043,-14.0868 -26.81445,-17.90039 z"
       transform="matrix(0.26458333,0,0,0.26458333,12.837709,8.5015491)" />
    <path
       id="path3121"
       style="fill:#f9f3d1;fill-opacity:1;stroke:none;stroke-width:0.999999px;stroke-linecap:butt;stroke-linejoin:miter;stroke-opacity:1"
       d="m 346.05664,490.68945 c -2.92372,5.30004 -5.27118,6.83274 -9.17773,9.06641 7.95812,5.6827 18.02321,12.20267 29.19336,18.83594 27.80711,16.51294 51.93334,27.50767 54.12304,23.96289 0.96563,-1.56325 -2.51377,-5.70793 -9.10156,-11.27344 -9.6641,-5.869 -25.14457,-14.90331 -33.14258,-19.13086 -9.00582,-4.7602 -29.8239,-20.1473 -31.08203,-21.07812 -0.27899,-0.1344 -0.53638,-0.251 -0.8125,-0.38282 z"
       transform="matrix(0.26458333,0,0,0.26458333,12.837709,8.5015491)" />
  </g>
  <g
     id="layer8"
     transform="translate(-13.819431,-9.4937254)"
     style="display:inline">
    <path
       style="fill:#3d2828;fill-opacity:1;stroke:none;stroke-width:0.264583px;stroke-linecap:butt;stroke-linejoin:miter;stroke-opacity:1"
       d="m 123.98382,100.1728 c -0.0757,0.265 0.60845,1.13165 0.93887,1.47199 0.3416,0.35185 0.93619,0.7612 1.12548,0.9883 0.18929,0.22715 1.38335,0.76695 1.6105,0.88052 0.22714,0.11357 3.48288,1.28715 3.78574,0.90858 0.30286,-0.37858 -0.0598,-1.03632 -0.35186,-1.58646 0,0 -0.18838,-0.35377 -0.93142,-1.43079 -1.58543,-2.298052 -0.0369,0.0369 -1.62213,-2.26093 -0.32747,-0.474671 -1.39141,0.754213 -1.52391,0.92457 -0.265,0.34072 -0.40536,0.83292 -0.60572,1.02216 -0.265,0.25029 -0.54648,0.44895 -0.88719,0.33537 -0.34072,-0.11357 -1.65193,-1.669742 -1.53836,-1.25331 z"
       id="path57778" />
  </g>
  <g
     id="layer9"
     transform="translate(-13.819431,-9.4937254)">
    <path
       style="fill:#462b35;fill-opacity:1;stroke:none;stroke-width:0.167876px;stroke-linecap:butt;stroke-linejoin:miter;stroke-opacity:1"
       d="m 120.02322,98.722452 c -0.542,0.363977 -1.0891,0.483796 -1.49745,0.387709 -0.40834,-0.09607 -0.96024,-0.29926 -1.00827,-0.539462 -0.048,-0.240201 -0.0644,-0.905136 0.0797,-1.169359 0.14412,-0.264222 0.50442,-0.600503 0.88875,-0.576484 0.38431,0.02402 0.8498,0.409011 1.12894,0.768646 0.24537,0.316124 0.43518,0.633091 0.40835,1.12895 z"
       id="path57776" />
    <circle
       style="fill:#f9f9f9;fill-opacity:1;stroke:none;stroke-width:6.12682;stroke-linecap:round;stroke-linejoin:round;stroke-miterlimit:4;stroke-dasharray:none;paint-order:stroke markers fill;stop-color:#000000"
       id="path75383"
       cx="-118.32123"
       cy="97.193489"
       r="0.4553577"
       transform="scale(-1,1)" />
  </g>
  <g
     id="layer7"
     style="display:inline"
     transform="translate(-13.819431,-9.4937254)" />
</svg>
