<svg width="1440" height="221" viewBox="0 0 1440 221" fill="none" xmlns="http://www.w3.org/2000/svg">
<g id="GET IN TOUCH">
<path d="M58.928 112.992C58.5333 113.189 58.336 113.288 58.336 113.288C58.1387 113.288 58.04 113.387 58.04 113.584V113.88C58.4347 117.432 58.632 120.392 58.632 122.76C58.632 125.128 58.5333 127.496 58.336 129.864C58.336 132.035 58.336 134.304 58.336 136.672C58.5333 139.04 58.8293 141.803 59.224 144.96C60.2107 145.355 61.592 145.651 63.368 145.848C65.3413 145.848 67.4133 145.848 69.584 145.848C71.952 145.651 74.1227 145.552 76.096 145.552C78.2667 145.355 79.944 145.355 81.128 145.552C81.72 145.749 82.016 146.637 82.016 148.216C82.2133 149.795 82.2133 151.571 82.016 153.544C82.016 155.517 81.8187 157.491 81.424 159.464C81.2267 161.24 81.0293 162.523 80.832 163.312C80.0427 166.075 78.8587 168.344 77.28 170.12C75.7013 171.699 73.8267 172.981 71.656 173.968C68.8933 174.955 65.8347 175.744 62.48 176.336C59.3227 176.928 56.264 177.027 53.304 176.632C50.5413 176.04 48.272 175.152 46.496 173.968C42.7467 171.008 40.28 166.963 39.096 161.832C37.912 156.701 37.1227 151.965 36.728 147.624C36.136 140.323 35.7413 132.627 35.544 124.536C35.3467 116.445 35.4453 108.651 35.84 101.152C36.2347 93.4561 36.8267 86.2534 37.616 79.5441C38.6027 72.8347 39.7867 67.112 41.168 62.376C41.5627 60.7974 42.056 59.2187 42.648 57.6401C43.4373 55.8641 44.0293 54.7787 44.424 54.3841C46.792 52.0161 49.5547 50.8321 52.712 50.8321C55.8693 50.8321 59.1253 50.9307 62.48 51.128C65.44 51.128 68.0053 52.1147 70.176 54.088C72.3467 55.864 74.2213 58.0347 75.8 60.6C77.576 62.9681 78.9573 65.6321 79.944 68.592C81.128 71.3547 82.016 73.7227 82.608 75.6961C85.568 76.0907 88.1333 76.3867 90.304 76.5841C92.4747 76.7814 94.5467 76.8801 96.52 76.8801C98.6907 76.8801 100.763 76.8801 102.736 76.8801C104.907 76.6827 107.472 76.5841 110.432 76.5841C113.589 76.3867 115.859 76.288 117.24 76.288C118.621 76.288 119.509 75.9921 119.904 75.4001L120.2 73.624C121.581 61.5867 120.496 51.2267 116.944 42.5441C113.392 33.664 108.064 26.56 100.96 21.232C93.856 15.904 85.3707 12.2534 75.504 10.28C65.6373 8.10938 55.2773 7.71471 44.424 9.09604C39.096 9.88538 33.9653 11.0694 29.032 12.648C24.0987 14.2267 19.6587 16.6934 15.712 20.048C9.98934 23.9947 5.84534 29.0267 3.28001 35.1441C0.912005 41.2614 -0.765329 47.576 -1.752 54.088C-2.73866 60.4027 -3.42933 66.9147 -3.824 73.624C-4.21866 80.1361 -4.51466 86.5494 -4.712 92.8641C-4.90933 100.165 -5.008 106.677 -5.008 112.4C-4.81066 117.925 -4.61333 123.253 -4.416 128.384C-4.02133 133.317 -3.62666 138.349 -3.232 143.48C-2.83733 148.611 -2.344 154.333 -1.752 160.648C-1.35733 164.595 -0.863995 168.541 -0.271996 172.488C0.517338 176.237 1.208 179.197 1.8 181.368C4.168 189.853 7.424 196.957 11.568 202.68C15.712 208.403 21.7307 212.941 29.624 216.296C34.36 218.269 39.2933 219.552 44.424 220.144C49.752 220.736 55.1787 220.736 60.704 220.144C66.2293 219.749 71.656 218.96 76.984 217.776C82.312 216.789 87.4427 215.605 92.376 214.224C99.8747 211.461 106.189 207.416 111.32 202.088C116.451 196.76 119.509 189.064 120.496 179C122.469 168.344 123.259 157.195 122.864 145.552C122.469 133.712 121.68 122.563 120.496 112.104L120.2 111.808H119.608C117.635 111.808 113.787 111.611 108.064 111.216C102.539 110.624 96.52 110.229 90.008 110.032C83.496 109.835 77.28 109.933 71.36 110.328C65.6373 110.525 61.4933 111.413 58.928 112.992Z" fill="#2C253A"/>
<path d="M266.556 175.744C253.137 176.139 240.113 176.04 227.484 175.448C214.854 174.659 202.028 174.264 189.004 174.264L188.708 173.968C188.313 169.232 187.918 163.312 187.524 156.208C187.326 149.104 187.721 142.691 188.708 136.968C189.694 136.179 191.569 135.685 194.332 135.488C197.094 135.291 200.153 135.192 203.508 135.192C207.06 135.192 210.71 135.192 214.46 135.192C218.209 134.995 221.564 134.501 224.524 133.712C224.326 126.411 224.425 119.405 224.82 112.696C225.214 105.987 224.918 99.2774 223.932 92.5681V92.2721C217.814 92.0747 211.697 91.9761 205.58 91.9761C199.462 91.9761 193.444 91.7787 187.524 91.384L187.228 91.0881C185.846 85.76 185.452 80.136 186.044 74.216C186.833 68.0987 187.129 62.1787 186.932 56.4561L187.228 56.1601H188.116C194.628 55.568 201.14 55.272 207.652 55.272C214.164 55.272 220.676 55.3707 227.188 55.568C233.7 55.568 240.113 55.4694 246.428 55.272C252.94 54.8774 259.353 53.9894 265.668 52.608V52.312C265.668 45.4054 265.865 38.4001 266.26 31.2961C266.852 24.1921 266.654 17.1867 265.668 10.28C265.668 10.0827 263.694 9.88538 259.748 9.68805C255.801 9.49072 250.572 9.39206 244.06 9.39206C237.548 9.39206 230.049 9.49072 221.564 9.68805C213.078 9.88538 204.297 10.0827 195.22 10.28C186.142 10.4774 177.065 10.7734 167.988 11.1681C159.108 11.3654 150.82 11.6614 143.124 12.0561C142.137 29.0267 141.545 45.8987 141.348 62.6721C141.15 79.4454 141.15 96.2187 141.348 112.992C141.545 129.765 141.841 146.637 142.236 163.608C142.63 180.381 142.828 197.352 142.828 214.52C161.969 216.099 181.9 216.592 202.62 216C223.537 215.211 244.06 214.915 264.188 215.112C265.767 209.192 266.654 202.877 266.852 196.168C267.049 189.261 266.95 182.651 266.556 176.336V175.744Z" fill="#2C253A"/>
<path d="M399.888 10.28C379.562 8.10938 358.645 7.12272 337.136 7.32005C315.824 7.32005 295.104 7.41871 274.976 7.61604C274.976 7.81339 274.976 7.91206 274.976 7.91206C275.173 7.91206 275.272 8.01072 275.272 8.20805C274.877 12.9441 274.68 17.8774 274.68 23.0081C274.68 28.1387 274.68 32.9734 274.68 37.512C274.877 41.8534 275.074 45.6027 275.272 48.7601C275.666 51.9174 276.061 53.8907 276.456 54.6801C277.64 55.0747 279.712 55.272 282.672 55.272C285.632 55.272 288.888 55.3707 292.44 55.568C295.992 55.568 299.544 55.7654 303.096 56.1601C306.648 56.3574 309.608 57.048 311.976 58.232L312.272 58.5281C313.456 86.1547 314.146 109.736 314.344 129.272C314.738 148.808 314.837 164.891 314.64 177.52C314.64 189.952 314.541 199.325 314.344 205.64C314.146 211.955 314.146 215.507 314.344 216.296C317.896 215.704 321.744 215.408 325.888 215.408C330.032 215.408 334.176 215.408 338.32 215.408C342.661 215.408 346.904 215.408 351.048 215.408C355.389 215.211 359.336 214.816 362.888 214.224V213.632C362.493 192.123 362.197 173.475 362 157.688C361.802 141.704 361.605 128.088 361.408 116.84C361.21 105.395 361.013 96.1201 360.816 89.0161C360.816 81.7147 360.816 75.8934 360.816 71.552C360.816 67.0134 360.816 63.7574 360.816 61.784C361.013 59.6134 361.21 58.0347 361.408 57.0481C361.408 56.8507 361.408 56.752 361.408 56.752C361.605 56.5547 361.704 56.3574 361.704 56.1601H362.592C371.866 55.7654 379.266 55.4694 384.792 55.272C390.317 55.0747 394.954 55.3707 398.704 56.1601C399.69 49.0561 400.184 41.2614 400.184 32.7761C400.381 24.2907 400.282 16.792 399.888 10.28Z" fill="#2C253A"/>
<path d="M515.913 7.91206C507.033 8.10939 500.225 8.10939 495.489 7.91206C490.95 7.51738 486.905 7.22138 483.353 7.02405C481.971 7.02405 479.801 6.92539 476.841 6.72806C474.078 6.33338 472.203 6.23472 471.217 6.43206V7.02405C469.441 23.6 468.553 40.5707 468.553 57.936C468.75 75.104 469.046 92.5681 469.441 110.328C470.033 127.891 470.427 145.651 470.625 163.608C470.822 181.565 470.23 199.424 468.849 217.184C470.822 216.592 474.473 216.395 479.801 216.592C485.129 216.987 490.654 217.283 496.377 217.48C502.297 217.677 507.723 217.579 512.657 217.184C517.787 216.987 521.142 216.099 522.721 214.52C521.734 197.747 521.142 180.776 520.945 163.608C520.747 146.44 520.747 129.272 520.945 112.104C521.339 94.7387 521.734 77.4721 522.129 60.3041C522.721 43.1361 523.017 26.0667 523.017 9.09604V7.91206H515.913Z" fill="#2C253A"/>
<path d="M659.699 217.48C663.054 217.48 665.422 217.283 666.803 216.888C668.185 216.493 669.073 216.197 669.467 216V210.08C669.467 206.133 669.369 202.187 669.171 198.24C669.171 194.293 669.171 190.347 669.171 186.4C669.171 180.875 669.171 175.448 669.171 170.12C669.369 164.792 669.467 159.267 669.467 153.544C669.467 145.059 669.467 136.573 669.467 128.088C669.467 119.603 669.369 111.216 669.171 102.928V7.61604C663.449 6.43205 656.937 5.84005 649.635 5.84005C642.137 5.84005 635.033 6.43205 628.323 7.61604C628.126 12.5494 627.929 17.1867 627.731 21.5281C627.731 25.6721 627.731 29.8161 627.731 33.9601C627.731 41.064 627.83 48.0694 628.027 54.9761C628.422 61.6854 628.619 68.9867 628.619 76.8801C628.619 80.2347 628.422 83.6881 628.027 87.2401C627.633 90.7921 627.139 92.7654 626.547 93.1601C626.35 93.1601 625.659 92.0747 624.475 89.9041C623.291 87.5361 621.811 84.7734 620.035 81.6161C618.457 78.2614 616.681 74.6107 614.707 70.6641C612.734 66.5201 610.859 62.6721 609.083 59.1201C607.307 55.3707 605.729 52.1147 604.347 49.3521C602.966 46.5894 602.078 44.7147 601.683 43.7281C599.907 39.584 598.329 36.2294 596.947 33.664C595.763 30.9014 594.579 28.4347 593.395 26.264C592.409 24.0934 591.323 21.8241 590.139 19.456C588.955 17.088 587.673 14.128 586.291 10.5761C586.291 10.1814 585.206 9.78672 583.035 9.39206C581.062 8.99738 578.694 8.70138 575.931 8.50405C573.169 8.10939 570.406 7.91206 567.643 7.91206C564.881 7.71471 562.907 7.61604 561.723 7.61604C559.355 7.61604 556.987 7.71471 554.619 7.91206C552.449 8.10939 550.377 8.40538 548.403 8.80005C547.417 21.4294 546.726 34.4534 546.331 47.8721C545.937 61.0934 545.739 74.5121 545.739 88.1281C545.739 106.677 545.838 124.437 546.035 141.408C546.43 158.379 546.627 176.237 546.627 194.984V215.704C551.166 215.704 555.803 216 560.539 216.592C565.473 217.184 570.307 217.48 575.043 217.48C577.214 217.48 579.385 217.381 581.555 217.184C583.726 216.987 585.897 216.592 588.067 216C587.87 212.645 587.771 208.896 587.771 204.752C587.771 200.411 587.771 195.971 587.771 191.432C587.771 183.144 587.771 174.56 587.771 165.68C587.969 156.8 588.166 148.709 588.363 141.408C588.561 134.107 588.758 128.088 588.955 123.352C589.35 118.616 589.646 116.248 589.843 116.248C590.238 116.248 590.731 117.235 591.323 119.208C592.113 120.984 592.902 122.957 593.691 125.128L596.651 134.008C601.19 146.637 606.617 159.859 612.931 173.672C619.443 187.288 625.955 201.397 632.467 216C636.414 216 640.953 216.197 646.083 216.592C651.214 217.184 655.753 217.48 659.699 217.48Z" fill="#2C253A"/>
<path d="M863.255 10.28C842.929 8.10938 822.012 7.12272 800.503 7.32005C779.191 7.32005 758.471 7.41871 738.343 7.61604C738.343 7.81339 738.343 7.91206 738.343 7.91206C738.54 7.91206 738.639 8.01072 738.639 8.20805C738.244 12.9441 738.047 17.8774 738.047 23.0081C738.047 28.1387 738.047 32.9734 738.047 37.512C738.244 41.8534 738.441 45.6027 738.639 48.7601C739.033 51.9174 739.428 53.8907 739.823 54.6801C741.007 55.0747 743.079 55.272 746.039 55.272C748.999 55.272 752.255 55.3707 755.807 55.568C759.359 55.568 762.911 55.7654 766.463 56.1601C770.015 56.3574 772.975 57.048 775.343 58.232L775.639 58.5281C776.823 86.1547 777.513 109.736 777.711 129.272C778.105 148.808 778.204 164.891 778.007 177.52C778.007 189.952 777.908 199.325 777.711 205.64C777.513 211.955 777.513 215.507 777.711 216.296C781.263 215.704 785.111 215.408 789.255 215.408C793.399 215.408 797.543 215.408 801.687 215.408C806.028 215.408 810.271 215.408 814.415 215.408C818.756 215.211 822.703 214.816 826.255 214.224V213.632C825.86 192.123 825.564 173.475 825.367 157.688C825.169 141.704 824.972 128.088 824.775 116.84C824.578 105.395 824.38 96.1201 824.183 89.0161C824.183 81.7147 824.183 75.8934 824.183 71.552C824.183 67.0134 824.183 63.7574 824.183 61.784C824.38 59.6134 824.578 58.0347 824.775 57.0481C824.775 56.8507 824.775 56.752 824.775 56.752C824.972 56.5547 825.071 56.3574 825.071 56.1601H825.959C835.233 55.7654 842.633 55.4694 848.159 55.272C853.684 55.0747 858.321 55.3707 862.071 56.1601C863.057 49.0561 863.551 41.2614 863.551 32.7761C863.748 24.2907 863.649 16.792 863.255 10.28Z" fill="#2C253A"/>
<path d="M995.969 40.7681C993.601 33.8614 989.556 27.8427 983.833 22.712C978.111 18.3707 971.599 15.1147 964.297 12.944C957.193 10.5761 949.793 9.19472 942.097 8.80005C934.599 8.40538 927.001 8.99739 919.305 10.5761C911.807 11.9574 904.801 14.2267 898.289 17.3841C895.724 18.9627 893.455 20.7387 891.481 22.712C885.364 29.6187 881.22 37.6107 879.049 46.6881C877.076 55.5681 875.991 64.4481 875.793 73.3281C874.807 88.9174 874.609 104.507 875.201 120.096C875.991 135.488 876.681 150.88 877.273 166.272C877.471 171.995 877.964 177.717 878.753 183.44C879.74 188.965 881.615 194.195 884.377 199.128C886.153 203.075 888.423 206.331 891.185 208.896C893.948 211.264 897.007 213.237 900.361 214.816C903.913 216.395 907.564 217.48 911.313 218.072C915.26 218.861 919.305 219.453 923.449 219.848C929.172 220.243 934.796 220.243 940.321 219.848C946.044 219.453 951.668 218.467 957.193 216.888C963.311 215.309 969.033 213.139 974.361 210.376C979.887 207.416 984.327 203.568 987.681 198.832C991.233 193.109 993.897 186.795 995.673 179.888C997.449 172.784 998.535 165.779 998.929 158.872L999.817 149.104C1000.61 138.843 1000.9 128.779 1000.71 118.912C1000.51 109.045 1000.71 98.8827 1001.3 88.424C1001.49 83.4907 1001.49 78.656 1001.3 73.9201C1001.3 68.9867 1001.1 64.0534 1000.71 59.1201C1000.31 55.9627 999.719 52.9041 998.929 49.944C998.337 46.7867 997.351 43.7281 995.969 40.7681ZM964.297 127.2C964.297 127.595 964.199 129.272 964.001 132.232C964.001 135.192 963.903 138.645 963.705 142.592C963.311 146.736 963.113 150.091 963.113 152.656C963.311 155.024 963.311 157.096 963.113 158.872C962.916 160.648 962.423 162.325 961.633 163.904C960.844 165.285 959.561 167.16 957.785 169.528C954.825 172.883 951.175 175.349 946.833 176.928C942.492 178.309 938.151 178.901 933.809 178.704C929.468 178.309 925.423 177.027 921.673 174.856C917.924 172.685 915.063 169.627 913.089 165.68C911.116 159.168 909.932 152.36 909.537 145.256C909.143 137.955 908.452 130.851 907.465 123.944C907.071 115.656 906.972 107.368 907.169 99.0801C907.564 90.7921 908.551 82.8987 910.129 75.4001C912.497 67.1121 917.135 60.3041 924.041 54.9761C927.199 52.608 930.849 50.9307 934.993 49.944C939.137 48.9574 943.183 49.2534 947.129 50.8321C951.668 53.0027 955.22 56.3574 957.785 60.896C960.548 65.4347 962.127 70.4667 962.521 75.9921C962.719 79.3467 962.916 82.9974 963.113 86.9441C963.508 90.6934 963.705 92.6667 963.705 92.8641L964.297 112.992V127.2Z" fill="#2C253A"/>
<path d="M1148.53 17.9761C1146.16 16.5947 1143.1 15.7067 1139.35 15.312C1135.6 14.9174 1131.66 14.8187 1127.51 15.0161C1123.37 15.2134 1119.22 15.6081 1115.08 16.2001C1111.13 16.5947 1107.88 16.8907 1105.31 17.088C1104.72 39.9787 1104.32 63.6587 1104.13 88.1281C1104.13 112.597 1103.63 136.672 1102.65 160.352C1101.66 164.891 1099.49 168.443 1096.14 171.008C1092.78 173.573 1089.13 174.955 1085.18 175.152C1081.24 175.349 1077.39 174.363 1073.64 172.192C1070.09 170.021 1067.62 166.568 1066.24 161.832C1062.29 112.696 1061.4 64.2507 1063.58 16.4961V16.2001C1060.62 15.4107 1057.36 14.9174 1053.81 14.7201C1050.26 14.3254 1046.6 14.128 1042.86 14.128C1039.11 14.128 1035.36 14.2267 1031.61 14.424C1028.06 14.6214 1024.8 14.7201 1021.84 14.7201H1021.54L1021.84 15.0161C1022.23 41.064 1022.14 67.3094 1021.54 93.7521C1020.95 120.195 1020.66 146.44 1020.66 172.488C1021.05 181.565 1023.62 189.36 1028.35 195.872C1033.28 202.187 1039.3 207.317 1046.41 211.264C1053.71 215.013 1061.8 217.579 1070.68 218.96C1079.56 220.539 1088.14 220.933 1096.43 220.144C1110.64 218.763 1121.89 213.533 1130.18 204.456C1138.46 195.379 1143.4 184.328 1144.98 171.304C1147.74 145.848 1149.32 120.293 1149.71 94.6401C1150.11 68.7894 1149.71 43.2347 1148.53 17.9761Z" fill="#2C253A"/>
<path d="M1216.28 55.568C1217.86 53.9894 1220.03 52.9041 1222.79 52.312C1225.75 51.72 1228.51 51.2267 1231.08 50.8321C1236.8 50.6347 1240.94 51.8187 1243.51 54.3841C1246.27 56.9494 1248.15 60.304 1249.13 64.4481C1250.12 68.3947 1250.61 72.7361 1250.61 77.4721C1250.81 82.2081 1251.2 86.4507 1251.8 90.2001C1259.3 91.5814 1266.5 92.5681 1273.4 93.1601C1280.51 93.5547 1287.71 92.9627 1295.01 91.384C1298.17 82.3067 1299.35 73.4267 1298.56 64.744C1297.78 56.0614 1295.51 48.0694 1291.76 40.7681C1288.01 33.2694 1282.98 26.6587 1276.66 20.936C1270.35 15.2134 1263.24 10.6747 1255.35 7.32005C1247.65 3.76805 1239.36 1.69605 1230.48 1.10406C1221.6 0.512053 1212.63 1.69605 1203.55 4.65605C1200.79 5.44538 1198.12 6.43205 1195.56 7.61604C1192.99 8.60271 1190.62 9.88538 1188.45 11.464C1184.7 14.8187 1181.45 18.6667 1178.68 23.0081C1176.12 27.3494 1173.95 32.0854 1172.17 37.216C1170.99 40.176 1170 43.432 1169.21 46.984C1168.62 50.3387 1168.52 53.6934 1168.92 57.0481C1168.72 73.0321 1168.52 87.1414 1168.32 99.3761C1168.32 111.413 1168.32 122.267 1168.32 131.936C1168.52 141.408 1168.72 149.992 1168.92 157.688C1169.11 165.384 1169.41 172.784 1169.8 179.888C1170.59 188.176 1173.16 195.083 1177.5 200.608C1182.04 206.133 1187.56 210.475 1194.08 213.632C1200.59 216.592 1207.59 218.467 1215.09 219.256C1222.59 220.243 1229.89 220.243 1237 219.256C1247.85 219.059 1257.52 216.395 1266 211.264C1274.69 205.936 1281.69 199.227 1287.02 191.136C1292.35 183.045 1295.8 173.968 1297.38 163.904C1298.96 153.643 1298.07 143.381 1294.72 133.12C1291.95 132.331 1288.8 131.837 1285.24 131.64C1281.89 131.443 1278.44 131.344 1274.88 131.344C1271.33 131.344 1267.78 131.443 1264.23 131.64C1260.87 131.837 1257.82 131.739 1255.05 131.344C1254.07 136.277 1253.67 141.309 1253.87 146.44C1254.26 151.373 1253.38 156.109 1251.2 160.648C1249.23 164.595 1246.27 167.456 1242.32 169.232C1238.58 170.811 1234.53 171.403 1230.19 171.008C1224.47 169.429 1220.32 165.976 1217.76 160.648C1215.39 155.123 1213.91 149.499 1213.32 143.776C1212.72 136.869 1212.43 128.779 1212.43 119.504C1212.43 110.032 1212.53 100.955 1212.72 92.2721C1212.92 83.5894 1213.12 76.0907 1213.32 69.7761C1213.71 63.4614 1214.11 60.0081 1214.5 59.416C1214.7 59.0214 1214.9 58.4294 1215.09 57.6401C1215.49 56.6534 1215.88 55.9627 1216.28 55.568Z" fill="#2C253A"/>
<path d="M1434.51 7.02405C1431.55 6.82672 1428.2 6.72806 1424.45 6.72806C1420.9 6.53072 1417.24 6.62939 1413.5 7.02405C1409.75 7.22138 1406.1 7.61605 1402.54 8.20805C1399.19 8.80005 1396.33 9.49071 1393.96 10.28C1394.55 24.488 1394.75 37.5121 1394.55 49.3521C1394.55 61.1921 1393.96 73.9201 1392.78 87.5361H1392.48C1387.55 87.9307 1382.22 88.4241 1376.5 89.0161C1370.77 89.4107 1365.44 89.0161 1360.51 87.8321H1360.22C1357.85 75.2027 1356.66 62.4747 1356.66 49.648C1356.66 36.8214 1355.78 23.6 1354 9.98405C1351.24 9.19471 1348.28 8.80005 1345.12 8.80005C1341.96 8.80005 1338.71 8.89871 1335.35 9.09604C1332.19 9.29338 1328.94 9.49072 1325.58 9.68805C1322.43 9.88538 1319.37 9.68805 1316.41 9.09604H1315.52V9.39206C1315.32 19.4561 1315.13 30.8027 1314.93 43.4321C1314.93 55.8641 1315.03 68.8881 1315.22 82.5041C1315.42 95.9227 1315.62 109.341 1315.82 122.76C1316.21 136.179 1316.61 148.907 1317 160.944C1317.39 172.784 1317.79 183.539 1318.18 193.208C1318.78 202.68 1319.27 210.179 1319.66 215.704C1321.44 214.717 1324.01 214.323 1327.36 214.52C1330.91 214.717 1334.66 215.013 1338.61 215.408C1342.55 215.803 1346.5 216 1350.45 216C1354.39 216 1357.55 215.309 1359.92 213.928C1360.91 207.613 1361.4 201.299 1361.4 194.984C1361.6 188.472 1361.6 181.861 1361.4 175.152C1361.2 168.443 1361.01 161.733 1360.81 155.024C1360.81 148.315 1361.1 141.507 1361.7 134.6C1367.42 133.219 1373.14 132.528 1378.86 132.528C1384.59 132.528 1390.31 133.021 1396.03 134.008L1396.33 134.304C1397.12 140.619 1397.61 147.229 1397.81 154.136C1398.01 161.043 1398.1 167.949 1398.1 174.856C1398.3 181.763 1398.5 188.768 1398.7 195.872C1399.09 202.779 1399.78 209.488 1400.77 216H1401.06C1403.43 215.803 1406.29 215.704 1409.65 215.704C1413.2 215.704 1416.75 215.704 1420.3 215.704C1424.05 215.704 1427.8 215.605 1431.55 215.408C1435.5 215.211 1439.15 214.816 1442.5 214.224L1434.51 7.02405Z" fill="#2C253A"/>
</g>
</svg>
