<svg width="1298" height="197" viewBox="0 0 1298 197" fill="none" xmlns="http://www.w3.org/2000/svg">
<g id="GET IN TOUCH">
<path d="M57.3321 100.491C56.9782 100.668 56.8013 100.757 56.8013 100.757C56.6243 100.757 56.5359 100.845 56.5359 101.022V101.288C56.8898 104.474 57.0667 107.129 57.0667 109.253C57.0667 111.377 56.9782 113.501 56.8013 115.625C56.8013 117.572 56.8013 119.607 56.8013 121.731C56.9782 123.855 57.2437 126.333 57.5976 129.165C58.4823 129.519 59.721 129.785 61.3135 129.962C63.083 129.962 64.941 129.962 66.8875 129.962C69.0109 129.785 70.9574 129.696 72.7269 129.696C74.6733 129.519 76.1774 129.519 77.2391 129.696C77.77 129.873 78.0354 130.67 78.0354 132.086C78.2124 133.502 78.2124 135.095 78.0354 136.865C78.0354 138.635 77.8584 140.405 77.5045 142.175C77.3276 143.768 77.1506 144.918 76.9737 145.626C76.2659 148.104 75.2042 150.139 73.7886 151.732C72.373 153.148 70.6919 154.299 68.7455 155.184C66.2682 156.069 63.5254 156.777 60.5173 157.308C57.686 157.839 54.9433 157.927 52.289 157.573C49.8117 157.042 47.7768 156.246 46.1842 155.184C42.8221 152.529 40.6103 148.9 39.5486 144.299C38.4868 139.697 37.779 135.449 37.4251 131.555C36.8943 125.006 36.5404 118.103 36.3634 110.846C36.1865 103.589 36.275 96.5973 36.6289 89.8713C36.9828 82.9683 37.5136 76.5079 38.2214 70.4899C39.1062 64.4719 40.1679 59.3389 41.4065 55.091C41.7604 53.675 42.2028 52.259 42.7337 50.843C43.4415 49.25 43.9723 48.2765 44.3262 47.9225C46.4496 45.7985 48.927 44.7365 51.7582 44.7365C54.5894 44.7365 57.5091 44.825 60.5173 45.002C63.1715 45.002 65.4719 45.887 67.4183 47.657C69.3648 49.25 71.0458 51.197 72.4614 53.498C74.054 55.622 75.2927 58.0115 76.1774 60.6664C77.2391 63.1444 78.0354 65.2684 78.5663 67.0384C81.2205 67.3924 83.5209 67.6579 85.4673 67.8349C87.4138 68.0119 89.2718 68.1004 91.0413 68.1004C92.9878 68.1004 94.8458 68.1004 96.6153 68.1004C98.5617 67.9234 100.862 67.8349 103.516 67.8349C106.348 67.6579 108.383 67.5694 109.621 67.5694C110.86 67.5694 111.656 67.3039 112.01 66.7729L112.275 65.1799C113.514 54.383 112.541 45.0905 109.356 37.3026C106.171 29.3376 101.393 22.9656 95.0227 18.1866C88.6525 13.4077 81.0436 10.1332 72.196 8.3632C63.3485 6.41621 54.0585 6.06221 44.3262 7.3012C39.5486 8.0092 34.9478 9.0712 30.5241 10.4872C26.1003 11.9032 22.1189 14.1157 18.5799 17.1247C13.4483 20.6646 9.73231 25.1781 7.43194 30.6651C5.30853 36.1521 3.80445 41.816 2.91969 47.657C2.03494 53.321 1.41561 59.1619 1.06171 65.1799C0.707804 71.0209 0.442378 76.7734 0.265427 82.4373C0.0884755 88.9863 0 94.8273 0 99.9602C0.176951 104.916 0.353902 109.695 0.530853 114.297C0.884755 118.722 1.23866 123.236 1.59256 127.838C1.94646 132.44 2.38884 137.573 2.91969 143.237C3.27359 146.777 3.71597 150.316 4.24682 153.856C4.95463 157.219 5.57396 159.874 6.10481 161.821C8.22822 169.432 11.1479 175.804 14.8639 180.937C18.5799 186.07 23.9769 190.141 31.0549 193.15C35.3017 194.92 39.7255 196.071 44.3262 196.602C49.1039 197.133 53.9701 197.133 58.9247 196.602C63.8793 196.248 68.7455 195.54 73.5232 194.478C78.3008 193.593 82.9016 192.531 87.3253 191.292C94.0495 188.814 99.7119 185.185 104.313 180.406C108.913 175.627 111.656 168.724 112.541 159.697C114.31 150.139 115.018 140.139 114.664 129.696C114.31 119.076 113.603 109.076 112.541 99.6947L112.275 99.4292H111.745C109.975 99.4292 106.525 99.2522 101.393 98.8982C96.4383 98.3672 91.0413 98.0133 85.2019 97.8363C79.3625 97.6593 73.7886 97.7478 68.48 98.1018C63.3485 98.2788 59.6325 99.0753 57.3321 100.491Z" fill="#07091A"/>
<path d="M243.514 156.777C231.482 157.131 219.803 157.042 208.478 156.511C197.153 155.803 185.651 155.449 173.973 155.449L173.707 155.184C173.353 150.936 172.999 145.626 172.645 139.254C172.468 132.882 172.822 127.13 173.707 121.997C174.592 121.289 176.273 120.846 178.75 120.669C181.228 120.492 183.97 120.404 186.978 120.404C190.164 120.404 193.437 120.404 196.799 120.404C200.161 120.227 203.169 119.784 205.824 119.076C205.647 112.527 205.735 106.244 206.089 100.226C206.443 94.2078 206.178 88.1898 205.293 82.1718V81.9063C199.807 81.7293 194.322 81.6408 188.836 81.6408C183.351 81.6408 177.954 81.4638 172.645 81.1098L172.38 80.8443C171.141 76.0654 170.787 71.0209 171.318 65.7109C172.026 60.2239 172.292 54.914 172.115 49.781L172.38 49.5155H173.176C179.016 48.9845 184.855 48.719 190.694 48.719C196.534 48.719 202.373 48.8075 208.213 48.9845C214.052 48.9845 219.803 48.896 225.465 48.719C231.305 48.365 237.056 47.5685 242.718 46.3295V46.064C242.718 39.869 242.895 33.5856 243.249 27.2136C243.78 20.8416 243.603 14.5582 242.718 8.3632C242.718 8.1862 240.949 8.0092 237.41 7.83221C233.871 7.65521 229.181 7.56671 223.342 7.56671C217.503 7.56671 210.778 7.65521 203.169 7.83221C195.561 8.0092 187.686 8.1862 179.547 8.3632C171.407 8.54021 163.267 8.80571 155.127 9.1597C147.164 9.3367 139.733 9.6022 132.831 9.9562C131.947 25.1781 131.416 40.3115 131.239 55.3565C131.062 70.4014 131.062 85.4463 131.239 100.491C131.416 115.536 131.681 130.67 132.035 145.892C132.389 160.936 132.566 176.158 132.566 191.557C149.73 192.973 167.602 193.416 186.182 192.885C204.939 192.177 223.342 191.911 241.391 192.088C242.807 186.778 243.603 181.114 243.78 175.096C243.957 168.901 243.868 162.972 243.514 157.308V156.777Z" fill="#07091A"/>
<path d="M363.074 8.3632C344.849 6.41621 326.092 5.53122 306.804 5.70821C287.693 5.70821 269.113 5.79671 251.064 5.97371C251.064 6.15072 251.064 6.23922 251.064 6.23922C251.241 6.23922 251.33 6.32772 251.33 6.50472C250.976 10.7527 250.799 15.1777 250.799 19.7797C250.799 24.3816 250.799 28.7181 250.799 32.7891C250.976 36.6831 251.153 40.046 251.33 42.878C251.684 45.71 252.038 47.48 252.392 48.188C253.453 48.542 255.311 48.719 257.966 48.719C260.62 48.719 263.54 48.8075 266.725 48.9845C269.91 48.9845 273.095 49.1615 276.28 49.5155C279.465 49.6925 282.119 50.312 284.243 51.374L284.508 51.6395C285.57 76.4194 286.189 97.5707 286.366 115.094C286.72 132.617 286.809 147.042 286.632 158.37C286.632 169.521 286.543 177.928 286.366 183.592C286.189 189.256 286.189 192.442 286.366 193.15C289.551 192.619 293.002 192.354 296.718 192.354C300.434 192.354 304.15 192.354 307.866 192.354C311.759 192.354 315.563 192.354 319.279 192.354C323.172 192.177 326.711 191.823 329.896 191.292V190.761C329.542 171.468 329.277 154.741 329.1 140.582C328.923 126.245 328.746 114.032 328.569 103.943C328.392 93.6768 328.215 85.3578 328.038 78.9858C328.038 72.4369 328.038 67.2154 328.038 63.3214C328.038 59.2504 328.038 56.33 328.038 54.56C328.215 52.613 328.392 51.197 328.569 50.312C328.569 50.135 328.569 50.0465 328.569 50.0465C328.746 49.8695 328.834 49.6925 328.834 49.5155H329.631C337.947 49.1615 344.583 48.896 349.538 48.719C354.492 48.542 358.651 48.8075 362.013 49.5155C362.898 43.1435 363.34 36.1521 363.34 28.5411C363.517 20.9301 363.428 14.2042 363.074 8.3632Z" fill="#07091A"/>
<path d="M467.115 6.23922C459.153 6.41622 453.048 6.41622 448.801 6.23922C444.731 5.88522 441.104 5.61972 437.919 5.44272C436.68 5.44272 434.733 5.35422 432.079 5.17722C429.602 4.82322 427.921 4.73472 427.036 4.91173V5.44272C425.443 20.3106 424.647 35.5326 424.647 51.1085C424.824 66.5074 425.09 82.1718 425.443 98.1018C425.974 113.855 426.328 129.785 426.505 145.892C426.682 161.998 426.151 178.017 424.913 193.947C426.682 193.416 429.956 193.239 434.733 193.416C439.511 193.77 444.466 194.035 449.597 194.212C454.906 194.389 459.772 194.301 464.196 193.947C468.796 193.77 471.805 192.973 473.22 191.557C472.335 176.512 471.805 161.29 471.628 145.892C471.451 130.493 471.451 115.094 471.628 99.6947C471.982 84.1188 472.336 68.6314 472.689 53.2325C473.22 37.8336 473.486 22.5231 473.486 7.3012V6.23922H467.115Z" fill="#07091A"/>
<path d="M596.051 194.212C599.059 194.212 601.182 194.035 602.421 193.681C603.659 193.327 604.456 193.062 604.81 192.885V187.575C604.81 184.035 604.721 180.495 604.544 176.955C604.544 173.415 604.544 169.875 604.544 166.335C604.544 161.379 604.544 156.511 604.544 151.732C604.721 146.954 604.81 141.998 604.81 136.865C604.81 129.254 604.81 121.643 604.81 114.032C604.81 106.421 604.721 98.8983 604.544 91.4643V5.97371C599.413 4.91172 593.573 4.38072 587.026 4.38072C580.302 4.38072 573.932 4.91172 567.915 5.97371C567.738 10.3987 567.561 14.5582 567.384 18.4522C567.384 22.1691 567.384 25.8861 567.384 29.6031C567.384 35.9751 567.473 42.2585 567.65 48.4535C568.004 54.4715 568.181 61.0204 568.181 68.1004C568.181 71.1094 568.004 74.2069 567.65 77.3929C567.296 80.5788 566.854 82.3488 566.323 82.7028C566.146 82.7028 565.526 81.7293 564.465 79.7823C563.403 77.6584 562.076 75.1804 560.483 72.3484C559.068 69.3394 557.475 66.0649 555.706 62.5249C553.936 58.808 552.255 55.3565 550.663 52.1705C549.07 48.8075 547.654 45.887 546.416 43.409C545.177 40.931 544.381 39.2495 544.027 38.3646C542.434 34.6476 541.019 31.6386 539.78 29.3376C538.718 26.8596 537.657 24.6471 536.595 22.7001C535.71 20.7531 534.737 18.7177 533.675 16.5937C532.614 14.4697 531.463 11.8147 530.225 8.62871C530.225 8.27471 529.252 7.92071 527.305 7.56671C525.536 7.21271 523.412 6.94721 520.935 6.77021C518.458 6.41622 515.98 6.23922 513.503 6.23922C511.026 6.06221 509.256 5.97371 508.194 5.97371C506.071 5.97371 503.948 6.06221 501.824 6.23922C499.878 6.41622 498.02 6.68171 496.25 7.03571C495.365 18.3637 494.746 30.0456 494.392 42.0815C494.038 53.9405 493.861 65.9764 493.861 78.1894C493.861 94.8273 493.95 110.757 494.127 125.979C494.481 141.201 494.658 157.219 494.658 174.034V192.619C498.727 192.619 502.886 192.885 507.133 193.416C511.556 193.947 515.892 194.212 520.139 194.212C522.085 194.212 524.031 194.124 525.978 193.947C527.924 193.77 529.871 193.416 531.817 192.885C531.64 189.876 531.552 186.513 531.552 182.796C531.552 178.902 531.552 174.919 531.552 170.848C531.552 163.414 531.552 155.715 531.552 147.75C531.729 139.785 531.906 132.528 532.083 125.979C532.26 119.43 532.437 114.032 532.614 109.784C532.967 105.536 533.233 103.412 533.41 103.412C533.764 103.412 534.206 104.297 534.737 106.067C535.445 107.66 536.153 109.43 536.86 111.377L539.515 119.342C543.585 130.67 548.451 142.529 554.113 154.918C559.953 167.131 565.792 179.787 571.631 192.885C575.17 192.885 579.24 193.062 583.841 193.416C588.442 193.947 592.512 194.212 596.051 194.212Z" fill="#07091A"/>
<path d="M778.581 8.3632C760.355 6.41621 741.598 5.53122 722.311 5.70821C703.2 5.70821 684.62 5.79671 666.571 5.97371C666.571 6.15072 666.571 6.23922 666.571 6.23922C666.748 6.23922 666.836 6.32772 666.836 6.50472C666.483 10.7527 666.306 15.1777 666.306 19.7797C666.306 24.3816 666.306 28.7181 666.306 32.7891C666.483 36.6831 666.659 40.046 666.836 42.878C667.19 45.71 667.544 47.48 667.898 48.188C668.96 48.542 670.818 48.719 673.472 48.719C676.126 48.719 679.046 48.8075 682.231 48.9845C685.416 48.9845 688.601 49.1615 691.787 49.5155C694.972 49.6925 697.626 50.312 699.749 51.374L700.015 51.6395C701.076 76.4194 701.696 97.5707 701.873 115.094C702.227 132.617 702.315 147.042 702.138 158.37C702.138 169.521 702.05 177.928 701.873 183.592C701.696 189.256 701.696 192.442 701.873 193.15C705.058 192.619 708.508 192.354 712.224 192.354C715.94 192.354 719.656 192.354 723.372 192.354C727.265 192.354 731.07 192.354 734.786 192.354C738.679 192.177 742.218 191.823 745.403 191.292V190.761C745.049 171.468 744.783 154.741 744.606 140.582C744.429 126.245 744.253 114.032 744.076 103.943C743.899 93.6768 743.722 85.3578 743.545 78.9858C743.545 72.4369 743.545 67.2154 743.545 63.3214C743.545 59.2504 743.545 56.33 743.545 54.56C743.722 52.613 743.899 51.197 744.076 50.312C744.076 50.135 744.076 50.0465 744.076 50.0465C744.253 49.8695 744.341 49.6925 744.341 49.5155H745.137C753.454 49.1615 760.09 48.896 765.044 48.719C769.999 48.542 774.157 48.8075 777.519 49.5155C778.404 43.1435 778.846 36.1521 778.846 28.5411C779.023 20.9301 778.935 14.2042 778.581 8.3632Z" fill="#07091A"/>
<path d="M897.587 35.7096C895.464 29.5146 891.837 24.1161 886.705 19.5141C881.573 15.6202 875.734 12.6997 869.187 10.7527C862.817 8.6287 856.181 7.38971 849.28 7.03571C842.556 6.68171 835.743 7.21271 828.842 8.62871C822.118 9.8677 815.836 11.9032 809.997 14.7352C807.696 16.1512 805.661 17.7442 803.892 19.5141C798.406 25.7091 794.69 32.8776 792.744 41.0195C790.975 48.9845 790.001 56.9495 789.824 64.9144C788.94 78.8973 788.763 92.8803 789.293 106.863C790.001 120.669 790.621 134.475 791.151 148.281C791.328 153.414 791.771 158.547 792.479 163.68C793.363 168.636 795.044 173.326 797.522 177.751C799.114 181.291 801.149 184.212 803.626 186.513C806.104 188.637 808.847 190.407 811.855 191.823C815.04 193.239 818.313 194.212 821.675 194.743C825.215 195.451 828.842 195.982 832.558 196.336C837.69 196.69 842.733 196.69 847.687 196.336C852.819 195.982 857.862 195.097 862.817 193.681C868.302 192.265 873.434 190.318 878.211 187.84C883.166 185.185 887.147 181.734 890.156 177.486C893.341 172.353 895.73 166.689 897.322 160.494C898.915 154.122 899.888 147.838 900.242 141.644L901.038 132.882C901.746 123.678 902.011 114.651 901.834 105.801C901.657 96.9513 901.834 87.8358 902.365 78.4548C902.542 74.0299 902.542 69.6934 902.365 65.4454C902.365 61.0204 902.188 56.5955 901.834 52.1705C901.48 49.3385 900.95 46.595 900.242 43.94C899.711 41.108 898.826 38.3646 897.587 35.7096ZM869.187 113.235C869.187 113.589 869.098 115.094 868.921 117.749C868.921 120.404 868.833 123.501 868.656 127.041C868.302 130.758 868.125 133.767 868.125 136.068C868.302 138.192 868.302 140.051 868.125 141.644C867.948 143.237 867.506 144.741 866.798 146.157C866.09 147.396 864.94 149.077 863.347 151.201C860.693 154.21 857.42 156.423 853.527 157.839C849.634 159.078 845.741 159.609 841.848 159.432C837.955 159.078 834.328 157.927 830.965 155.98C827.603 154.033 825.038 151.29 823.268 147.75C821.499 141.909 820.437 135.803 820.083 129.431C819.729 122.882 819.11 116.51 818.225 110.315C817.871 102.881 817.783 95.4468 817.96 88.0128C818.313 80.5788 819.198 73.4989 820.614 66.7729C822.737 59.3389 826.896 53.2325 833.089 48.4535C835.92 46.3295 839.194 44.825 842.91 43.94C846.626 43.055 850.253 43.3205 853.792 44.7365C857.862 46.6835 861.047 49.6925 863.347 53.7635C865.825 57.8344 867.24 62.3479 867.594 67.3039C867.771 70.3129 867.948 73.5874 868.125 77.1274C868.479 80.4903 868.656 82.2603 868.656 82.4373L869.187 100.491V113.235Z" fill="#07091A"/>
<path d="M1034.39 15.2662C1032.26 14.0272 1029.52 13.2307 1026.16 12.8767C1022.8 12.5227 1019.26 12.4342 1015.54 12.6112C1011.83 12.7882 1008.11 13.1422 1004.39 13.6732C1000.86 14.0272 997.936 14.2927 995.636 14.4697C995.105 35.0016 994.751 56.2415 994.574 78.1894C994.574 100.137 994.132 121.731 993.247 142.971C992.362 147.042 990.416 150.228 987.407 152.529C984.399 154.83 981.126 156.069 977.587 156.246C974.048 156.423 970.597 155.538 967.235 153.591C964.05 151.644 961.838 148.547 960.599 144.299C957.06 100.226 956.264 56.7725 958.21 13.9387V13.6732C955.556 12.9652 952.637 12.5227 949.451 12.3457C946.266 11.9917 942.993 11.8147 939.631 11.8147C936.269 11.8147 932.906 11.9032 929.544 12.0802C926.359 12.2572 923.44 12.3457 920.785 12.3457H920.52L920.785 12.6112C921.139 35.9751 921.051 59.5159 920.52 83.2338C919.989 106.952 919.724 130.493 919.724 153.856C920.078 161.998 922.378 168.99 926.625 174.831C931.049 180.495 936.446 185.097 942.816 188.637C949.363 192 956.618 194.301 964.581 195.54C972.544 196.956 980.241 197.31 987.673 196.602C1000.41 195.363 1010.5 190.672 1017.93 182.53C1025.36 174.388 1029.79 164.476 1031.2 152.794C1033.68 129.962 1035.1 107.04 1035.45 84.0303C1035.8 60.8434 1035.45 37.9221 1034.39 15.2662Z" fill="#07091A"/>
<path d="M1095.14 48.9845C1096.56 47.5685 1098.5 46.595 1100.98 46.064C1103.63 45.533 1106.11 45.0905 1108.41 44.7365C1113.54 44.5595 1117.26 45.6215 1119.56 47.9225C1122.04 50.2235 1123.72 53.2325 1124.6 56.9495C1125.49 60.4894 1125.93 64.3834 1125.93 68.6314C1126.11 72.8794 1126.46 76.6849 1126.99 80.0478C1133.71 81.2868 1140.17 82.1718 1146.37 82.7028C1152.74 83.0568 1159.2 82.5258 1165.74 81.1098C1168.57 72.9679 1169.64 65.0029 1168.93 57.215C1168.22 49.427 1166.19 42.2585 1162.82 35.7096C1159.46 28.9836 1154.95 23.0541 1149.29 17.9212C1143.62 12.7882 1137.25 8.7172 1130.18 5.70821C1123.27 2.52223 1115.84 0.663742 1107.88 0.132751C1099.92 -0.39825 1091.87 0.663741 1083.73 3.31873C1081.25 4.02672 1078.86 4.91172 1076.56 5.97371C1074.26 6.8587 1072.14 8.0092 1070.19 9.42519C1066.83 12.4342 1063.91 15.8857 1061.43 19.7797C1059.13 23.6736 1057.18 27.9216 1055.59 32.5236C1054.53 35.1786 1053.64 38.099 1052.94 41.285C1052.41 44.294 1052.32 47.303 1052.67 50.312C1052.49 64.6489 1052.32 77.3044 1052.14 88.2783C1052.14 99.0752 1052.14 108.81 1052.14 117.483C1052.32 125.979 1052.49 133.679 1052.67 140.582C1052.85 147.484 1053.11 154.122 1053.47 160.494C1054.18 167.928 1056.48 174.123 1060.37 179.079C1064.44 184.035 1069.39 187.929 1075.23 190.761C1081.07 193.416 1087.35 195.097 1094.08 195.805C1100.8 196.69 1107.35 196.69 1113.72 195.805C1123.45 195.628 1132.12 193.239 1139.73 188.637C1147.52 183.858 1153.8 177.84 1158.58 170.583C1163.35 163.326 1166.45 155.184 1167.87 146.157C1169.28 136.953 1168.49 127.749 1165.48 118.545C1163 117.837 1160.17 117.395 1156.98 117.218C1153.98 117.041 1150.88 116.952 1147.69 116.952C1144.51 116.952 1141.32 117.041 1138.14 117.218C1135.13 117.395 1132.39 117.306 1129.91 116.952C1129.03 121.377 1128.67 125.891 1128.85 130.493C1129.2 134.918 1128.41 139.166 1126.46 143.237C1124.69 146.777 1122.04 149.343 1118.5 150.936C1115.13 152.352 1111.51 152.883 1107.61 152.529C1102.48 151.113 1098.77 148.015 1096.47 143.237C1094.34 138.281 1093.02 133.236 1092.49 128.103C1091.95 121.908 1091.69 114.651 1091.69 106.332C1091.69 97.8363 1091.78 89.6943 1091.95 81.9063C1092.13 74.1184 1092.31 67.3924 1092.49 61.7284C1092.84 56.0645 1093.19 52.967 1093.55 52.436C1093.72 52.082 1093.9 51.551 1094.08 50.843C1094.43 49.958 1094.79 49.3385 1095.14 48.9845Z" fill="#07091A"/>
<path d="M1290.83 5.44272C1288.18 5.26572 1285.17 5.17722 1281.81 5.17722C1278.62 5.00023 1275.35 5.08873 1271.99 5.44272C1268.63 5.61972 1265.35 5.97371 1262.17 6.50472C1259.16 7.03571 1256.59 7.6552 1254.47 8.3632C1255 21.1071 1255.18 32.7891 1255 43.409C1255 54.029 1254.47 65.4454 1253.41 77.6584H1253.14C1248.72 78.0124 1243.94 78.4549 1238.81 78.9858C1233.68 79.3398 1228.9 78.9858 1224.48 77.9239H1224.21C1222.09 66.5959 1221.03 55.1795 1221.03 43.6745C1221.03 32.1696 1220.23 20.3106 1218.64 8.0977C1216.16 7.3897 1213.51 7.03571 1210.67 7.03571C1207.84 7.03571 1204.92 7.1242 1201.92 7.3012C1199.08 7.47821 1196.16 7.65521 1193.16 7.83221C1190.33 8.0092 1187.58 7.8322 1184.93 7.3012H1184.13V7.56671C1183.96 16.5937 1183.78 26.7711 1183.6 38.0991C1183.6 49.25 1183.69 60.9319 1183.87 73.1449C1184.04 85.1808 1184.22 97.2168 1184.4 109.253C1184.75 121.289 1185.11 132.705 1185.46 143.502C1185.81 154.122 1186.17 163.768 1186.52 172.441C1187.05 180.937 1187.49 187.663 1187.85 192.619C1189.44 191.734 1191.74 191.38 1194.75 191.557C1197.93 191.734 1201.3 192 1204.84 192.354C1208.37 192.708 1211.91 192.885 1215.45 192.885C1218.99 192.885 1221.82 192.265 1223.95 191.026C1224.83 185.362 1225.27 179.698 1225.27 174.034C1225.45 168.193 1225.45 162.264 1225.27 156.246C1225.1 150.228 1224.92 144.21 1224.74 138.192C1224.74 132.174 1225.01 126.068 1225.54 119.873C1230.67 118.634 1235.8 118.014 1240.93 118.014C1246.06 118.014 1251.2 118.457 1256.33 119.342L1256.59 119.607C1257.3 125.271 1257.74 131.201 1257.92 137.396C1258.1 143.591 1258.19 149.785 1258.19 155.98C1258.36 162.175 1258.54 168.459 1258.72 174.831C1259.07 181.026 1259.69 187.044 1260.57 192.885H1260.84C1262.96 192.708 1265.53 192.619 1268.54 192.619C1271.72 192.619 1274.91 192.619 1278.09 192.619C1281.46 192.619 1284.82 192.531 1288.18 192.354C1291.72 192.177 1294.99 191.823 1298 191.292L1290.83 5.44272Z" fill="#07091A"/>
</g>
</svg>
