<?xml version="1.0" encoding="UTF-8" standalone="no"?>
<!-- Created with Inkscape (http://www.inkscape.org/) -->

<svg
   width="44.257107mm"
   height="35.501553mm"
   viewBox="0 0 44.257107 35.501553"
   version="1.1"
   id="svg15817"
   xmlns="http://www.w3.org/2000/svg"
   xmlns:svg="http://www.w3.org/2000/svg">
  <defs
     id="defs15814" />
  <g
     id="layer1"
     transform="translate(-83.365846,-119.58202)">
    <path
      fill="#404040"
       id="path1120-9-91"
       style="display:inline;stroke-width:0.365307;stroke-linejoin:round;paint-order:stroke markers fill;stop-color:#000000"
       d="m 98.43141,119.60535 c -3.634266,0.29421 -7.037372,2.41782 -9.074942,5.3323 -2.815986,3.87094 -4.631917,8.85468 -3.567636,13.65794 0.742726,3.41102 3.306895,6.20917 6.365235,7.76758 0.504551,0.42186 0.135581,0.95671 -0.107434,1.40469 -0.677642,1.25786 -1.607917,2.48627 -2.908191,3.13241 -0.764342,-0.16012 -1.175139,-0.93343 -1.892578,-1.22265 -1.127354,-0.65938 -2.924129,-1.07523 -3.791016,0.19922 -0.482981,1.62685 1.092739,2.96523 2.484313,3.43268 1.0868,0.44321 2.308104,0.27764 3.359765,-0.15302 0.831851,0.009 1.587975,0.5278 2.415965,0.65932 2.850683,0.71987 5.795302,0.99784 8.714149,1.26498 3.63728,0.0502 7.13685,-0.58227 10.55901,-1.8231 2.18514,-0.8112 4.17663,-1.80077 6.0744,-3.04963 4.17983,-2.69997 7.60091,-6.56775 9.67755,-11.09686 0.78223,-1.51029 1.41979,-3.56853 0.20508,-5.03125 -0.35864,-0.4924 -1.35617,-1.0547 -1.65947,-0.19649 -0.68474,1.52359 0.34818,3.10105 0.0711,4.67327 -0.25634,3.18275 -2.27895,5.86819 -4.50012,8.01682 -7.38884,7.61468 -19.58684,10.02487 -29.319711,5.80523 -0.235624,-0.55948 -0.162613,-1.02064 0.314063,-1.39211 0.887849,-0.98199 1.484889,-2.15865 1.914453,-3.36375 0.512535,-0.46275 1.075454,-0.2081 1.650154,-0.0399 5.763481,1.36576 12.021611,-0.59009 16.351101,-4.54024 3.6146,-3.23207 6.08712,-7.99414 5.86984,-12.91397 -0.36651,-3.42733 -3.30677,-6.11656 -6.55469,-6.90234 -1.58016,-0.45047 -3.25549,-0.54411 -4.88086,-0.31641 -0.78612,-0.24283 -1.09848,-1.13135 -1.78534,-1.55828 -1.67289,-1.41792 -3.89077,-1.88526 -5.98419,-1.74641 z m 0.919922,1.31055 c 1.641678,-0.043 3.273438,0.6206 4.462888,1.74414 0.0241,0.70074 -0.33065,1.07228 -0.99087,1.21772 -2.48769,1.06638 -4.497208,3.05459 -5.745137,5.4407 -2.614534,4.66006 -2.624159,10.14861 -3.809641,15.23492 0.0045,0.56582 -0.551035,1.02825 -1.069583,0.90744 -2.476753,-1.20204 -4.491255,-3.35113 -5.339613,-5.98998 -1.542982,-4.4996 -0.239155,-9.60109 2.659981,-13.26291 2.348536,-3.01283 5.936216,-5.24253 9.831975,-5.29203 z m 8.312498,3.18945 c 3.96086,-0.10232 8.0707,2.61237 8.83985,6.62891 0.65386,3.94147 -1.29843,7.83329 -3.93555,10.64844 -4.39343,4.824 -11.59818,6.94061 -17.875001,5.08203 -0.470007,-0.47668 -0.272383,-1.02646 -0.114483,-1.58775 0.893978,-4.07418 1.094347,-8.30723 2.549735,-12.2498 1.27816,-3.55758 3.884989,-6.94666 7.629199,-8.0687 0.63749,0.11466 0.84769,0.65634 0.97071,1.22461 0.72031,2.89987 0.0747,6.08393 -1.69532,8.48632 -0.22821,0.9277 1.35177,1.76979 1.79644,0.77022 2.07671,-2.76709 2.41143,-6.72902 1.25434,-9.83662 -0.29803,-0.35404 0.17288,-1.11841 0.58008,-1.09766 z" />
  </g>
</svg>
