<?xml version="1.0" encoding="UTF-8" standalone="no"?>
<!-- Created with Inkscape (http://www.inkscape.org/) -->

<svg
   width="74.640137mm"
   height="74.631569mm"
   viewBox="0 0 74.640137 74.631569"
   version="1.1"
   id="svg27897"
   xmlns="http://www.w3.org/2000/svg"
   xmlns:svg="http://www.w3.org/2000/svg">
  <defs
     id="defs27894" />
  <g
     id="layer1"
     transform="translate(-66.748732,-104.29382)">
    <path
       id="path26658-8"
       style="color:#000000;display:inline;fill:#e23f39;stroke-width:1.47541;stroke-linejoin:round;-inkscape-stroke:none;paint-order:stroke markers fill"
       d="m 103.83809,104.29431 c -0.73272,0.004 -1.4654,0.0291 -2.19676,0.076 -0.16351,0.006 -0.32689,0.0127 -0.49043,0.0191 -3.595055,0.32953 -7.160712,1.08257 -10.522852,2.41277 -3.243924,1.23788 -6.308302,2.95268 -9.075949,5.04775 -3.118591,2.35383 -5.865442,5.20312 -8.093049,8.41241 -2.092351,2.97147 -3.697525,6.26494 -4.863253,9.70329 -1.137338,3.56382 -1.789298,7.28515 -1.841764,11.02878 -0.06699,3.94055 0.501623,7.88985 1.663991,11.65614 1.161124,3.73152 2.906474,7.27874 5.157813,10.47429 2.253801,3.19173 5.013908,6.02208 8.141124,8.36536 3.13264,2.33493 6.628553,4.18201 10.328036,5.44256 3.700198,1.25532 7.59595,1.92736 11.503683,1.98438 10.72703,0.23384 21.41787,-4.52044 28.47941,-12.59094 6.5595,-7.35925 9.99077,-17.40457 9.26507,-27.23969 -0.27186,-3.86497 -1.13395,-7.68726 -2.56677,-11.28871 -1.46093,-3.66016 -3.5078,-7.08225 -6.02599,-10.11411 -2.49,-2.96789 -5.43288,-5.55339 -8.70903,-7.62383 -3.30591,-2.08385 -6.93785,-3.64578 -10.72441,-4.61522 -3.07768,-0.77973 -6.25385,-1.16676 -9.42887,-1.15032 z m -0.54624,0.78549 1.00201,0.0517 -0.20773,3.99976 c -0.0297,0.57055 0.0418,0.99261 0.21445,1.26607 0.25828,0.39578 0.63952,0.60681 1.14413,0.63304 0.50745,0.0264 0.91028,-0.1442 1.2082,-0.51108 0.19963,-0.24548 0.31453,-0.6575 0.34467,-1.23662 l 0.20772,-3.99976 1.00203,0.0522 -0.22222,4.27467 c -0.0364,0.69956 -0.28432,1.26465 -0.74361,1.69499 -0.51652,0.47911 -1.13149,0.70013 -1.84536,0.66301 -0.7139,-0.0371 -1.30157,-0.32067 -1.76271,-0.8506 -0.41225,-0.47565 -0.60015,-1.06312 -0.56377,-1.76268 z m 8.14888,0.29042 3.23905,6.22546 1.29091,-4.43694 0.96324,0.2806 -1.97043,6.77272 -3.24268,-6.21306 -1.30019,4.47001 -0.96324,-0.2806 z m -11.989966,0.0661 0.686776,5.66426 1.94096,-0.23513 0.11369,0.93638 -2.937297,0.35605 -0.799941,-6.60063 z m -7.758192,2.065 c 0.20582,10e-4 0.391663,0.0304 0.557583,0.0884 0.533559,0.18923 0.907918,0.56556 1.123448,1.12862 0.168328,0.4397 0.187272,0.86613 0.05633,1.27899 -0.13081,0.41264 -0.385577,0.74208 -0.764301,0.98857 l 2.934705,1.91047 -1.146175,0.43874 -2.746613,-1.86242 -0.168963,0.0646 0.973058,2.54145 -0.936889,0.35915 -2.377123,-6.20996 1.098127,-0.42012 c 0.5384,-0.20611 1.003855,-0.30827 1.396814,-0.30644 z m -0.106468,0.95136 c -0.22352,-5.3e-4 -0.483526,0.0559 -0.780309,0.1695 l -0.333825,0.12815 0.753957,1.97043 0.297656,-0.11369 c 0.887465,-0.33973 1.201738,-0.84923 0.942075,-1.52756 -0.159649,-0.41701 -0.452887,-0.62581 -0.879554,-0.62683 z m 28.228796,0.26303 1.21385,0.68781 c 0.58203,0.32973 1.00896,0.64748 1.28106,0.95344 0.29853,0.31759 0.51903,0.69495 0.66096,1.13171 0.2885,0.88277 0.18145,1.76735 -0.32092,2.6541 -0.50379,0.88926 -1.22264,1.4327 -2.15593,1.62988 -0.46794,0.0979 -0.90331,0.10358 -1.30638,0.017 -0.3806,-0.0737 -0.86407,-0.2767 -1.45108,-0.60926 l -1.19941,-0.67954 z m 0.40772,1.31516 -2.34767,4.14446 0.39377,0.22272 c 0.39217,0.22217 0.74153,0.36573 1.04799,0.43047 0.30933,0.0598 0.62262,0.0539 0.94001,-0.0171 0.65181,-0.14878 1.15594,-0.53791 1.51257,-1.16737 0.35944,-0.63447 0.43876,-1.26903 0.23771,-1.90427 -0.18265,-0.56873 -0.64622,-1.064 -1.3906,-1.4857 z m -35.932692,0.39171 6.463162,4.27054 -0.927576,0.58756 -1.453674,-0.99063 -2.404507,1.52342 0.23876,1.76061 -0.91313,0.57878 z m 1.188561,1.9079 0.33692,2.46289 1.706351,-1.08106 z m 18.911491,0.31212 c 0.65699,0.006 1.31376,0.0327 1.96887,0.0806 0.0759,0.003 0.15153,0.007 0.22738,0.01 3.21239,0.32334 6.38077,1.10917 9.32709,2.44015 3.84424,1.7256 7.29991,4.30101 10.05933,7.48637 2.68475,3.11469 4.71395,6.79962 5.86425,10.75077 1.03328,3.47944 1.39385,7.15888 1.09088,10.77608 -0.0804,0.91586 -0.21632,1.85098 -0.39428,2.78846 -0.0763,0.0357 -0.15243,0.0799 -0.22739,0.14314 -1.25137,1.04238 -1.39607,2.74562 -1.63814,4.24006 -0.90368,3.95623 -4.16713,6.88256 -7.61968,8.72763 -3.17963,1.68415 -6.53751,3.08441 -10.08518,3.76463 -11.09805,2.26586 -23.306877,-0.90063 -31.586694,-8.71627 -0.0458,-0.63813 0.2218,-1.04024 0.820605,-1.2299 1.642745,-0.8411 3.016541,-2.09658 4.195101,-3.50262 0.581766,-0.22521 1.000363,0.0989 1.427294,0.44958 3.269774,2.30599 7.147957,3.5418 11.096493,3.93413 8.646341,0.764 17.759361,-2.98414 22.856981,-10.11256 1.6645,-2.44347 3.22736,-5.26482 2.9745,-8.32456 -0.21167,-3.35104 -2.15863,-6.6403 -4.92683,-8.62273 -1.91381,-1.5161 -4.22606,-2.53954 -6.55153,-3.03289 -0.66358,-0.49897 -0.64207,-1.44856 -1.10226,-2.11253 -1.62835,-3.39779 -5.32664,-5.46689 -8.87285,-5.97535 -0.75002,-0.12055 -1.50942,-0.17292 -2.2691,-0.1788 -0.25323,-0.002 -0.50678,8e-4 -0.75964,0.009 -3.497873,0.13496 -7.101074,1.4073 -9.937381,3.58169 -4.788456,3.37743 -8.832877,8.28735 -9.99371,14.14591 -1.079658,4.9991 0.891593,10.2658 4.327896,13.92059 0.11856,0.54922 -0.09081,0.96187 -0.548799,1.26298 -1.445657,1.33211 -3.2063,2.52933 -5.19348,2.76262 -0.685509,-0.48699 -0.829071,-1.42106 -1.426263,-2.01125 -0.424682,-0.53563 -0.949113,-1.07992 -1.540986,-1.5105 0.0699,0.28225 0.144119,0.56376 0.222197,0.84387 0.07382,0.26489 0.151845,0.52847 0.233072,0.79117 -0.08157,-0.2626 -0.158988,-0.52636 -0.233072,-0.79117 -0.07837,-0.28015 -0.152267,-0.56149 -0.222197,-0.84387 -0.717285,-2.89575 -0.992981,-5.90112 -0.791183,-8.87904 0.239262,-3.77165 1.237641,-7.49657 2.909384,-10.88565 1.806364,-3.69753 4.430607,-6.98044 7.599019,-9.60148 3.025484,-2.46772 6.536558,-4.34132 10.290836,-5.4224 2.731717,-0.80547 5.582527,-1.18027 8.429467,-1.15549 z m 21.95732,0.1695 0.75655,0.65216 c 0.33692,0.29069 0.58298,0.54838 0.73792,0.77308 0.15717,0.22659 0.25199,0.46198 0.28424,0.7059 0.0307,0.25015 0.004,0.50639 -0.0781,0.76894 -0.0822,0.2666 -0.20815,0.49878 -0.37878,0.6966 -0.3113,0.36083 -0.71284,0.54734 -1.20456,0.55914 0.18859,0.32196 0.26117,0.66386 0.21857,1.02526 -0.0385,0.3611 -0.18714,0.6917 -0.44596,0.99167 -0.33946,0.39344 -0.7653,0.60551 -1.27796,0.63717 -0.31179,0.023 -0.6001,-0.0226 -0.86506,-0.13746 -0.28262,-0.13391 -0.59552,-0.34916 -0.93895,-0.64544 l -1.15136,-0.99322 z m 0.15814,1.35289 -1.26349,1.46399 0.23823,0.20568 c 0.28255,0.2438 0.54248,0.35966 0.77978,0.3483 0.24138,-0.0117 0.46694,-0.13895 0.67696,-0.38241 0.20445,-0.23695 0.29176,-0.47463 0.26202,-0.71262 -0.0279,-0.24018 -0.16984,-0.47065 -0.42635,-0.69195 z m -46.141902,5.3e-4 0.836136,0.84491 c -0.753481,0.0632 -1.350407,0.31256 -1.791097,0.74879 -0.485616,0.48071 -0.72181,1.06028 -0.709004,1.73839 0.009,0.67809 0.261223,1.268 0.758084,1.76992 0.490802,0.4958 1.072171,0.74861 1.744081,0.7581 0.671909,0.01 1.250738,-0.2262 1.736328,-0.70694 0.250957,-0.24842 0.423624,-0.5002 0.518318,-0.75551 0.05749,-0.13776 0.10414,-0.29273 0.139515,-0.46509 0.0376,-0.17436 0.06607,-0.36827 0.08527,-0.58136 l 0.851112,0.8599 c -0.179811,0.63451 -0.494189,1.17417 -0.943107,1.61851 -0.675323,0.66853 -1.484815,1.00328 -2.428769,1.00459 -0.946018,-0.005 -1.75141,-0.34251 -2.415884,-1.0139 -0.595815,-0.60188 -0.928132,-1.33575 -0.996844,-2.20089 -0.08189,-1.06214 0.265959,-1.9776 1.043358,-2.74712 0.424365,-0.4201 0.948478,-0.71102 1.572498,-0.8723 z m 44.330112,2.09961 -1.3136,1.52239 0.46921,0.40514 c 0.34343,0.29631 0.65408,0.44661 0.9312,0.45062 0.29523,5.3e-4 0.53909,-0.11097 0.73226,-0.33486 0.18754,-0.21736 0.2639,-0.47067 0.22842,-0.75913 -0.0331,-0.28255 -0.2544,-0.59982 -0.66302,-0.9524 z m 6.30452,0.88263 2.32855,2.83601 -0.72914,0.59841 -1.69138,-2.06034 -1.23454,1.01389 1.64227,2.0004 -0.72917,0.59841 -1.64227,-2.00039 -1.7172,1.41025 1.69135,2.05982 -0.72863,0.59893 -2.32852,-2.836 z m -30.70767,1.43919 c 2.62168,-0.003 5.42139,0.45128 7.54888,2.08618 0.98375,0.76978 1.78266,1.76683 2.3518,2.87683 -0.22206,0.70693 -0.73866,0.8792 -1.42679,0.79426 -3.29113,0.1571 -6.70087,1.407 -9.257825,3.61012 -5.078333,3.90501 -7.787561,9.87808 -10.909406,15.31638 -0.704426,1.21064 -1.389036,2.43971 -2.24999,3.54862 -0.635635,0.20603 -1.086035,-0.0717 -1.412849,-0.61805 -2.106771,-2.34144 -3.400477,-5.40214 -3.464903,-8.56279 -0.175181,-5.44572 2.591302,-10.69991 6.698826,-14.17019 3.348726,-2.89353 7.667228,-4.78127 12.122257,-4.88136 z m -24.776775,1.41129 c 0.07678,-10e-5 0.155602,0.003 0.236141,0.009 l -0.05943,0.94413 c -0.303926,-0.023 -0.528293,1e-4 -0.672306,0.0687 -0.156739,0.0669 -0.298662,0.19392 -0.426323,0.38137 -0.156819,0.23014 -0.221853,0.46568 -0.194839,0.70642 0.02461,0.23914 0.134117,0.42506 0.328665,0.55759 0.268129,0.18264 0.619998,0.13052 1.055238,-0.15658 l 0.597905,-0.39533 c 0.484161,-0.32325 0.926968,-0.4995 1.328606,-0.52813 0.399229,-0.0303 0.787505,0.0831 1.164775,0.34003 0.505407,0.34426 0.80817,0.79749 0.908473,1.35909 0.101071,0.56556 -0.01958,1.09946 -0.362241,1.60249 -0.324882,0.47692 -0.734774,0.77498 -1.228884,0.89348 -0.490828,0.11374 -1.01809,0.0339 -1.582314,-0.23926 l 0.387059,-0.96583 c 0.348536,0.18185 0.616559,0.26715 0.804598,0.25631 0.353642,-0.009 0.642011,-0.17743 0.865055,-0.50487 0.17616,-0.25863 0.23622,-0.53231 0.179308,-0.82114 -0.05688,-0.28883 -0.218466,-0.52385 -0.484187,-0.70487 -0.106786,-0.0727 -0.214207,-0.12346 -0.322977,-0.15245 -0.109511,-0.0331 -0.223308,-0.0426 -0.340572,-0.0284 -0.117977,0.01 -0.242702,0.0427 -0.37465,0.0987 -0.134302,0.0544 -0.277918,0.13016 -0.430979,0.22738 l -0.581872,0.38034 c -0.830289,0.53558 -1.551517,0.59476 -2.163683,0.17777 -0.412856,-0.28122 -0.650505,-0.67406 -0.713132,-1.17874 -0.06501,-0.50629 0.06239,-0.99471 0.382403,-1.46451 0.39108,-0.57413 0.957685,-0.86147 1.700159,-0.86248 z m 59.200525,2.02778 0.58084,1.02216 c 0.43386,0.76388 0.60325,1.39706 0.509,1.89962 -0.10686,0.55594 -0.42196,0.98279 -0.9462,1.28055 -0.40939,0.23254 -0.82839,0.31487 -1.25624,0.24753 -0.42786,-0.0673 -0.79172,-0.26953 -1.09244,-0.6072 v 0 l -1.44693,3.18947 -0.60619,-1.06764 1.42836,-2.99516 -0.0889,-0.15761 -2.3668,1.34462 -0.49556,-0.87282 z m -0.32454,1.3379 -1.83505,1.04232 0.15762,0.27698 c 0.46934,0.82629 1.02002,1.05997 1.65158,0.70125 0.59166,-0.33604 0.65913,-0.90564 0.20259,-1.70946 z m -61.252075,2.51251 c 0.441007,-0.008 0.882359,0.0763 1.323948,0.25167 0.888497,0.3529 1.516301,0.96965 1.883093,1.85053 0.368405,0.88462 0.373168,1.7781 0.01508,2.67994 -0.316865,0.79778 -0.877544,1.40438 -1.682062,1.82004 -0.888656,0.45636 -1.828033,0.4877 -2.817919,0.0946 -0.869817,-0.34548 -1.490345,-0.96073 -1.861396,-1.8464 -0.372137,-0.88301 -0.380841,-1.77018 -0.02685,-2.66134 0.349726,-0.88049 0.964538,-1.51073 1.844331,-1.89032 0.440425,-0.19112 0.880877,-0.29083 1.321884,-0.29869 z m 36.835975,0.5426 c 0.51763,-0.0203 1.07585,0.14543 1.18237,0.70332 0.0599,2.47408 -0.79938,4.92498 -2.1146,6.99854 -1.00412,1.5871 -2.40104,2.89123 -3.91295,3.97392 -0.70834,1.0859 0.69678,2.95135 1.90841,2.21278 0.15386,-0.014 0.29573,0.008 0.41548,0.0398 -0.0689,-0.0395 -0.13949,-0.0795 -0.23511,-0.14004 1.43899,-1.00021 2.86001,-2.3519 3.83024,-3.90157 1.66166,-2.55207 2.53762,-5.62515 2.40554,-8.67182 0.42349,-0.48462 0.9226,-0.60241 1.47487,-0.2496 4.46309,1.72428 7.95835,6.31256 7.60005,11.20913 -0.36637,3.96413 -2.89978,7.41432 -5.95003,9.82369 -4.51819,3.538 -10.31812,5.41409 -16.05743,5.05344 -4.451272,-0.23877 -8.87619,-1.68618 -12.465898,-4.35839 -0.282787,-0.61806 0.09438,-1.08083 0.455771,-1.55494 2.861918,-4.40699 4.904449,-9.32293 8.166444,-13.47411 3.077316,-4.13015 7.761153,-7.53669 13.078773,-7.6445 0.0709,-0.01 0.14418,-0.0168 0.21807,-0.0196 z m -2.52129,13.92835 c 0.47765,0.27352 0.34996,0.0927 0,0 z m -34.346224,-13.4777 c -0.319828,2.6e-4 -0.63492,0.0664 -0.945144,0.19792 -0.622062,0.25954 -1.061297,0.71184 -1.317758,1.35754 -0.255402,0.64302 -0.246988,1.27505 0.0254,1.89601 0.266939,0.61869 0.725911,1.0576 1.376654,1.3162 v 0 c 0.682889,0.27112 1.335617,0.26484 1.958022,-0.0191 0.621454,-0.28139 1.050899,-0.7206 1.288283,-1.31827 0.257519,-0.64836 0.250613,-1.28426 -0.02064,-1.90789 -0.276596,-0.62573 -0.740093,-1.06796 -1.391127,-1.32654 -0.329512,-0.13088 -0.654235,-0.19619 -0.974116,-0.19585 z m 62.509374,1.47846 c 0.52782,0.004 1.04209,0.13708 1.54305,0.39895 0.84656,0.44019 1.41555,1.12174 1.70688,2.04432 0.15647,0.49552 0.20121,0.98984 0.13435,1.48363 -0.0729,0.47462 -0.27397,0.98242 -0.60306,1.5229 l -0.86815,-0.47542 c 0.52837,-0.73888 0.67474,-1.48194 0.43873,-2.22933 -0.2118,-0.67072 -0.62116,-1.16029 -1.22732,-1.46864 -0.59796,-0.31095 -1.23897,-0.35876 -1.92339,-0.14263 -0.70636,0.22305 -1.20809,0.6602 -1.50535,1.31104 -0.27477,0.60761 -0.32501,1.18796 -0.15036,1.74098 0.14867,0.47087 0.44093,0.84349 0.87694,1.11827 0.43873,0.27391 0.88817,0.3627 1.34823,0.26562 l -0.49919,-1.5813 0.89969,-0.28422 0.82733,2.62 -0.20979,0.0661 c -0.47636,0.15042 -0.91546,0.2274 -1.31776,0.23099 -0.37404,-0.002 -0.75025,-0.0862 -1.1281,-0.25321 -0.84836,-0.3794 -1.41573,-1.0238 -1.70273,-1.9327 -0.28009,-0.887 -0.19957,-1.74758 0.24133,-2.58227 0.44365,-0.83556 1.11572,-1.39559 2.01641,-1.68 0.3737,-0.11801 0.74113,-0.17584 1.10226,-0.17312 z m -61.387461,9.9596 -0.03567,1.2268 -2.775532,1.81953 -0.0053,0.18087 2.720764,0.0791 -0.02945,1.00252 -6.646096,-0.19275 0.0341,-1.17512 c 0.0254,-0.87812 0.209021,-1.50756 0.55036,-1.88826 0.379809,-0.4198 0.871167,-0.62108 1.473809,-0.60358 0.47064,0.0137 0.871167,0.16071 1.201975,0.44028 0.330676,0.27948 0.537157,0.64127 0.619099,1.08573 z m 66.119481,1.30483 0.0481,3.32021 -0.94308,0.0134 -0.0331,-2.31665 -1.59784,0.0233 0.0325,2.23449 -0.94308,0.0139 -0.0326,-2.23501 -3.16465,0.0455 -0.0146,-1.00304 z m -70.911456,0.12144 c -0.639074,0.009 -0.971364,0.46186 -0.997346,1.35702 l -0.01032,0.35709 2.109417,0.0615 0.0093,-0.31884 c 0.02749,-0.94988 -0.321468,-1.43516 -1.047485,-1.45624 -0.02143,-5.3e-4 -0.04244,-7.9e-4 -0.06305,-5.3e-4 z m 4.734613,4.21525 0.530702,3.63078 -6.579421,0.96119 -0.530727,-3.63027 0.933264,-0.13643 0.385525,2.63757 1.580779,-0.231 -0.374147,-2.56108 0.933291,-0.13643 0.374121,2.56109 2.198846,-0.32143 -0.385524,-2.63757 z m 59.492493,0.24184 6.57531,0.98754 -0.17467,1.1622 c -0.13047,0.86875 -0.38809,1.47211 -0.77256,1.8092 -0.42736,0.37129 -0.93914,0.51172 -1.53532,0.42219 -0.46564,-0.0699 -0.84609,-0.26311 -1.14102,-0.58033 -0.29496,-0.31718 -0.45617,-0.7016 -0.48419,-1.1529 l -3.10782,1.61489 0.1824,-1.21388 2.97347,-1.47381 0.0269,-0.1788 -2.69184,-0.40411 z m 3.40701,1.52601 -0.0475,0.31522 c -0.14113,0.93974 0.14724,1.46362 0.86556,1.57149 0.67283,0.10104 1.07815,-0.30539 1.21544,-1.21957 l 0.0532,-0.35347 z m -4.61418,1.66398 c -0.0196,0.0962 -0.0383,0.19214 -0.0589,0.28835 0.0206,-0.0961 0.0393,-0.19223 0.0589,-0.28835 z m -0.28165,1.2485 c -0.0246,0.099 -0.0517,0.19729 -0.0775,0.29611 0.0257,-0.0987 0.0528,-0.19722 0.0775,-0.29611 z m -0.28059,1.03663 c -0.0292,0.10144 -0.058,0.20273 -0.0884,0.30386 0.0303,-0.10108 0.0592,-0.20247 0.0884,-0.30386 z m -60.77148,0.25942 c 0.316125,0.002 0.611691,0.0866 0.886778,0.2527 0.463259,0.27983 0.800497,0.74919 1.01129,1.40818 l 0.141605,0.44287 2.571936,-0.82269 0.305408,0.95601 -6.332961,2.02572 -0.346233,-1.08314 c -0.169678,-0.53049 -0.260589,-0.94281 -0.273368,-1.23714 -0.01349,-0.29704 0.0485,-0.58234 0.187087,-0.85576 0.23913,-0.47739 0.629549,-0.80246 1.170993,-0.97565 0.235479,-0.0753 0.461169,-0.11255 0.677465,-0.1111 z m 63.73048,0.0259 c 0.41378,0.005 0.83822,0.0904 1.27331,0.25735 0.87381,0.33523 1.50111,0.94343 1.88256,1.82469 0.38251,0.87856 0.40187,1.76556 0.0584,2.66082 -0.33933,0.88454 -0.94631,1.52161 -1.82157,1.91151 -0.8763,0.39258 -1.75811,0.41897 -2.64534,0.0786 -0.89257,-0.34243 -1.52767,-0.95232 -1.90478,-1.82883 -0.37878,-0.88022 -0.39407,-1.77292 -0.0465,-2.6789 0.30748,-0.80145 0.86077,-1.41513 1.66037,-1.8402 0.49683,-0.26257 1.01158,-0.39083 1.54358,-0.38499 z m -58.42434,0.33693 c 0.07009,0.22481 0.144012,0.44826 0.21963,0.67128 -0.07583,-0.22289 -0.149278,-0.44661 -0.21963,-0.67128 z m -5.341805,0.61133 c -0.112739,0.002 -0.232516,0.0231 -0.359146,0.0636 -0.653521,0.20906 -0.835236,0.76614 -0.545703,1.67122 l 0.10078,0.31626 1.993662,-0.63769 -0.114194,-0.35708 c -0.228151,-0.71317 -0.58674,-1.06518 -1.075399,-1.05627 z m 60.411305,0.0388 c -0.0177,0.0527 -0.0372,0.10456 -0.0553,0.15709 0.0183,-0.0525 0.0375,-0.10443 0.0553,-0.15709 z m 3.31039,0.0233 c -0.34782,-0.002 -0.68599,0.0746 -1.01492,0.22944 -0.61812,0.28867 -1.04243,0.73335 -1.2728,1.33377 -0.24987,0.65134 -0.23564,1.28699 0.0429,1.90738 0.28392,0.62245 0.75313,1.05909 1.40716,1.30999 0.66206,0.254 1.30196,0.24573 1.91926,-0.0248 0.61896,-0.26684 1.05235,-0.72437 1.30122,-1.37304 0.24783,-0.64598 0.23214,-1.27778 -0.0476,-1.89549 -0.27424,-0.61565 -0.73813,-1.04927 -1.39215,-1.30018 -0.32166,-0.12341 -0.6362,-0.18553 -0.94311,-0.18707 z m -58.103427,0.16846 c 0.09115,0.26336 0.18579,0.52547 0.284744,0.786 -0.09898,-0.2606 -0.193331,-0.52265 -0.284744,-0.786 z m 54.434927,0.79944 c -0.0336,0.0883 -0.0673,0.17628 -0.10181,0.26406 0.0344,-0.0877 0.0682,-0.17584 0.10181,-0.26406 z m -53.911952,0.58704 c 0.02593,0.0633 0.05175,0.12653 0.07803,0.18965 -0.02619,-0.0631 -0.05223,-0.12634 -0.07803,-0.18965 z m 0.271304,0.64285 c 0.0254,0.0584 0.05061,0.11695 0.07646,0.17519 -0.02593,-0.0582 -0.05101,-0.11677 -0.07646,-0.17519 z m 52.829828,0.69815 c -0.0381,0.0825 -0.0789,0.16385 -0.11782,0.24598 0.039,-0.0822 0.0797,-0.1634 0.11782,-0.24598 z m -52.492405,0.0506 c 0.138959,0.29548 0.284268,0.58788 0.43307,0.8785 -0.148775,-0.29066 -0.294164,-0.58297 -0.43307,-0.8785 z m 52.159115,0.64337 c -0.0535,0.10783 -0.10944,0.21433 -0.16434,0.32143 0.0549,-0.10701 0.11078,-0.21369 0.16434,-0.32143 z m -54.800794,0.0496 c 0.305011,0.003 0.615368,0.0502 0.930698,0.14056 0.921147,0.26395 1.622399,0.81727 2.103729,1.65984 0.42582,0.74535 0.550174,1.5619 0.373115,2.44998 -0.197697,0.97925 -0.759301,1.73303 -1.684152,2.26136 -0.812668,0.46427 -1.680792,0.56536 -2.604479,0.30283 -0.922258,-0.26002 -1.620864,-0.80656 -2.096506,-1.63918 -0.469979,-0.82263 -0.578802,-1.69612 -0.326601,-2.62051 0.250825,-0.92687 0.788776,-1.62564 1.613852,-2.09703 0.544751,-0.31122 1.108049,-0.46409 1.690344,-0.45785 z m 3.16775,0.36432 c 0.148246,0.28464 0.299852,0.56737 0.457332,0.84697 -0.157506,-0.27961 -0.309139,-0.56229 -0.457332,-0.84697 z m 51.286274,0.25993 c -0.07,0.13177 -0.1424,0.26213 -0.21444,0.39274 0.0721,-0.13058 0.14441,-0.26099 0.21444,-0.39274 z m -54.417856,0.36948 c -0.422142,0.003 -0.832776,0.11874 -1.231979,0.34675 -0.615659,0.35177 -1.014465,0.85207 -1.195784,1.5012 -0.185262,0.64808 -0.105384,1.27415 0.239262,1.87741 0.343218,0.60077 0.842407,0.98816 1.497595,1.16272 0.650187,0.17739 1.279498,0.0922 1.887723,-0.25528 0.638175,-0.36458 1.040288,-0.87828 1.206658,-1.54203 0.167826,-0.66123 0.09221,-1.27146 -0.226853,-1.82986 -0.346075,-0.60575 -0.847196,-0.99704 -1.503786,-1.17409 -0.227463,-0.0599 -0.451723,-0.0886 -0.672836,-0.0868 z m 3.592539,0.2248 c 0,0 0,0 0,0 0.427488,0.34154 0.811107,0.7659 1.284155,1.03818 3.338672,2.4175 7.038684,4.09938 10.715096,5.91643 11.418386,4.44323 25.003626,3.38314 35.323436,-3.34553 0.54832,-0.36096 1.08336,-0.74106 1.6092,-1.13378 -3.82223,5.40169 -9.50886,9.48158 -15.91064,11.22619 -5.93559,1.68002 -12.400733,1.3312 -18.152404,-0.86817 -3.937397,-1.50913 -7.538085,-3.88797 -10.463954,-6.92361 -1.714632,-1.77129 -3.195716,-3.76374 -4.405418,-5.90971 z m 50.471337,0.0501 c -0.0907,0.16056 -0.18362,0.31982 -0.2775,0.47853 0.094,-0.15867 0.18664,-0.31801 0.2775,-0.47853 z m -0.36328,0.62374 c -0.10747,0.17921 -0.21727,0.35706 -0.32866,0.53381 0.11149,-0.17671 0.22108,-0.35466 0.32866,-0.53381 z m 0.89607,0.12402 5.7645,4.14703 -6.94997,0.97359 3.75068,2.69854 -0.58549,0.81442 -5.72627,-4.11912 6.93912,-0.98134 -3.77857,-2.7187 z m -1.27381,0.48679 c -0.12298,0.19374 -0.24807,0.38602 -0.37571,0.57671 0.12766,-0.19064 0.25265,-0.38304 0.37571,-0.57671 z m -0.38449,0.58963 c -0.13518,0.20177 -0.27263,0.40171 -0.41289,0.59996 0.14021,-0.19817 0.27771,-0.39831 0.41289,-0.59996 z m -47.99706,1.95854 1.93167,2.24069 -5.035365,4.34185 -0.655267,-0.76016 4.321201,-3.72587 -1.276932,-1.48053 z m 2.826173,3.22771 2.778125,2.39727 -4.343929,5.03382 -2.778125,-2.39729 0.616505,-0.71365 2.017978,1.7415 1.04386,-1.20975 -1.959583,-1.69086 0.616003,-0.71416 1.959557,1.69085 1.451583,-1.68207 -2.01795,-1.74149 z m 41.626917,0.15089 3.8897,4.17443 1.11826,-1.04232 0.64339,0.6904 -2.96778,2.76522 -0.64339,-0.68989 1.1157,-1.03922 -3.8902,-4.17442 z m -2.57143,2.2655 3.72949,5.50511 -3.03805,2.05774 -0.52864,-0.78084 2.20657,-1.49497 -0.89606,-1.32292 -2.14252,1.45158 -0.52916,-0.78083 2.14304,-1.4516 -1.24645,-1.83968 -2.20657,1.495 -0.52917,-0.78032 z m -32.834683,1.62884 -1.074341,7.64502 -0.949298,-0.5519 0.727604,-4.90772 -3.928957,3.0453 -0.948769,-0.55243 z m 28.661303,1.15032 2.6846,6.57428 -6.40686,-2.8634 1.74667,4.27779 -0.92863,0.3793 -2.667,-6.53034 6.40217,2.8515 -1.75958,-4.30983 z m -25.830447,0.90743 3.45612,1.23199 -2.232422,6.26316 -3.45612,-1.23195 0.31676,-0.88831 2.510975,0.89503 0.53639,-1.50535 -2.438083,-0.86868 0.316759,-0.88831 2.438109,0.86868 0.745675,-2.09288 -2.510446,-0.89506 z m 18.845877,1.6795 1.02576,6.56964 -1.37872,0.21547 c -0.6609,0.10319 -1.19298,0.11928 -1.59628,0.0486 -0.43125,-0.0634 -0.83807,-0.22236 -1.2206,-0.47646 -0.77449,-0.51253 -1.24011,-1.27193 -1.39732,-2.27894 -0.15767,-1.00981 0.0676,-1.88206 0.67643,-2.61636 0.30586,-0.3674 0.64381,-0.64264 1.01338,-0.82528 0.34404,-0.17865 0.84908,-0.31967 1.51567,-0.42374 z m -11.537821,0.44027 c 0.305515,-0.003 0.666411,0.0298 1.083151,0.0941 l 1.36218,0.20982 -1.01285,6.57116 -1.378717,-0.21238 c -0.661141,-0.10189 -1.173427,-0.2476 -1.536356,-0.4372 -0.391742,-0.19108 -0.731467,-0.46569 -1.019043,-0.8237 -0.582798,-0.72308 -0.796555,-1.58792 -0.641323,-2.59519 0.155707,-1.01013 0.63492,-1.77289 1.43764,-2.28825 0.402801,-0.25744 0.807905,-0.41746 1.215442,-0.47956 0.143246,-0.0249 0.3066,-0.0377 0.489876,-0.0388 z m 10.691861,0.64648 -0.44648,0.0698 c -0.44535,0.0695 -0.80843,0.17399 -1.08881,0.31367 -0.27951,0.14533 -0.52144,0.34459 -0.72607,0.59737 -0.41836,0.52152 -0.57182,1.13943 -0.46043,1.85415 0.1125,0.72051 0.44466,1.26733 0.99684,1.64023 0.49644,0.33219 1.1675,0.4322 2.01279,0.30023 l 0.44649,-0.0697 z m -10.516151,0.30697 c -0.161422,0 -0.309509,0.009 -0.444923,0.0299 -0.310409,0.0538 -0.601768,0.16989 -0.873337,0.34883 -0.556683,0.37026 -0.889741,0.91329 -0.99994,1.62833 -0.111072,0.72069 0.0399,1.34236 0.453205,1.86499 0.372454,0.46699 0.981208,0.76526 1.826763,0.89556 l 0.446987,0.0692 0.725536,-4.7072 -0.44698,-0.0692 c -0.25059,-0.0386 -0.479745,-0.0588 -0.687311,-0.0605 z" />
  </g>
</svg>
