<?xml version="1.0" encoding="UTF-8" standalone="no"?>
<!-- Created with Inkscape (http://www.inkscape.org/) -->

<svg
   id="svg5"
   version="1.1"
   viewBox="0 0 142.18911 249.2315"
   height="249.23151mm"
   width="142.18907mm"
   sodipodi:docname="oscar-dfp-3.svg"
   inkscape:export-filename="/Users/oscarlundberg/Documents/Inkscape/Lek/oscar-dfp/oscar-dfp-exp-3.png"
   inkscape:export-xdpi="96"
   inkscape:export-ydpi="96"
   inkscape:version="1.1 (c4e8f9e, 2021-05-24)"
   xmlns:inkscape="http://www.inkscape.org/namespaces/inkscape"
   xmlns:sodipodi="http://sodipodi.sourceforge.net/DTD/sodipodi-0.dtd"
   xmlns:xlink="http://www.w3.org/1999/xlink"
   xmlns="http://www.w3.org/2000/svg"
   xmlns:svg="http://www.w3.org/2000/svg">
  <sodipodi:namedview
     id="namedview89"
     pagecolor="#ffffff"
     bordercolor="#666666"
     borderopacity="1.0"
     inkscape:pageshadow="2"
     inkscape:pageopacity="0.0"
     inkscape:pagecheckerboard="0"
     inkscape:document-units="mm"
     showgrid="false"
     inkscape:zoom="0.78082401"
     inkscape:cx="87.727835"
     inkscape:cy="524.44596"
     inkscape:window-width="2560"
     inkscape:window-height="1387"
     inkscape:window-x="0"
     inkscape:window-y="25"
     inkscape:window-maximized="1"
     inkscape:current-layer="layer8" />
  <defs
     id="defs2">
    <linearGradient
       id="linearGradient11101">
      <stop
         style="stop-color:#26ffff;stop-opacity:0"
         offset="0"
         id="stop11095" />
      <stop
         style="stop-color:#fcf7dd;stop-opacity:1"
         offset="0.53655648"
         id="stop11097" />
      <stop
         style="stop-color:#0087b9;stop-opacity:1"
         offset="1"
         id="stop11099" />
    </linearGradient>
    <linearGradient
       id="linearGradient6804">
      <stop
         style="stop-color:#f2f2f2;stop-opacity:1;"
         offset="0"
         id="stop6800" />
      <stop
         style="stop-color:#f2f2f2;stop-opacity:1"
         offset="0.6761089"
         id="stop7320" />
      <stop
         style="stop-color:#832622;stop-opacity:1"
         offset="1"
         id="stop6802" />
    </linearGradient>
    <linearGradient
       id="linearGradient6333">
      <stop
         style="stop-color:#26ffff;stop-opacity:0"
         offset="0"
         id="stop6327" />
      <stop
         style="stop-color:#fcf7dd;stop-opacity:1"
         offset="0.52912134"
         id="stop6329" />
      <stop
         style="stop-color:#0087b9;stop-opacity:1"
         offset="1"
         id="stop6331" />
    </linearGradient>
    <linearGradient
       id="linearGradient4457">
      <stop
         style="stop-color:#26ffff;stop-opacity:0"
         offset="0"
         id="stop4453" />
      <stop
         style="stop-color:#fcf7dd;stop-opacity:1"
         offset="0.53655648"
         id="stop5456" />
      <stop
         style="stop-color:#005a7c;stop-opacity:0.76104426"
         offset="1"
         id="stop4455" />
    </linearGradient>
    <radialGradient
       xlink:href="#linearGradient11101"
       id="radialGradient4459"
       cx="46.060242"
       cy="-4.7868667"
       fx="46.060242"
       fy="-4.7868667"
       r="4.5856886"
       gradientTransform="matrix(1,0,0,0.62286797,0,-1.8052807)"
       gradientUnits="userSpaceOnUse" />
    <radialGradient
       xlink:href="#linearGradient4457"
       id="radialGradient4459-0"
       cx="46.060242"
       cy="-4.7868667"
       fx="46.060242"
       fy="-4.7868667"
       r="4.5856886"
       gradientTransform="matrix(1,0,0,0.62286797,0,-1.8052807)"
       gradientUnits="userSpaceOnUse" />
    <radialGradient
       xlink:href="#linearGradient6333"
       id="radialGradient6133"
       gradientUnits="userSpaceOnUse"
       gradientTransform="matrix(0.9512275,0.21913179,-0.13991272,0.60734599,-2.3713606,-0.73633698)"
       cx="-6.1303964"
       cy="-15.18765"
       fx="-6.1303964"
       fy="-15.18765"
       r="4.5856886" />
    <radialGradient
       xlink:href="#linearGradient6804"
       id="radialGradient6806"
       cx="44.046772"
       cy="-4.5603895"
       fx="44.046772"
       fy="-4.5603895"
       r="11.387922"
       gradientTransform="matrix(1.0195615,0.16908682,-0.15356301,0.92595567,-1.5932812,-7.6785878)"
       gradientUnits="userSpaceOnUse" />
    <radialGradient
       xlink:href="#linearGradient6804"
       id="radialGradient6806-2"
       cx="44.046772"
       cy="-4.5603895"
       fx="44.046772"
       fy="-4.5603895"
       r="11.387922"
       gradientTransform="matrix(1.0211711,0.15907712,-0.18018058,1.1566413,-1.7855667,-6.1856763)"
       gradientUnits="userSpaceOnUse" />
    <radialGradient
       xlink:href="#linearGradient6804"
       id="radialGradient7968"
       gradientUnits="userSpaceOnUse"
       gradientTransform="matrix(0.92854712,0.20429889,-0.18426863,0.83750868,-2.0866812,-7.1585443)"
       cx="-3.4970677"
       cy="-3.5176733"
       fx="-3.4970677"
       fy="-3.5176733"
       r="11.387922" />
    <radialGradient
       xlink:href="#linearGradient6804"
       id="radialGradient6806-0"
       cx="44.046772"
       cy="-4.5603895"
       fx="44.046772"
       fy="-4.5603895"
       r="11.387922"
       gradientTransform="matrix(1.0195615,0.16908682,-0.15356301,0.92595567,-1.5932812,-7.6785878)"
       gradientUnits="userSpaceOnUse" />
    <radialGradient
       xlink:href="#linearGradient11101"
       id="radialGradient4459-3"
       cx="46.060242"
       cy="-4.7868667"
       fx="46.060242"
       fy="-4.7868667"
       r="4.5856886"
       gradientTransform="matrix(1,0,0,0.62286797,0,-1.8052807)"
       gradientUnits="userSpaceOnUse" />
    <radialGradient
       xlink:href="#linearGradient6804"
       id="radialGradient7968-4"
       gradientUnits="userSpaceOnUse"
       gradientTransform="matrix(0.92854712,0.20429889,-0.18426863,0.83750868,-2.0866812,-7.1585443)"
       cx="-3.4970677"
       cy="-3.5176733"
       fx="-3.4970677"
       fy="-3.5176733"
       r="11.387922" />
    <radialGradient
       xlink:href="#linearGradient6333"
       id="radialGradient6133-1"
       gradientUnits="userSpaceOnUse"
       gradientTransform="matrix(0.9512275,0.21913179,-0.13991272,0.60734599,-2.3713606,-0.73633698)"
       cx="-6.1303964"
       cy="-15.18765"
       fx="-6.1303964"
       fy="-15.18765"
       r="4.5856886" />
  </defs>
  <g
     id="layer3"
     style="display:inline"
     transform="translate(48.505752,103.97765)" />
  <g
     inkscape:groupmode="layer"
     id="layer4"
     inkscape:label="vitt"
     style="display:none">
    <rect
       style="fill:#ffffff;stroke-width:0.465;stroke-linecap:round;stroke-linejoin:round;paint-order:stroke fill markers;stop-color:#000000"
       id="rect928"
       width="163.50737"
       height="275.67456"
       x="-14.509186"
       y="-13.393095"
       inkscape:export-filename="/Users/oscarlundberg/Documents/Inkscape/Lek/oscar-dfp/rect928.png"
       inkscape:export-xdpi="96"
       inkscape:export-ydpi="96" />
  </g>
  <g
     inkscape:groupmode="layer"
     id="layer8"
     inkscape:label="huvudet">
    <g
       id="layer10"
       style="display:inline"
       transform="translate(48.505752,103.97765)">
      <path
         id="path67699"
         style="fill:#fbcfc1;fill-opacity:1;stroke:#000000;stroke-width:2;stroke-linecap:butt;stroke-linejoin:miter;stroke-miterlimit:4;stroke-dasharray:none;stroke-opacity:1;paint-order:stroke fill markers"
         d="m 52.659598,67.699852 -5.646656,5.067897 -12.161463,7.965425 -15.856647,5.357271 -19.69281201,-1.450616 -13.90146499,-8.106408 -11.94628,-15.711956 -1.31706,0.378423 c -0.01444,0.185736 -0.676964,8.71594 -1.472879,14.287308 -0.804646,5.632476 -2.277956,15.422573 -2.277956,15.422573 0,0 -2.700771,18.735341 -3.060771,19.455381 -0.360045,0.71998 -2.140684,8.64435 -2.140684,8.64435 0,0 11.225048,15.60104 19.559253,19.52957 12.3829822,5.83702 27.602756,7.28338 40.880766,3.95118 13.894794,-3.48697 20.168558,-3.86135 35.753511,-23.84434 0,0 -3.23971,-13.5904 -3.509691,-17.01047 -0.27,-3.420048 -1.164946,-11.527027 -1.164946,-11.527046 0,1.9e-5 -0.935501,-8.985056 -0.842176,-12.729092 0.260466,-1.469404 0.36226,-7.564366 1.261384,-8.651746 -0.82098,-0.342557 -1.642309,-0.685158 -2.463428,-1.027704 z" />
      <path
         id="path106605"
         style="fill:#f8d0c4;fill-opacity:1;stroke:#000000;stroke-width:2;stroke-linecap:butt;stroke-linejoin:miter;stroke-miterlimit:4;stroke-dasharray:none;stroke-opacity:1;paint-order:stroke fill markers"
         d="m 20.11897,-102.97614 c -1.776409,0.0362 -4.898667,0.66538 -5.516807,0.81991 -0.70659,0.17662 -5.9174897,2.737999 -5.9174897,2.737999 0,0 -4.5050803,0.178822 -5.5650386,0.267122 -1.0598862,0.08831 -4.857533,0.881121 -5.9174894,2.029385 -1.0598862,1.148262 1.1501064,2.474586 1.1501083,2.474586 0,0 -1.7681764,6.99e-4 -2.0330948,0.530534 -0.265133,0.529979 0.6195745,1.851302 0.6195745,1.851302 0,0 -4.5956995,1.857217 -5.3906673,2.122135 -0.7949678,0.264989 -2.294962,0.970521 -3.00141,1.235439 -0.706662,0.264915 -0.971003,-0.08905 -1.765971,-0.08905 -0.794968,0 -3.534149,0.88666 -3.799066,1.328189 -0.26499,0.44153 0.882985,0.704906 0.882985,0.704906 0,0 -6.007964,1.414952 -6.626105,2.033094 -0.618356,0.618281 -1.146396,2.296505 -1.146396,2.296505 -2e-6,0 -1.501055,1.410508 -1.765973,1.940343 -0.264989,0.529907 0.175802,0.971005 0.793946,1.765972 0.618284,0.794968 1.413518,0.972028 1.413518,0.972026 0,0 -0.795414,1.239112 -0.972025,1.680642 -0.176619,0.441601 0.531303,1.322238 0.178081,1.498851 -0.353296,0.176618 -2.652633,2.916043 -3.094162,3.357572 -0.441672,0.441672 -4.767381,5.034503 -4.767381,5.034503 0,0 0.969894,1.680606 0.704903,2.122136 -0.264979,0.441671 -2.470768,0.971257 -2.912369,1.324477 -0.441636,0.353296 -2.122869,3.177951 -2.211175,3.884397 -0.08831,0.70659 -0.26481,3.620948 -0.441493,4.062478 -0.176618,0.441601 0.178081,2.384778 0.178081,2.737998 0,0.353296 -1.500984,2.386246 -1.765971,2.916081 -0.265011,0.529977 0.881587,2.294962 0.704904,3.00141 -0.176657,0.706662 -2.294193,3.623152 -2.470876,4.3296 -0.176619,0.70659 0.08763,4.328647 -0.08903,5.123543 -0.176656,0.794968 -1.591601,4.5032 -1.591601,4.856424 0,0.353296 0.356162,7.067597 0.356162,7.067597 0,0 -0.706301,1.588589 -0.882984,2.118426 -0.176695,0.529975 -0.267122,3.09156 -0.267122,4.151516 0,1.059959 0.353186,2.739434 0.441493,3.357573 0.08831,0.618285 -0.174377,5.123545 -0.174377,5.123545 0,0 -1.67807,-0.617369 -2.738,-0.352452 -1.059935,0.264918 -1.415651,2.6480074 -1.68064,3.442903 -0.264991,0.7949678 -0.442228,3.356032 -0.530534,4.0624777 -0.08833,0.7065902 0.885853,4.1536858 1.239149,4.8601334 0.353309,0.7066624 1.324478,5.1235436 1.324478,5.1235436 0,0 -0.177341,4.5907363 -0.08903,5.2088763 0.08831,0.618285 0.175763,0.971003 0.352452,1.765973 0.176619,0.794894 -0.09275,8.073978 -0.09275,8.744528 0,0.670478 0.804526,2.146054 0.938637,2.682347 0.134107,0.536442 0.804526,3.888595 0.938635,4.693184 0.134107,0.804659 3.22074,5.49895 4.025378,5.364695 0.804639,-0.134107 1.072197,-1.877273 1.072197,-1.877273 0,0 0.671404,6.168274 1.610151,9.252804 0.938756,3.084457 1.740319,5.766013 3.483715,9.252803 1.743393,3.486788 4.830451,9.119241 4.830451,9.119241 0,0 0.598926,0.706108 1.232967,1.939817 l 4.633052,7.053572 c 0,0 4.441213,6.995635 8.384221,10.42105 3.9430086,3.425415 9.3811291,5.530543 14.08588835,6.967399 4.70475925,1.436856 7.62991765,1.56325 9.53703365,1.679284 1.907115,0.116034 10.234214,-0.315692 15.197705,-1.561928 3.781144,-0.949372 10.666361,-4.447344 10.666361,-4.447344 l 12.642471,-8.851474 4.2636,-3.621242 2.06797,-1.973476 c 0.242419,-0.225057 2.783733,-2.346109 3.405754,-2.96813 0.655187,-0.655186 2.809675,-4.586209 3.465166,-5.335014 0.655187,-0.748804 3.088584,-5.897729 3.275935,-6.459153 0.187294,-0.56164 1.179799,-4.912074 1.179799,-4.912074 0,0 0.355384,0.751622 0.708621,0.972027 0.353142,0.220693 4.463048,1.393093 5.327582,0.960896 0.864534,-0.432267 4.106467,-4.428754 5.079028,-5.509386 0.972656,-1.080707 4.106087,-5.080084 4.322178,-5.62069 0.21611,-0.540388 0.325561,-2.808389 0.541671,-3.672923 0.216091,-0.864536 1.404287,-4.324801 1.836449,-5.405508 0.432277,-1.080631 2.330119,-3.302775 2.756564,-4.014247 0.42673,-0.711257 2.134619,-4.836386 2.418923,-5.832159 0.28417,-0.995703 0.141895,-3.415246 0.853308,-3.984568 0.711185,-0.56896 1.42351,-3.128531 1.565633,-4.266528 C 91.73109,11.55701 90.87818,9.9932553 90.308852,9.2817833 89.739904,8.570526 86.943868,7.3711192 86.943868,7.3711192 c 0,0 1.32348,-3.3582696 2.118416,-3.8881063 0.794973,-0.5299773 -0.264909,-5.4744538 0,-6.1809014 0.264947,-0.7065902 0.531299,-0.9734593 0.61959,-1.5916015 0.08833,-0.6182809 -0.08833,-1.6783646 0,-2.2965049 0.08833,-0.6182846 1.057356,-3.8870841 1.057356,-4.6820521 0,-0.794968 -0.08529,-3.531655 -0.08529,-4.414929 0,-0.883275 2.029384,-9.09974 2.029384,-9.894638 0,-0.794968 -0.705676,-2.559628 -0.793928,-3.442903 -0.08833,-0.883273 0.53052,-4.594193 0.53052,-5.654077 0,-1.059959 -0.531242,-2.650392 -0.61957,-3.268532 -0.08833,-0.618285 0.35544,-3.797526 0.267112,-4.503971 -0.08833,-0.70659 -1.857249,-1.414218 -1.680631,-1.944054 0.176657,-0.529978 -0.529779,-2.648669 -0.882979,-3.531944 -0.353313,-0.883274 -1.765217,-4.326587 -2.118435,-4.856422 -0.353313,-0.529979 -3.357576,-3.79903 -2.916087,-4.240559 0.44168,-0.441529 2.033108,-0.267122 2.033108,-0.267122 0,0 -1.23614,-1.589001 -1.765976,-2.648957 -0.529951,-1.059886 -2.563629,-0.793946 -2.563629,-0.793946 0,0 -0.353161,-1.412749 -0.882979,-1.765973 -0.529912,-0.353439 -3.442903,0.530534 -3.442903,0.530534 0,0 0.263408,-1.943838 0.263408,-2.827039 0,-0.883273 -0.176656,-2.651645 -0.441489,-3.446613 -0.265004,-0.79504 -0.707842,-0.79244 -1.061079,-1.057358 -0.353218,-0.264989 -6.84e-4,-0.796632 -0.08909,-1.5916 -0.08833,-0.794967 -0.617311,-0.795416 -1.235437,-0.972027 -0.618355,-0.176675 -0.794689,-3.354561 -0.882998,-3.884396 -0.08833,-0.529907 -4.591988,-5.742831 -5.386943,-6.626105 -0.794973,-0.883275 -10.688557,-5.211814 -11.130084,-5.565038 -0.44168,-0.353294 -2.031551,-2.913802 -2.738006,-3.531944 -0.706645,-0.618285 -2.38399,-1.326683 -3.090445,-1.5916 -0.706588,-0.26499 -4.327446,-2.73723 -6.358983,-3.09045 -2.031537,-0.353441 -7.334719,-0.793946 -7.334719,-0.793946 -2e-6,0 -4.592725,-2.297975 -5.475998,-2.474588 -0.883274,-0.176676 -3.797827,-1.060116 -5.475998,-1.855016 -1.678239,-0.79496 -5.120835,-1.50032 -6.622395,-1.67693 -0.187693,-0.0221 -0.414032,-0.0311 -0.667803,-0.026 z" />
    </g>
    <g
       id="layer5"
       style="display:inline"
       transform="translate(48.505752,103.97765)">
      <path
         id="path1621-1"
         style="fill:url(#radialGradient6806-0);fill-opacity:1;stroke:none;stroke-width:2.1538;stroke-linecap:round;stroke-linejoin:round;stroke-miterlimit:4;stroke-dasharray:none;stroke-opacity:0.993333;paint-order:fill markers stroke"
         d="m 43.656048,-7.6403421 c -0.98918,0.02137 -1.939621,0.1612893 -2.93463,0.2856708 -2.653353,0.3316717 -4.864567,1.8809839 -5.527937,1.8809839 -0.663336,0 -2.982861,1.2168882 -2.982861,1.2168882 0,0 2.208963,0.1112937 2.982861,0.1112937 0.773896,0 1.768963,0.3309309 2.763968,0.4414913 0.995014,0.1105718 0.776161,0.1105528 1.992283,0.5527944 1.216123,0.4422683 3.537926,0.8844643 6.080732,1.1055871 2.542798,0.2211246 5.086465,0.1090901 6.192031,-0.2226006 1.105568,-0.331685 2.76397,-0.2188927 2.76397,-0.2188927 0,0 -1.990879,-1.6606457 -5.639238,-3.6506647 -2.28023,-1.2437609 -4.042546,-1.5381866 -5.691179,-1.502559 z" />
      <path
         id="path1621-5-3"
         style="fill:url(#radialGradient4459-3);fill-opacity:1;stroke:none;stroke-width:0.64659;stroke-linecap:round;stroke-linejoin:round;stroke-miterlimit:4;stroke-dasharray:none;stroke-opacity:0.993333;paint-order:fill markers stroke"
         d="m 43.656048,-7.6403421 c -0.514734,0.011207 -1.019867,0.054877 -1.524822,0.1112936 a 4.5855713,4.5855713 0 0 0 -0.656674,2.3558653 4.5855713,4.5855713 0 0 0 0.823626,2.6192773 c 1.093447,0.2091157 2.38142,0.3908022 3.732286,0.5082732 1.13658,0.098833 2.271431,0.1314096 3.279661,0.1075895 a 4.5855713,4.5855713 0 0 0 1.335609,-3.2351419 4.5855713,4.5855713 0 0 0 -0.0038,-0.2337318 c -0.405698,-0.237132 -0.835988,-0.4806141 -1.294797,-0.7308757 -2.28023,-1.2437609 -4.042546,-1.5381866 -5.691179,-1.502559 z" />
      <path
         id="path1621-5-3-5"
         style="fill:#4d4d4d;fill-opacity:1;stroke:none;stroke-width:0.348365;stroke-linecap:round;stroke-linejoin:round;stroke-miterlimit:4;stroke-dasharray:none;stroke-opacity:0.993333;paint-order:fill markers stroke"
         d="m 45.362658,-7.5401721 a 2.4705818,2.4705818 0 0 0 -1.77339,2.3669965 2.4705818,2.4705818 0 0 0 2.470876,2.4708762 2.4705818,2.4705818 0 0 0 2.470876,-2.4708762 2.4705818,2.4705818 0 0 0 -0.645544,-1.6658011 c -0.911959,-0.3741756 -1.742353,-0.5891154 -2.522818,-0.7011954 z" />
      <path
         style="display:inline;fill:#f9f9f9;fill-opacity:0.833333;stroke:none;stroke-width:1.89953px;stroke-linecap:butt;stroke-linejoin:miter;stroke-opacity:1"
         d="m 47.120988,-5.1752562 c 0.0359,0.5347889 0.392135,1.2121306 0.712979,1.3190812 0.320845,0.1069721 0.926925,0.2139442 1.176478,-0.1069722 0.249554,-0.3208445 0.356526,-0.7486684 0.285235,-1.2121305 -0.07108,-0.4634262 -0.07108,-0.9269242 -0.392135,-1.0338748 -0.320844,-0.1069721 -1.033875,-0.071075 -1.247783,0.1425817 -0.213872,0.2139442 -0.392135,0.2139442 -0.534789,0.8912716 z"
         id="path5129-7" />
      <path
         style="display:inline;fill:#ffffff;fill-opacity:0.371486;stroke:none;stroke-width:1.89953px;stroke-linecap:butt;stroke-linejoin:miter;stroke-opacity:1"
         d="m 43.484596,-4.9970004 c 0,0 -0.570398,0.463498 -0.463498,0.855619 0.106972,0.3921354 0.499107,1.033882 0.784314,1.0695274 0.285235,0.035897 0.998229,-0.071076 1.10518,-0.5347888 0.106972,-0.463498 0.106972,-0.9269242 0.0359,-1.1408326 -0.07108,-0.2138724 -0.67737,-0.3921353 -0.67737,-0.3921353 0,0 0.463426,-0.178263 0.570398,-0.4278167 0.106972,-0.2495538 0.285235,-0.5703983 0.142582,-0.855619 -0.142582,-0.2852351 -0.320845,-0.6416892 -0.713052,-0.7130518 -0.392135,-0.071075 -0.926924,-0.071075 -1.176478,0.1425816 -0.249553,0.2138725 -0.463498,0.6416892 -0.392135,0.9269171 0.07108,0.285235 0.142582,0.6416891 0.320844,0.7486684 0.178263,0.1069721 0.463427,0.3208446 0.463427,0.3208446 z"
         id="path5197-5" />
      <path
         id="path1621"
         style="font-variation-settings:normal;opacity:1;vector-effect:none;fill:url(#radialGradient7968-4);fill-opacity:1;stroke:none;stroke-width:2.1538;stroke-linecap:round;stroke-linejoin:round;stroke-miterlimit:4;stroke-dasharray:none;stroke-dashoffset:0;stroke-opacity:0.993333;-inkscape-stroke:none;paint-order:fill markers stroke;stop-color:#000000;stop-opacity:1"
         d="m -7.0525766,-13.609772 c -0.4532932,4.02e-4 -0.9234332,0.02532 -1.4209399,0.06679 -2.6533605,0.221123 -5.6392385,1.877273 -5.6392385,1.877273 0,0 4.3133152,2.5450905 6.3033342,3.0978698 1.990019,0.5528096 3.9786457,0.7716852 4.7525419,0.7716852 0.7738963,0 1.9908188,-0.2188907 2.87526976,-0.2188907 0.884451,0 5.63552844,0.1075895 5.63552844,0.1075895 0,0 -4.0877549,-3.0949278 -6.7411155,-4.3110488 -2.1558558,-0.988101 -3.8011115,-1.393013 -5.7653804,-1.39126 z" />
      <path
         id="path1621-5"
         style="font-variation-settings:normal;opacity:1;vector-effect:none;fill:url(#radialGradient6133-1);fill-opacity:1;stroke:none;stroke-width:0.64659;stroke-linecap:round;stroke-linejoin:round;stroke-miterlimit:4;stroke-dasharray:none;stroke-dashoffset:0;stroke-opacity:0.993333;-inkscape-stroke:none;paint-order:fill markers stroke;stop-color:#000000;stop-opacity:1"
         d="m -7.0525766,-13.609772 c -0.4532932,4.02e-4 -0.9234332,0.02532 -1.4209399,0.06679 -0.6406972,0.0534 -1.3002454,0.189878 -1.9329225,0.367292 a 4.5855713,4.5855713 0 0 0 -0.230022,1.42465 4.5855713,4.5855713 0 0 0 0.604735,2.2779556 c 0.8291536,0.3978287 1.6297307,0.7406431 2.2223052,0.9052452 1.579302,0.4387161 3.1541021,0.6658414 4.1255479,0.7420069 a 4.5855713,4.5855713 0 0 0 2.2185955,-3.9252077 4.5855713,4.5855713 0 0 0 -0.037098,-0.563924 c -2.0520578,-0.917792 -3.651341,-1.296492 -5.5501976,-1.294798 z" />
      <path
         id="path1621-5-4"
         style="fill:#4d4d4d;fill-opacity:1;stroke:none;stroke-width:0.348239;stroke-linecap:round;stroke-linejoin:round;stroke-miterlimit:4;stroke-dasharray:none;stroke-opacity:0.993333;paint-order:fill markers stroke"
         d="m -7.0525766,-13.609772 c -0.2098376,1.86e-4 -0.4236946,0.0055 -0.6418332,0.01482 a 2.4696919,2.4696919 0 0 0 -0.8273358,1.843882 2.4696919,2.4696919 0 0 0 2.4671664,2.4708766 2.4696919,2.4696919 0 0 0 2.4708763,-2.4708766 2.4696919,2.4696919 0 0 0 -0.5008536,-1.495139 c -0.9822086,-0.25208 -1.9299881,-0.364509 -2.9680201,-0.363582 z" />
      <path
         style="display:inline;fill:#f9f9f9;fill-opacity:0.833333;stroke:none;stroke-width:1.89953px;stroke-linecap:butt;stroke-linejoin:miter;stroke-opacity:1"
         d="m -4.9091388,-11.694963 c 0.035897,0.534789 0.3921354,1.212131 0.7129799,1.319081 0.3208446,0.106972 0.9269242,0.213945 1.176478,-0.106972 0.2495537,-0.320844 0.3565258,-0.748668 0.285235,-1.21213 -0.071075,-0.463427 -0.071075,-0.926924 -0.3921354,-1.033875 -0.3208445,-0.106972 -1.0338747,-0.07108 -1.2477831,0.142582 -0.2138724,0.213944 -0.3921354,0.213944 -0.5347888,0.891271 z"
         id="path5129" />
      <path
         id="path5197"
         style="display:inline;fill:#ffffff;fill-opacity:0.371486;stroke:none;stroke-width:1.89953px;stroke-linecap:butt;stroke-linejoin:miter;stroke-opacity:1"
         d="m -7.5831105,-13.598643 c -0.2883718,0.01026 -0.5837473,0.03009 -0.890406,0.05566 -0.1608144,0.01349 -0.3235056,0.02866 -0.4860126,0.05193 -0.00125,0.0011 -0.00247,0.0025 -0.0038,0.0038 -0.237681,0.220627 -0.4360644,0.626667 -0.3672937,0.901535 0.07108,0.285236 0.1445164,0.642447 0.3227724,0.749425 0.1782712,0.106962 0.4637539,0.319062 0.4637539,0.319062 0,0 -0.5706539,0.464896 -0.4637539,0.857016 0.1069627,0.392136 0.4976092,1.0328429 0.7828165,1.0684876 0.2852339,0.035901 0.9986357,-0.07053 1.105587,-0.5342436 0.1069817,-0.463497 0.1081784,-0.928779 0.037098,-1.142687 -0.071081,-0.213874 -0.6789348,-0.389554 -0.6789348,-0.389554 0,0 0.4643731,-0.180817 0.5713452,-0.430362 0.1069817,-0.249555 0.2836345,-0.568086 0.1409834,-0.853306 -0.1191957,-0.238439 -0.2610547,-0.52684 -0.5342436,-0.656675 z" />
      <path
         style="fill:none;stroke:none;stroke-width:0.379907;stroke-linecap:butt;stroke-linejoin:miter;stroke-miterlimit:4;stroke-dasharray:none;stroke-opacity:1"
         d="m 5.4556124,-7.9061036 c 0,0 -4.0905923,-3.0955864 -6.7439532,-4.3117084 -2.6533608,-1.216123 -4.5328179,-1.547794 -7.1861788,-1.326684 -2.6533604,0.221123 -5.6383854,1.879464 -5.6383854,1.879464 0,0 4.3117086,2.5428062 6.3017274,3.0955864 1.9900189,0.5528089 3.9800378,0.7738966 4.7539344,0.7738966 0.7738966,0 1.9900188,-0.2211236 2.87447007,-0.2211236 0.88445123,0 5.63838553,0.1105618 5.63838553,0.110569 z"
         id="path3564" />
      <path
         style="fill:#3e3e3e;fill-opacity:1;stroke:none;stroke-width:1.89953px;stroke-linecap:butt;stroke-linejoin:miter;stroke-opacity:1"
         d="m -14.111728,-11.590175 c -0.0514,-0.07311 0.687264,-0.77648 2.194134,-1.464691 1.516931,-0.692807 3.8009888,-1.301199 6.4737137,-0.94565 0,0 8e-7,0 8e-7,0 0.5594861,0.07528 1.1242587,0.186871 1.6918156,0.336238 2.85653232,0.751768 5.1464631,2.304227 6.6122595,3.607987 1.4705296,1.3112225 2.547287,2.1254196 2.4754439,2.1972633 C 5.2637965,-7.7871839 4.1971343,-8.354586 2.529071,-9.6589485 1.0219847,-10.832592 -1.2140101,-12.257505 -3.9339518,-12.973 c -0.5404345,-0.142165 -1.0765352,-0.25043 -1.6070923,-0.326164 0,0 -8e-7,0 -8e-7,0 -2.5111993,-0.362611 -4.6915751,0.12386 -6.1988021,0.676046 -1.49654,0.548271 -2.320482,1.106055 -2.371881,1.032943 z"
         id="path77390" />
      <path
         style="fill:none;stroke:none;stroke-width:0.379907;stroke-linecap:butt;stroke-linejoin:miter;stroke-miterlimit:4;stroke-dasharray:none;stroke-opacity:1"
         d="m 32.210309,-4.2577369 c 0,0 2.32169,-1.2161222 2.985025,-1.2161222 0.66337,0 2.874477,-1.5477933 5.527831,-1.8794643 2.65336,-0.3316854 4.97505,-0.7738966 8.623417,1.2161223 3.64836,1.9900188 5.638386,3.6483667 5.638386,3.6483667 0,0 -1.658348,-0.1105618 -2.763916,0.2211235 -1.105568,0.3316854 -3.648367,0.4422472 -6.191166,0.2211236 C 43.48708,-2.2677109 41.16539,-2.7098862 39.949268,-3.1521549 38.733146,-3.5944021 38.954262,-3.5944021 37.959249,-3.7049638 36.964243,-3.8155256 35.96923,-4.147211 35.195334,-4.147211 c -0.773897,0 -2.985025,-0.1105618 -2.985025,-0.1105618 z"
         id="path3496" />
      <path
         style="fill:#3e3e3e;fill-opacity:1;stroke:none;stroke-width:1.89953px;stroke-linecap:butt;stroke-linejoin:miter;stroke-opacity:1"
         d="m 54.800846,-2.6484096 c -0.06004,0.078612 -1.161052,-0.7121081 -3.048776,-1.7819857 -1.867943,-1.0586665 -4.601451,-2.4016316 -7.795125,-2.9213729 -0.184357,-0.030002 -0.368246,-0.056963 -0.551684,-0.080899 -1.483523,-0.214888 -3.237399,0.417726 -4.583596,0.7404183 -0.990599,0.2411945 -2.009655,0.6382337 -2.779523,0.9341236 -10e-7,10e-8 -10e-7,2e-7 -10e-7,3e-7 -0.582245,0.2233664 -1.392561,0.6028792 -1.787228,0.7763015 -0.942607,0.4290513 -1.652806,0.5449304 -1.652803,0.4775406 3e-6,-0.06739 0.485442,-0.2639137 1.487963,-0.8072735 0.419048,-0.2363206 1.104949,-0.628882 1.753017,-0.9222142 0,0 0,-3e-7 0,-3e-7 0.762152,-0.345519 1.766981,-0.7875703 2.816671,-1.0789624 1.292238,-0.365689 3.090988,-1.037182 4.838336,-0.8299037 0.191169,0.02505 0.382707,0.053418 0.57459,0.08512 3.33521,0.5510266 6.090727,1.9916847 7.943501,3.1919304 1.852775,1.2002456 2.8447,2.1385646 2.784658,2.217177 z"
         id="path77402" />
    </g>
    <g
       id="layer7"
       transform="translate(48.505752,103.97765)">
      <path
         style="fill:#2c2929;fill-opacity:1;stroke:#000000;stroke-width:0.313423;stroke-linecap:butt;stroke-linejoin:miter;stroke-miterlimit:4;stroke-dasharray:none;stroke-opacity:1"
         d="m -13.342613,35.746103 c 0,0 4.4023986,-1.238177 6.4660272,-1.306963 2.0636214,-0.06892 5.36542,0.206334 5.7781457,0.343962 0.41274006,0.137556 10.93721,3.852102 12.2441721,4.058465 1.306963,0.206334 13.482343,-0.756666 15.477179,-0.550296 1.994836,0.206334 7.772989,1.238177 9.011159,1.857266 1.238177,0.619074 5.296635,3.095435 5.296635,3.095435 0,0 -5.36542,3.301799 -10.93721,4.264821 -5.571783,0.963029 -12.794469,1.650903 -17.609593,0.963029 C 7.5687785,47.78397 -1.7175287,44.344572 -3.5747873,43.38155 -5.432053,42.418521 -8.7338516,40.286107 -9.8344511,39.391871 -10.935051,38.497634 -13.342613,35.746139 -13.342613,35.746139 Z"
         id="path15046-5" />
      <path
         id="path17895"
         style="fill:#f9f9f9;stroke:none;stroke-width:1.89953px;stroke-linecap:butt;stroke-linejoin:miter;stroke-opacity:1"
         d="m -2.5789639,34.595298 -4.1218382,2.845588 c 0,0 -0.5708704,1.054689 -0.6010236,2.378128 -0.016526,0.727418 0.3296962,1.341683 0.6455448,1.751132 0.2672833,0.16902 0.5338486,0.333242 0.8013655,0.497142 0.2043137,-0.02642 0.4685141,-0.06544 0.7494246,-0.115017 0.5113124,-0.09025 0.6307038,-0.211471 0.6307038,-0.211471 0,0 0.1508989,0.483205 0.2411514,0.693775 0.090228,0.210569 1.1127064,0.63165 1.4135203,0.571344 0.3007416,-0.06016 0.4823028,-0.452623 0.4823028,-0.452623 0,0 0.361576,0.662489 0.5119848,0.782815 0.1503861,0.120259 0.93542501,0.458475 1.55449986,0.389552 0.61911665,-0.06884 0.82362606,-0.895327 0.82362606,-0.345031 0,0.550295 0.75563228,1.720023 1.30592888,1.51369 0.5503022,-0.206363 0.6203589,-0.616649 1.1018772,-1.098167 0.4815107,-0.481526 1.65096,-1.101877 1.65096,-1.101877 l -0.2003399,3.706313 c 1.2523183,0.4079 2.5339559,0.799162 3.7582542,1.135269 0.5115404,-0.03727 0.9439653,-0.07522 1.0499383,-0.09646 0.3439617,-0.06878 0.3450312,-0.894116 0.3450312,-0.894116 0,0 2.8215109,1.170228 3.6469549,1.239149 0.825452,0.06863 2.957675,0.34225 3.439194,-0.07049 0.481518,-0.412726 0.137279,-2.682349 0.137279,-2.682349 0,0 0.911259,1.058004 1.194627,1.435781 0.283354,0.377775 1.415479,0.662113 2.029383,0.567634 0.613928,-0.09445 1.984864,-1.087039 1.984864,-1.087039 0,0 -0.04889,0.425498 0.09275,1.417231 0.06586,0.461047 0.406571,0.827647 0.753137,1.090747 1.318608,-0.120791 2.633746,-0.275008 3.910365,-0.448914 0.879835,-0.268665 1.62856,-0.508682 1.710322,-0.578763 0.105253,-0.09023 0.217747,-0.316377 0.304222,-0.519403 -0.0152,0.06612 -0.0268,0.140015 -0.03339,0.218891 -0.03007,0.360905 2.166352,0.177986 2.467166,-0.09275 0.300801,-0.270705 0.628698,-0.839138 0.779105,-1.35045 0.150405,-0.511362 0.303751,-1.206462 0.333904,-0.875565 0.02475,0.272248 0.359277,1.519273 0.497142,2.025673 0.867948,-0.259395 1.704618,-0.553165 2.493137,-0.860726 0.02209,-0.321836 0.107589,-1.562459 0.107589,-2.066485 0,-0.484037 -0.228694,-3.066079 -0.307931,-3.962306 C 33.231204,39.32543 28.411035,38.475459 26.62265,38.290479 24.627814,38.08411 12.451388,39.049606 11.144424,38.843273 9.8374618,38.63691 -0.68591798,34.922062 -1.098658,34.784505 -1.2543817,34.732575 -1.8223933,34.660523 -2.5789582,34.595293 Z" />
      <path
         id="path15401"
         style="fill:#823837;fill-opacity:1;stroke:none;stroke-width:1.89953px;stroke-linecap:butt;stroke-linejoin:miter;stroke-opacity:1"
         d="m -6.3743199,34.428346 -0.5008536,3.379834 c 0.8254515,-0.687745 1.3070002,-0.204694 1.6509619,0.07049 0.3439332,0.27515 0.823626,1.513691 0.823626,1.513691 l 0.2077614,-2.270535 c 0,0 0.2736144,-0.549369 0.6863544,-0.411813 0.4127192,0.137583 0.8941159,1.443199 0.8941159,1.443199 0,0 0.070207,-1.23765 0.2077614,-1.925502 0.1018529,-0.509314 0.8056792,-1.168178 1.1649474,-1.47659 -0.6914129,-0.131847 -3.2401453,-0.338563 -5.1346748,-0.322775 z m 5.642948,0.482303 c 0.19348832,0.233861 0.44578807,0.571815 0.66409568,0.972027 0.41266782,0.756666 0.48372935,2.819433 0.6900642,2.062775 C 0.76679157,37.417431 1.572393,36.433275 2.0511474,35.878967 0.6027859,35.37711 -0.34463081,35.044859 -0.7313719,34.910649 Z m 4.700603,1.628702 c 0.093476,0.442239 0.1960413,0.928062 0.2300202,1.131557 0.068782,0.412598 0.5501541,0.482303 0.8941177,0.482303 0.282168,0 0.7496658,-0.508203 1.2502782,-0.805075 C 5.5549213,37.082782 4.7610571,36.810989 3.9692311,36.539351 Z m 21.4699149,1.725161 c -0.536366,0.0063 -1.198812,0.02944 -1.936633,0.05936 -0.370646,1.155729 -1.283668,5.8841 -1.283668,5.8841 0,0 0.552151,-1.584366 0.827336,-2.341024 0.23981,-0.659492 1.52409,-2.936775 2.396675,-3.602436 -0.0014,1.7e-5 -0.0023,-1.5e-5 -0.0038,0 z m 1.120428,0.02226 c 0.581527,0.350997 1.110163,1.028363 1.302219,1.172367 0.275147,0.206363 -1.997207,5.434687 -1.44691,4.815614 0.550304,-0.619083 3.026738,-2.062775 3.301922,-2.062775 0.275041,0 -0.06679,1.58047 -0.06679,1.58047 0,0 0.961967,-0.960896 1.305929,-0.960896 0.343933,0 1.169728,1.51369 1.51369,1.51369 0.343941,0 1.582968,-1.721451 2.133265,-1.721451 h 0.756844 l 0.08162,-2.559917 c -1.551453,-0.624289 -6.912049,-1.576179 -8.818724,-1.773395 -0.01824,-0.0019 -0.04312,-0.0021 -0.06306,-0.0038 z" />
      <path
         style="fill:none;stroke:#000000;stroke-width:0.313423;stroke-linecap:butt;stroke-linejoin:miter;stroke-miterlimit:4;stroke-dasharray:none;stroke-opacity:1"
         d="m -13.342613,35.746103 c 0,0 4.4023986,-1.238177 6.4660272,-1.306963 2.0636214,-0.06892 5.36542,0.206334 5.7781457,0.343962 0.41274006,0.137556 10.93721,3.852102 12.2441721,4.058465 1.306963,0.206334 13.482343,-0.756666 15.477179,-0.550296 1.994836,0.206334 7.772989,1.238177 9.011159,1.857266 1.238177,0.619074 5.296635,3.095435 5.296635,3.095435 0,0 -5.36542,3.301799 -10.93721,4.264821 -5.571783,0.963029 -12.794469,1.650903 -17.609593,0.963029 C 7.5687785,47.78397 -1.7175287,44.344572 -3.5747873,43.38155 -5.432053,42.418521 -8.7338516,40.286107 -9.8344511,39.391871 -10.935051,38.497634 -13.342613,35.746139 -13.342613,35.746139 Z"
         id="path15046" />
      <path
         id="path19759"
         style="fill:#bc6c5d;fill-opacity:1;stroke:none;stroke-width:1.89953px;stroke-linecap:butt;stroke-linejoin:miter;stroke-opacity:1"
         d="m -1.4845063,33.57133 c -1.1713659,0 -6.7364293,0.218891 -7.7613716,0.218893 -1.0249521,0 -6.1485051,0.07444 -6.2217131,0.367292 -0.071,0.283929 2.294577,1.847398 2.441196,1.944052 -0.163189,-0.18359 -0.315351,-0.356162 -0.315351,-0.356162 0,0 4.4029447,-1.237143 6.4665725,-1.305929 2.0636221,-0.06891 5.363785,0.207404 5.7765098,0.345033 0.41274002,0.137564 10.9361198,3.852405 12.2430817,4.058768 1.306964,0.206333 13.48339,-0.759164 15.478226,-0.552795 1.994836,0.206335 7.773481,1.239636 9.011652,1.858724 1.238176,0.619073 5.297915,3.09416 5.297915,3.09416 0,0 -0.143985,0.08483 -0.356163,0.207762 l 0.0371,0.0038 c 0,0 1.973735,-0.878538 1.973735,-1.098168 0,-0.219616 -7.320627,-3.293763 -8.199155,-3.513393 -0.878523,-0.219616 -7.760143,-1.535951 -8.492248,-1.535951 -0.732099,0 -13.76297,-1.53966 -14.495069,-1.53966 -0.732105,0 -7.099018,-1.392246 -8.0507542,-1.46546 -0.9517363,-0.07323 -3.66279705,-0.730875 -4.834163,-0.730875 z" />
      <path
         id="path21380"
         style="display:inline;fill:#eab7b1;fill-opacity:1;stroke:none;stroke-width:1.89953px;stroke-linecap:butt;stroke-linejoin:miter;stroke-opacity:1"
         d="m -14.888826,34.773382 c 0,0 0.124992,0.25063 1.261409,1.892107 1.136403,1.641462 3.254731,3.666544 4.5967214,5.008535 1.3419903,1.34199 4.3624307,6.374863 6.0399187,7.716854 1.6774951,1.34199 4.1957193,2.681267 7.3829501,3.687767 3.1872235,1.006507 7.3805158,1.345149 10.2322498,1.680639 2.851726,0.335491 5.200618,0.167207 7.716853,-0.671483 2.516229,-0.838741 7.211731,-3.690395 8.889219,-4.696895 1.677487,-1.006492 5.356058,-3.152547 7.186315,-4.177491 1.830257,-1.024951 3.658087,-2.489428 3.658087,-2.489428 0,0 -0.775031,0.381941 -1.153813,0.571332 -0.06748,0.03374 -0.148325,0.06318 -0.230025,0.09276 -0.001,5.89e-4 -0.0027,0.003 -0.0038,0.0038 -1.108756,0.648222 -5.821445,3.276254 -10.692294,4.118132 -5.571783,0.963029 -12.796364,1.648764 -17.611488,0.96089 -4.8151241,-0.687852 -14.0995575,-4.127128 -15.956816,-5.09015 -1.8572658,-0.963029 -5.1619289,-3.094043 -6.2625213,-3.98828 -0.9082287,-0.737928 -2.6305517,-2.657754 -3.2314337,-3.335311 z" />
    </g>
    <g
       id="layer9"
       style="display:inline"
       transform="translate(48.505752,103.97765)">
      <ellipse
         style="opacity:1;fill:#2c2929;fill-opacity:1;stroke:none;stroke-width:0.394638;stroke-linecap:round;stroke-linejoin:round;stroke-miterlimit:4;stroke-dasharray:none;stroke-opacity:0.993333;paint-order:fill markers stroke"
         id="path25848"
         transform="rotate(-57.425945)"
         ry="3.2978683"
         rx="1.3446739"
         cy="14.205139"
         cx="-15.204511" />
      <ellipse
         style="fill:#2c2929;fill-opacity:1;stroke:none;stroke-width:0.338746;stroke-linecap:round;stroke-linejoin:round;stroke-miterlimit:4;stroke-dasharray:none;stroke-opacity:0.993333;paint-order:fill markers stroke"
         id="path25848-5"
         transform="matrix(0.01448484,-0.99989509,0.99996801,0.0079986,0,0)"
         ry="3.2837896"
         rx="0.99500406"
         cy="25.598104"
         cx="-22.812948" />
      <path
         style="fill:#f3c6b4;fill-opacity:1;stroke:none;stroke-width:1.89953px;stroke-linecap:butt;stroke-linejoin:miter;stroke-opacity:1"
         d="m 31.415398,-2.4442938 c 0.792226,0.099003 3.763071,0.2970809 4.35724,0.5941619 0.594162,0.297081 1.782501,1.2873628 2.17862,1.58445094 0.396084,0.29708096 4.654314,1.98055646 5.248491,2.27764466 0.594162,0.2970809 1.980556,0.693165 2.772782,0.7922254 0.792225,0.099003 3.961127,-0.2970809 4.951409,-0.2970809 0.990282,0 2.871806,0.099003 3.664046,0 0.792218,-0.099003 2.376677,-0.8912501 2.475701,-1.2873628 0.09893,-0.39608404 -0.693165,1.8815319 -0.891264,2.475701 -0.198006,0.5941619 -0.396084,2.17862 -0.792219,2.9708455 -0.396084,0.7922255 -0.594161,1.3863946 -1.485419,1.8815319 -0.891257,0.4951589 -9.308649,1.3863946 -12.972688,0 C 37.258058,7.1614292 33.29693,4.2896155 32.801793,3.3983654 32.306634,2.5071082 29.929979,0.03140718 30.029004,-0.76081829 c 0.099,-0.79222551 0.594162,-1.58445091 1.386394,-1.68347551 z"
         id="path32205" />
      <path
         style="fill:#e3bcab;fill-opacity:1;stroke:none;stroke-width:1.89953px;stroke-linecap:butt;stroke-linejoin:miter;stroke-opacity:1"
         d="m 5.1623365,-12.391229 c 0.520502,-2.255425 1.5614412,-3.122897 1.5614412,-3.122897 0,0 -0.1735246,-1.561441 -1.0409608,-2.775905 -0.8674721,-1.214457 -7.2867541,-4.337353 -7.2867541,-4.337353 0,0 7.2867541,-1.040961 8.8482025,-1.040961 1.5614411,0 3.1228897,0.346977 4.1638577,1.734944 1.040961,1.387953 2.428913,4.337346 2.602409,5.378314 0.173524,1.040961 1.561448,3.990362 1.040961,4.857834 -0.520502,0.867465 -2.949394,2.9494009 -2.949394,3.6433699 0,0.6939547 0.346977,2.775905 0.346977,2.775905 0,0 -3.6433768,-0.1735246 -4.5108417,-0.5205019 C 7.0707622,-6.1454574 7.0707622,-9.2683613 7.0707622,-9.2683613 L 5.1623294,-10.656314 Z"
         id="path36459" />
      <path
         style="fill:#f3c6b4;fill-opacity:1;stroke:none;stroke-width:1.89953px;stroke-linecap:butt;stroke-linejoin:miter;stroke-opacity:1"
         d="m 5.1729476,-6.2073648 c -0.7922255,0.099003 -2.4757082,0.693165 -3.3669583,0.7922255 -0.8912572,0.099003 -9.1105857,0.099003 -10.1998993,0.1980779 -1.0893064,0.099003 -4.258208,0.6931649 -5.842659,0.099003 -1.584451,-0.5941619 -3.763064,-2.8718209 -4.258209,-2.9708455 -0.495158,-0.099003 -1.089306,-0.099003 -1.188338,0.297081 -0.099,0.396084 1.28737,3.1689019 1.683483,3.9611273 0.396084,0.7922255 3.06987,3.2679265 4.654321,3.96112737 1.584444,0.69316498 6.535853,0.89125003 7.6251594,0.89125003 1.0893136,0 6.13974737,-0.49515883 6.53586011,-0.89125003 C 1.2117915,-0.26565225 1.5088725,-1.7511073 2.0040457,-1.9491637 c 0.4951589,-0.1980779 3.5650146,-0.89125 4.060152,-1.2873628 0.4951588,-0.396084 0.5941619,-1.5844509 0.2970809,-2.17862 C 6.0641977,-6.0093084 5.8661197,-6.207372 5.1729404,-6.207372 Z"
         id="path32207" />
      <path
         style="fill:#e4bdad;fill-opacity:1;stroke:none;stroke-width:1.89953px;stroke-linecap:butt;stroke-linejoin:miter;stroke-opacity:1"
         d="m 28.410537,-2.3285773 c -0.520502,-2.6024091 -0.693955,-6.0722903 -0.173524,-7.4602428 0.520501,-1.3879529 2.775905,-4.1638579 3.816872,-4.1638579 1.040961,0 3.64337,3.816873 2.949394,4.5108424 -0.693955,0.6939547 -2.255417,2.2554246 -2.775905,2.9494009 -0.520502,0.6939547 -0.520502,1.0409679 -1.387952,2.2554246 -0.867472,1.2144566 -1.214457,2.0819287 -2.428914,1.9084328 z"
         id="path42110" />
    </g>
    <g
       id="layer1">
      <path
         style="display:inline;fill:#602c2f;fill-opacity:1;stroke:none;stroke-width:1.89953px;stroke-linecap:butt;stroke-linejoin:miter;stroke-opacity:1"
         d="m 131.77098,116.40056 c 0,0 4.56867,-0.59588 4.96593,-0.19865 0.39731,0.39731 1.39048,2.28433 0.99319,2.97956 -0.39723,0.69525 -1.78772,0.89387 -1.88705,1.39046 -0.0994,0.4966 0.29794,3.27752 0.19865,3.77411 -0.0994,0.4966 -0.59588,1.5891 -1.09249,1.68842 -0.4966,0.0994 -0.79456,-0.89387 -0.69525,-1.78774 0.0994,-0.89387 0.39724,-5.46252 0.19865,-6.05844 -0.19865,-0.59588 -1.09251,-1.39045 -1.09251,-1.39045 z"
         id="path45309" />
      <path
         style="display:inline;fill:#8f352c;fill-opacity:1;stroke:none;stroke-width:1.89953px;stroke-linecap:butt;stroke-linejoin:miter;stroke-opacity:1"
         d="m 8.317869,101.50276 c 0,0 -0.397305,-1.39046 -0.893871,-1.986374 -0.496595,-0.595885 -2.18501,-1.787734 -2.880242,-1.787734 -0.695247,0 -0.595885,0 -1.19182,0.695247 -0.595885,0.695247 -1.092509,1.291147 -0.99319,1.986381 0.09929,0.69525 1.191827,2.28433 1.191827,2.88024 0,0.59589 0.297943,5.36321 0.297943,5.36321 0,0 0.297942,-2.58229 0.496595,-3.07888 0.198652,-0.4966 0.695247,-0.79455 0.695247,-1.39047 0,-0.59588 -0.09929,-1.48977 0.198652,-2.18501 0.297942,-0.69524 0.794551,-1.98637 1.291139,-2.085687 0.496595,-0.09929 1.787741,1.589097 1.787741,1.589097 z"
         id="path57116" />
      <path
         style="display:inline;fill:#d8a68f;fill-opacity:1;stroke:none;stroke-width:1.89953px;stroke-linecap:butt;stroke-linejoin:miter;stroke-opacity:1"
         d="m 8.715144,121.46582 c 0,0 -0.794551,-2.68161 -0.496594,-3.87344 0.297942,-1.19182 2.284328,-3.67478 2.482966,-4.07206 0.198652,-0.3973 0.297943,-3.67479 0.297943,-3.67479 L 10.304212,98.125928 9.807617,97.927276 c 0,0 -0.09936,8.144124 -0.09936,8.839354 0,0.69525 0.198652,0.99319 -0.297943,1.48979 -0.496594,0.49659 -1.986371,-0.19865 -2.780923,0.3973 -0.794544,0.59589 -1.986372,1.88705 -2.085691,2.78093 -0.09936,0.89386 1.589103,5.46252 1.589103,6.45571 0,0.99318 -0.496594,3.37683 0.09936,3.87343 0.595885,0.49659 1.986372,0.49659 2.482967,-0.29794 z"
         id="path59799" />
      <path
         style="display:inline;fill:#d8a68f;fill-opacity:1;stroke:none;stroke-width:1.89953px;stroke-linecap:butt;stroke-linejoin:miter;stroke-opacity:1"
         d="m 126.20914,120.17467 c 0,0 0,3.1782 0.69524,3.87343 0.69525,0.69525 2.48298,1.19182 2.97957,1.98637 0.49659,0.79456 1.88705,3.37684 1.78775,4.2707 -0.0994,0.89387 -1.39048,4.46935 -1.48979,5.06526 -0.0994,0.59589 -0.79455,2.97956 -1.39045,3.37683 -0.59596,0.39731 -4.46936,-1.0925 -4.96595,-0.79454 -0.4966,0.29794 -1.19183,0.59588 -1.19183,1.19182 0,0.59588 1.19183,1.5891 0.69525,2.18501 -0.4966,0.59588 -0.79454,1.09251 -1.39046,0.89387 -0.59588,-0.19865 -1.19183,-0.99319 -0.89386,-1.48978 0.29794,-0.49659 1.48978,-1.5891 1.48978,-2.0857 0,-0.49659 1.48979,-1.68841 1.78773,-2.48296 0.29794,-0.79455 0.69524,-2.08569 0.49659,-2.97956 -0.19865,-0.89387 -0.79453,-2.48297 -0.99319,-2.97956 -0.19865,-0.49659 -0.79453,-1.48978 -0.59588,-2.28433 0.19865,-0.79455 1.78773,-3.1782 2.08569,-4.56866 0.29794,-1.39046 0.19865,-2.68161 0.19865,-2.68161 z"
         id="path63377" />
      <path
         style="display:inline;fill:#7c412c;fill-opacity:1;fill-rule:nonzero;stroke:none;stroke-width:1.89953px;stroke-linecap:butt;stroke-linejoin:miter;stroke-opacity:1"
         d="m 45.34967,116.88889 c -0.07276,-0.13824 -0.589984,-0.25464 -2.039904,0.24882 -0.323364,0.11228 -0.653407,0.24469 -0.961087,0.38855 -0.196253,0.0918 -0.394797,0.18954 -0.589979,0.29175 -0.247073,0.12937 -0.494688,0.26894 -0.726928,0.41461 -0.223676,0.14029 -0.448298,0.29571 -0.648602,0.4621 -0.349713,0.28372 -0.707374,0.64242 -1.065058,1.04257 -0.341619,0.38217 -0.68305,0.80201 -1.012517,1.22564 -0.08998,0.11569 -0.178713,0.23121 -0.26578,0.3456 -0.216232,0.28409 -0.417973,0.56635 -0.594182,0.81956 -0.11759,0.16898 -0.23351,0.33909 -0.324467,0.47469 -0.08749,0.13042 -0.173826,0.26133 -0.219036,0.33966 -0.08579,0.11468 -0.218119,0.26859 -0.380041,0.44584 -0.159447,0.17454 -0.349658,0.37403 -0.561831,0.59095 -0.414582,0.42386 -0.899462,0.90061 -1.405902,1.39351 -0.479356,0.46654 -0.966289,0.93579 -1.37603,1.33897 -0.19744,0.19427 -0.377629,0.37398 -0.527533,0.52843 -0.07378,0.076 -0.140692,0.1464 -0.199398,0.21012 8e-6,0 -0.0089,0.01 -0.0089,0.01 -0.05355,0.0583 -0.1012,0.11256 -0.141593,0.16211 -0.07063,0.0893 -0.16044,0.19768 -0.271312,0.32903 -0.106308,0.12595 -0.22448,0.26422 -0.360595,0.42398 -0.251304,0.29497 -0.557722,0.6561 -0.857339,1.02729 -0.287467,0.35614 -0.578172,0.73318 -0.81761,1.0843 -0.117713,0.17262 -0.224674,0.34136 -0.313404,0.50015 -0.08762,0.15682 -0.161347,0.31078 -0.209141,0.45389 -0.04279,0.12811 -0.08461,0.27643 -0.124879,0.43542 -0.04063,0.16043 -0.08033,0.33436 -0.118369,0.5133 -0.07753,0.36471 -0.14921,0.75539 -0.208597,1.10391 -0.13534,0.79425 -0.199514,1.30765 -0.190807,1.31031 a 0.03851069,0.00369462 88.317715 0 0 -0.0026,0.0398 c 0.0062,0.1918 0.01617,0.36918 0.03147,0.52781 0.06853,0.71045 0.224904,1.39761 0.269885,1.67713 0.04498,-0.27952 0.201355,-0.96668 0.269886,-1.67713 0.01428,-0.14807 0.02389,-0.31247 0.03017,-0.48969 0.01412,-0.0337 0.0826,-0.55607 0.201612,-1.28667 0.05612,-0.34451 0.122698,-0.72689 0.194992,-1.08135 0.03543,-0.17374 0.07205,-0.33984 0.109253,-0.49074 0.03709,-0.15048 0.07406,-0.28297 0.110119,-0.39144 0.03099,-0.0933 0.0854,-0.21025 0.163678,-0.34835 0.07794,-0.1375 0.175584,-0.28903 0.28828,-0.44975 0.229601,-0.32746 0.514619,-0.68311 0.806565,-1.02221 0.305169,-0.35446 0.615546,-0.68828 0.884959,-0.9611 0.142279,-0.14408 0.273413,-0.27145 0.388741,-0.37827 0.121488,-0.11253 0.225489,-0.20232 0.308228,-0.2665 0.03528,-0.026 0.08345,-0.062 0.140181,-0.10364 -1.4e-5,10e-6 0.0094,-0.007 0.0094,-0.007 0.0629,-0.046 0.135241,-0.0981 0.217875,-0.15662 0.168265,-0.1192 0.369535,-0.25844 0.595857,-0.41224 0.470558,-0.31975 1.024743,-0.68567 1.586867,-1.04807 0.589467,-0.38004 1.168133,-0.74367 1.675117,-1.0526 0.261255,-0.1592 0.499011,-0.30116 0.709214,-0.42355 0.218482,-0.12721 0.392275,-0.22465 0.544016,-0.30657 0.187007,-0.11217 0.369553,-0.24477 0.544453,-0.38753 0.17922,-0.14629 0.357367,-0.30896 0.531303,-0.48137 0.254719,-0.25248 0.5058,-0.53121 0.743131,-0.81898 0.09537,-0.11563 0.189558,-0.23236 0.281939,-0.34877 0.332831,-0.41937 0.657412,-0.85399 0.931575,-1.22539 0.201328,-0.27274 0.530051,-0.72231 0.731379,-0.99505 0.07656,-0.11184 0.19313,-0.24944 0.336361,-0.40104 0.14659,-0.15516 0.316884,-0.32069 0.497974,-0.48915 0.142178,-0.13226 0.291099,-0.26642 0.440524,-0.39892 0.228909,-0.20297 0.487172,-0.43828 0.720297,-0.65816 1.080282,-1.01892 1.317831,-1.43135 1.228141,-1.60176 z"
         id="path28780" />
      <path
         style="display:inline;fill:#7c412c;fill-opacity:1;fill-rule:nonzero;stroke:none;stroke-width:1.89953px;stroke-linecap:butt;stroke-linejoin:miter;stroke-opacity:1"
         d="m 93.858468,152.01052 c 0.02035,0.009 0.349933,-0.5539 1.168909,-2.26842 0.270763,-0.56684 0.56987,-1.21095 0.816337,-1.77613 0.11599,-0.26598 0.221723,-0.51773 0.305656,-0.73284 0.04118,-0.10554 0.07796,-0.20443 0.108287,-0.29282 0.02962,-0.0864 0.05523,-0.16888 0.07225,-0.24024 0.05586,-0.2153 0.138895,-0.53398 0.221635,-0.86217 0.08528,-0.33824 0.176428,-0.71064 0.260577,-1.08194 0.08706,-0.38412 0.164997,-0.75988 0.222871,-1.09918 0.02605,-0.15273 0.04796,-0.29761 0.06491,-0.43284 0.0027,-0.0219 0.0054,-0.0436 0.0079,-0.0651 0.01807,-0.15517 0.03031,-0.30448 0.03347,-0.44054 0.0062,-0.26873 -0.02232,-0.56057 -0.06679,-0.84361 -0.04401,-0.28012 -0.104666,-0.55808 -0.166545,-0.80467 -0.121136,-0.48272 -0.249049,-0.85191 -0.259224,-0.85675 a 0.12696148,0.01874019 53.05636 0 0 -0.07567,-0.13909 c -0.838854,-1.02392 -1.701432,-2.06206 -2.564905,-3.11395 -0.07184,-0.0864 -0.158777,-0.20249 -0.258453,-0.344 -0.0544,-0.0772 -0.111981,-0.16116 -0.172338,-0.25084 -0.04912,-0.073 -0.100243,-0.14998 -0.153291,-0.2307 -0.233178,-0.35482 -0.486392,-0.7552 -0.765804,-1.19409 -0.262886,-0.41293 -0.541597,-0.84823 -0.802934,-1.23582 -0.128881,-0.19115 -0.255277,-0.3733 -0.375687,-0.53851 -0.119143,-0.16346 -0.234246,-0.31284 -0.341711,-0.43926 -0.377944,-0.44328 -0.743673,-1.0181 -1.112541,-1.64711 -0.373007,-0.63606 -0.738345,-1.30686 -1.100055,-1.9038 -0.351342,-0.57873 -0.696437,-1.26197 -0.99665,-1.81453 -0.293464,-0.54013 -0.567289,-1.00399 -0.877651,-1.43268 -0.08565,-0.11831 -0.17488,-0.23475 -0.268171,-0.34876 -0.04849,-0.0533 -0.104235,-0.10905 -0.163052,-0.16466 -0.05979,-0.0565 -0.124088,-0.11415 -0.189447,-0.17056 -0.137341,-0.11852 -0.280363,-0.23256 -0.405797,-0.32706 -0.376587,-0.28372 -0.499395,-0.32758 -0.513355,-0.3116 -0.01899,0.0217 0.05354,0.12315 0.35327,0.48056 0.09752,0.11628 0.216583,0.25798 0.322668,0.3921 0.05142,0.065 0.100767,0.12943 0.145086,0.19073 0.04385,0.0607 0.08212,0.11736 0.112252,0.16767 0.07983,0.11374 0.156386,0.22938 0.230336,0.34656 0.269426,0.4269 0.50698,0.87956 0.774339,1.42537 0.269538,0.55026 0.598717,1.2621 0.947766,1.87691 0.335236,0.59086 0.683844,1.26708 1.050813,1.92427 0.358387,0.64183 0.737232,1.26846 1.146515,1.76965 0.09011,0.1107 0.191667,0.24701 0.302421,0.4042 0.111357,0.15804 0.230117,0.33449 0.353345,0.52274 0.250343,0.38244 0.519172,0.8137 0.776946,1.22998 0.272314,0.43977 0.523272,0.84809 0.755015,1.21265 0.05294,0.0833 0.104265,0.1633 0.153842,0.23968 0.06086,0.0937 0.119626,0.18292 0.175737,0.26621 0.101474,0.15062 0.197036,0.28616 0.282327,0.39611 0.815388,1.04598 1.618224,2.08827 2.412716,3.10615 0.03236,0.11817 0.115927,0.40057 0.199836,0.7376 0.05736,0.2304 0.114177,0.48246 0.158279,0.73093 0.04515,0.25437 0.07444,0.49087 0.08086,0.69198 0.0032,0.10108 4.32e-4,0.22311 -0.0078,0.36293 -0.0011,0.0192 -0.0023,0.0386 -0.0037,0.0583 -0.0082,0.1223 -0.01988,0.25651 -0.0349,0.40223 -0.03366,0.32643 -0.0816,0.68945 -0.13641,1.07622 -0.05799,0.40923 -0.09978,0.68425 -0.157771,1.09348 -0.04869,0.34657 -0.08838,0.65599 -0.108137,0.89982 -0.0023,0.0461 -0.01219,0.11135 -0.02918,0.19149 -0.01709,0.0806 -0.04086,0.17427 -0.0702,0.27826 -0.05984,0.21209 -0.141934,0.46403 -0.236353,0.73507 -0.198748,0.57053 -0.45647,1.23788 -0.684798,1.81674 -0.627193,1.59009 -0.940775,2.36711 -0.917918,2.37772 z"
         id="path28782" />
      <path
         style="display:inline;fill:#cd9d84;fill-opacity:1;stroke:none;stroke-width:1.89953px;stroke-linecap:butt;stroke-linejoin:miter;stroke-opacity:1"
         d="m 60.016495,130.74665 c 0,0 2.277645,-0.19808 2.970846,-0.39608 0.693165,-0.19808 3.664039,-1.48542 3.664039,-1.48542 0,0 -1.089307,-1.48543 -1.683476,-1.58445 -0.594162,-0.099 -0.891257,0.099 -1.386394,-0.19808 -0.495159,-0.29708 -1.782508,-3.06988 -1.782508,-3.06988 0,0 -0.495158,2.37668 -0.594161,2.87182 -0.099,0.49516 -0.297081,1.78251 -0.495159,2.27765 -0.198078,0.49516 -0.693237,1.58445 -0.693237,1.58445 z"
         id="path29327" />
      <path
         style="display:inline;fill:#7c412c;fill-opacity:0.604418;stroke:none;stroke-width:1.89953px;stroke-linecap:butt;stroke-linejoin:miter;stroke-opacity:1"
         d="m 27.11086,96.324065 c 0.0041,0.197796 -1.774711,0.395582 -3.963643,0.334992 -2.188932,-0.06059 -3.951384,-0.319091 -3.941953,-0.516704 0.0094,-0.197613 1.786409,-0.260247 3.961819,-0.19984 2.175409,0.06041 3.939686,0.183756 3.943777,0.381552 z"
         id="path36117" />
      <path
         style="display:inline;fill:#7c412c;fill-opacity:0.604418;stroke:none;stroke-width:1.89953px;stroke-linecap:butt;stroke-linejoin:miter;stroke-opacity:1"
         d="m 27.474335,95.96059 c -0.111956,0.163112 -1.42681,-0.647719 -2.650014,-2.00261 -1.223204,-1.354891 -2.193873,-2.382557 -2.075171,-2.540828 0.118702,-0.158271 1.393365,0.70856 2.609824,2.058609 1.216459,1.35005 2.227317,2.321716 2.115361,2.484829 z"
         id="path36121" />
      <path
         style="display:inline;fill:#7c412c;fill-opacity:0.604418;stroke:none;stroke-width:1.89953px;stroke-linecap:butt;stroke-linejoin:miter;stroke-opacity:1"
         d="m 27.656073,96.414934 c 0.07249,0.184079 -1.099104,0.732702 -2.383146,1.430911 -1.284043,0.698209 -1.990649,1.578707 -2.160296,1.476922 -0.220194,-0.132111 0.387095,-1.301441 1.811176,-2.106177 1.381199,-0.780503 2.659776,-0.985735 2.732266,-0.801656 z"
         id="path36125" />
      <path
         style="display:inline;fill:#7c412c;fill-opacity:0.604418;stroke:none;stroke-width:1.89953px;stroke-linecap:butt;stroke-linejoin:miter;stroke-opacity:1"
         d="m 30.348791,92.332311 c 0.0358,0.194573 -1.237273,0.544479 -2.680687,0.04915 -1.443414,-0.495326 -2.413486,-1.284067 -2.325008,-1.461018 0.08848,-0.176951 1.242778,0.310694 2.561919,0.788398 1.319141,0.477703 2.407981,0.428894 2.443776,0.623467 z"
         id="path36145" />
      <path
         style="display:inline;fill:#7c412c;fill-opacity:0.604418;stroke:none;stroke-width:1.89953px;stroke-linecap:butt;stroke-linejoin:miter;stroke-opacity:1"
         d="m 27.123495,99.393655 c 0.04816,0.191888 -1.742262,0.716185 -3.768307,1.591215 -2.026045,0.87503 -3.378548,2.01856 -3.518441,1.87867 -0.139893,-0.1399 1.11406,-1.61069 3.231841,-2.53771 2.11778,-0.927023 4.006749,-1.124062 4.054907,-0.932175 z"
         id="path36342" />
      <path
         style="display:inline;fill:#b68265;fill-opacity:1;stroke:none;stroke-width:1.89953px;stroke-linecap:butt;stroke-linejoin:miter;stroke-opacity:1"
         d="m 54.040323,98.497157 c 0.01011,0.08091 -0.953963,0.27916 -2.589163,0.340249 0,0 -1e-6,0 -1e-6,0 -1.939794,0.07104 -4.779697,0.649242 -8.130839,1.056245 0,0 -1e-6,0 -1e-6,0 -0.603091,0.07433 -1.253522,0.157349 -1.890891,0.225529 -1.57636,0.16864 -3.015554,0.23855 -4.440781,0.0687 -1.567765,-0.194689 -3.058217,-0.848425 -4.103171,-1.316981 -2.32546,-1.036967 -3.673797,-1.883303 -3.627153,-1.976592 0.04665,-0.09329 1.486172,0.587456 3.829474,1.489423 1.057902,0.404996 2.546757,0.996644 3.975192,1.135099 1.355904,0.139166 2.731392,0.05352 4.28979,-0.11416 0.638189,-0.06867 1.267964,-0.145929 1.884728,-0.215059 0,0 10e-7,0 10e-7,0 4.067811,-0.462478 5.447428,-0.885163 8.213651,-0.786174 1e-6,0 1e-6,0 1e-6,0 1.625238,0.06109 2.579051,0.01281 2.589163,0.09371 z"
         id="path76981" />
      <path
         style="display:inline;fill:#b68367;fill-opacity:1;fill-rule:nonzero;stroke:none;stroke-width:0.313423;stroke-linecap:round;stroke-linejoin:miter;stroke-miterlimit:4;stroke-dasharray:none;stroke-opacity:1"
         d="m 29.434782,95.004101 c 0.03049,0.02202 0.114416,-0.0041 0.41838,-0.27357 0.290308,-0.257404 0.768569,-0.726312 1.26005,-1.185729 0.261638,-0.244569 0.492125,-0.454381 0.718648,-0.65509 0.247996,-0.219735 0.491659,-0.423828 0.729274,-0.611064 0.555095,-0.437404 1.034405,-0.749277 1.43534,-0.96384 0.58427,-0.316248 0.921328,-0.480908 1.530962,-0.839526 0.561699,-0.33042 0.799646,-0.635058 1.770075,-1.091975 -1e-5,5e-6 0.01336,-0.0063 0.01335,-0.0063 0.763108,-0.357659 2.268837,-0.936273 3.889864,-1.123674 1.167815,-0.134764 2.605663,-0.216416 3.946434,-0.208235 0.624524,0.0038 1.201217,0.02728 1.685001,0.07094 0.243153,0.02195 0.45946,0.04869 0.645203,0.07989 0.190015,0.03191 0.342346,0.06755 0.457295,0.105343 0.267956,0.08821 0.590157,0.215702 0.933442,0.386569 0.392797,0.195512 0.771374,0.426775 1.122738,0.691101 0.475896,0.35801 0.825169,0.718281 1.093364,1.039635 0.07652,0.09168 0.143478,0.176596 0.20188,0.252349 0.39834,0.516688 0.657752,0.97344 0.751195,1.17929 -0.04815,-0.217993 -0.139019,-0.748484 -0.490713,-1.353597 -0.05091,-0.0876 -0.112384,-0.184935 -0.185144,-0.289213 -0.253949,-0.363953 -0.615486,-0.770164 -1.110489,-1.16422 -0.36638,-0.291664 -0.765946,-0.544869 -1.179675,-0.757144 -0.361638,-0.185549 -0.703756,-0.324142 -0.991172,-0.421051 -0.144928,-0.04882 -0.322105,-0.09004 -0.525198,-0.124965 -0.200224,-0.03443 -0.428662,-0.06324 -0.680187,-0.08677 -0.500238,-0.04679 -1.090269,-0.07251 -1.723441,-0.07963 -1.360315,-0.0153 -2.813446,0.0549 -4.003871,0.164123 -1.646065,0.151341 -3.369949,0.71542 -4.104229,0.935082 6.3e-5,-1.8e-5 -0.01466,0.0044 -0.0146,0.0044 -1.061453,0.317029 -1.450594,0.323489 -2.092127,0.574039 -0.608237,0.237546 -1.129804,0.52275 -1.649522,0.854386 -0.503155,0.319208 -1.006025,0.785085 -1.50855,1.340864 -0.218754,0.241937 -0.437707,0.501289 -0.654587,0.771437 -0.192878,0.24025 -0.399677,0.51324 -0.60782,0.806888 -0.41796,0.589657 -0.749655,1.132917 -0.933318,1.498131 -0.184582,0.367041 -0.175374,0.461259 -0.147857,0.481132 z"
         id="path4283" />
      <path
         style="display:inline;fill:#7c412c;fill-opacity:0.604418;stroke:none;stroke-width:1.89953px;stroke-linecap:butt;stroke-linejoin:miter;stroke-opacity:1"
         d="m 104.08402,102.12753 c 0.0907,-0.13185 1.67496,1.00852 3.18154,3.03664 0,0 0,0 0,0 0.34793,0.45943 0.75233,1.00831 1.15273,1.48442 0.54505,0.64811 1.07599,1.157 1.67869,1.5329 0,0 0,0 0,0 1.85089,1.17336 3.28615,2.04612 3.19669,2.1654 -0.0895,0.11927 -1.50086,-0.43856 -3.53729,-1.59773 0,0 0,-1e-5 0,-1e-5 -0.69436,-0.40237 -1.30661,-0.95387 -1.88722,-1.63583 -0.4369,-0.51317 -0.8245,-1.06355 -1.15789,-1.54946 0,0 0,0 0,0 -1.45735,-2.08217 -2.71798,-3.30449 -2.62725,-3.43633 z"
         id="path36105" />
      <path
         style="display:inline;fill:#7c412c;fill-opacity:0.604418;stroke:none;stroke-width:1.89953px;stroke-linecap:butt;stroke-linejoin:miter;stroke-opacity:1"
         d="m 105.43919,108.59126 c 0.11731,-0.1593 1.55845,0.72734 3.24674,1.91606 1.68829,1.18872 3.03413,2.18512 2.93234,2.35477 -0.10178,0.16964 -1.64116,-0.56951 -3.34498,-1.76858 -1.70382,-1.19906 -2.95142,-2.34295 -2.8341,-2.50225 z"
         id="path36109" />
      <path
         style="display:inline;fill:#7c412c;fill-opacity:0.604418;stroke:none;stroke-width:1.89953px;stroke-linecap:butt;stroke-linejoin:miter;stroke-opacity:1"
         d="m 106.25701,106.31955 c 0.13769,-0.14206 1.28489,0.76756 2.59939,1.97476 1.3145,1.20719 2.34023,2.23245 2.21664,2.38694 -0.12359,0.15448 -1.37285,-0.6393 -2.70145,-1.85892 -1.3286,-1.21962 -2.25227,-2.36071 -2.11458,-2.50278 z"
         id="path36113" />
      <path
         style="display:inline;fill:#7c412c;fill-opacity:0.604418;stroke:none;stroke-width:1.89953px;stroke-linecap:butt;stroke-linejoin:miter;stroke-opacity:1"
         d="m 107.87269,104.01224 c 0.15577,-0.12197 0.95871,0.74952 1.90583,1.71236 0.94713,0.96284 1.87895,1.43709 1.81639,1.62477 -0.0774,0.23211 -1.2537,-0.0546 -2.32669,-1.11547 -1.04034,-1.02856 -1.5513,-2.0997 -1.39553,-2.22166 z"
         id="path36137" />
      <path
         style="display:inline;fill:#7c412c;fill-opacity:0.604418;stroke:none;stroke-width:1.89953px;stroke-linecap:butt;stroke-linejoin:miter;stroke-opacity:1"
         d="m 108.25775,104.01224 c 0.1293,-0.14975 1.23886,0.78455 2.73303,1.47201 0.0277,0.0127 0.0553,0.0252 0.0829,0.0375 1.43416,0.63944 2.77009,0.35985 2.8315,0.54406 0.0493,0.14794 -1.27734,0.93427 -3.12341,0.11025 -0.0309,-0.0138 -0.0617,-0.0279 -0.0925,-0.0423 -1.66295,-0.77803 -2.56081,-1.97182 -2.43152,-2.12156 z"
         id="path36141" />
      <path
         style="display:inline;fill:#b68265;fill-opacity:1;stroke:none;stroke-width:1.89953px;stroke-linecap:butt;stroke-linejoin:miter;stroke-opacity:1"
         d="m 79.931963,102.44255 c 0.0095,-0.14013 3.034394,0.0475 6.985324,1.63841 1.497379,0.59871 3.526487,1.49148 5.351594,2.01084 0.434564,0.12366 0.865257,0.22996 1.295276,0.31652 1e-6,0 1e-6,0 1e-6,0 1.979416,0.41021 5.084046,0.15792 6.587942,0.19223 3.0239,0.0451 4.75773,-0.31422 4.80852,-0.21264 0.0508,0.10159 -1.88319,0.72861 -4.80852,0.77373 -1.514208,0.0354 -4.502633,0.37582 -6.727746,-0.0543 0,0 -10e-7,0 -10e-7,0 -0.450763,-0.0896 -0.90029,-0.19976 -1.351092,-0.32801 -1.928288,-0.54858 -3.907852,-1.45654 -5.402957,-2.10601 -3.885361,-1.67645 -6.747793,-2.09062 -6.738341,-2.23076 z"
         id="path76977" />
      <path
         style="display:inline;fill:#b68367;fill-opacity:1;fill-rule:nonzero;stroke:none;stroke-width:0.379907;stroke-linecap:round;stroke-linejoin:miter;stroke-miterlimit:4;stroke-dasharray:none;stroke-opacity:1"
         d="m 107.03334,102.05257 c 0.008,-0.0254 -0.16999,-0.14637 -0.55578,-0.40623 -0.14753,-0.0994 -0.30334,-0.21152 -0.43203,-0.32761 -0.0638,-0.0576 -0.11777,-0.11328 -0.15962,-0.16582 -0.0435,-0.0546 -0.0698,-0.10077 -0.0817,-0.13601 -0.0111,-0.021 -0.0239,-0.0433 -0.0388,-0.0677 -0.0151,-0.0248 -0.0324,-0.0517 -0.0518,-0.0809 -0.04,-0.0601 -0.0891,-0.12973 -0.14512,-0.20622 -0.12285,-0.16762 -0.27782,-0.36638 -0.44275,-0.56926 -10e-6,-1e-5 -0.0214,-0.0263 -0.0214,-0.0263 -0.39887,-0.488968 -0.8566,-1.006639 -1.30552,-1.48565 -0.48844,-0.521184 -1.03268,-1.067237 -1.5395,-1.53111 -0.23126,-0.211661 -0.47336,-0.423155 -0.7015,-0.604092 -0.10482,-0.08313 -0.20995,-0.162411 -0.31185,-0.23322 -0.0951,-0.06606 -0.19073,-0.127145 -0.28291,-0.177442 -0.0193,-0.01047 -0.0392,-0.02139 -0.0596,-0.03276 -0.13319,-0.07425 -0.28663,-0.165165 -0.46574,-0.275204 -0.1898,-0.11661 -0.3972,-0.247743 -0.635044,-0.399209 -0.408519,-0.260159 -0.951175,-0.609245 -1.480796,-0.931214 -0.501138,-0.304654 -1.048037,-0.620749 -1.581005,-0.884458 -0.507652,-0.251182 -1.020268,-0.463809 -1.485315,-0.573574 -0.220121,-0.05204 -0.476545,-0.103927 -0.759658,-0.154545 -0.281574,-0.05034 -0.589772,-0.09947 -0.914674,-0.146154 -0.651443,-0.0936 -1.366328,-0.176872 -2.063271,-0.240272 -0.711157,-0.06469 -1.396098,-0.108054 -1.981322,-0.122122 -0.300873,-0.0072 -0.575574,-0.0067 -0.815925,0.0025 -0.245905,0.0095 -0.461472,0.02825 -0.635986,0.0591 -0.180622,0.03191 -0.375682,0.08632 -0.573253,0.152829 -0.129003,0.04343 -0.261305,0.09278 -0.394226,0.145913 -0.08053,0.03219 -0.163002,0.06624 -0.247239,0.101997 -0.436365,0.185242 -0.911877,0.413038 -1.391963,0.657643 -0.465343,0.237093 -0.919009,0.481837 -1.315649,0.700857 -0.393317,0.217186 -0.739305,0.414024 -0.955245,0.536179 -0.131749,0.07587 -0.282167,0.179005 -0.439534,0.29566 -0.164625,0.122037 -0.342737,0.263293 -0.522242,0.411461 -0.393549,0.324845 -0.804763,0.691787 -1.136508,1.003096 -0.536246,0.503213 -0.868685,0.860701 -1.010003,1.079 -0.210306,0.324867 -0.07305,0.510014 -0.0297,0.55477 0.04407,0.04549 0.222492,0.186896 0.553963,-0.0054 0.231557,-0.134318 0.584221,-0.435629 1.130183,-0.9279 0.337385,-0.304206 0.730664,-0.665339 1.099885,-0.993239 0.168466,-0.149612 0.329385,-0.289967 0.473786,-0.411271 0.142099,-0.11937 0.25587,-0.209924 0.345232,-0.275401 0.200826,-0.143548 0.511648,-0.354297 0.889212,-0.595493 0.374168,-0.239026 0.806199,-0.503019 1.248973,-0.754159 0.457128,-0.259282 0.909884,-0.495898 1.319631,-0.679786 0.07901,-0.03546 0.155977,-0.06876 0.23073,-0.09977 0.123603,-0.05128 0.244191,-0.09819 0.359598,-0.13915 0.178765,-0.06344 0.341058,-0.111155 0.480337,-0.139257 0.133857,-0.02703 0.317383,-0.04792 0.548956,-0.0609 0.223645,-0.01254 0.484765,-0.01732 0.776858,-0.01463 0.56834,0.0052 1.239681,0.03864 1.942767,0.09345 0.688288,0.05366 1.394405,0.126894 2.037187,0.210442 0.320437,0.04165 0.623188,0.08561 0.898565,0.130641 0.277282,0.04534 0.524702,0.09141 0.733924,0.136945 0.410053,0.08905 0.884492,0.275355 1.380598,0.514006 0.516752,0.248583 1.051935,0.551489 1.549451,0.84979 0.530089,0.317832 1.058598,0.65568 1.473297,0.920605 0.239779,0.15318 0.444415,0.283948 0.638085,0.405446 0.18101,0.113562 0.33766,0.209683 0.47619,0.291254 0.0212,0.01251 0.042,0.02464 0.0622,0.03642 0.0696,0.04073 0.14678,0.09346 0.22918,0.15565 0.0878,0.06624 0.18016,0.142228 0.27466,0.224568 0.20658,0.179999 0.4256,0.392395 0.63961,0.611161 0.46555,0.475906 0.96928,1.045743 1.42929,1.577294 0.41375,0.478093 0.87452,1.021245 1.26757,1.482945 1.1e-4,1.4e-4 0.0215,0.0252 0.0216,0.0254 0.15411,0.18098 0.33986,0.39854 0.45743,0.53577 0.0581,0.0678 0.11324,0.13199 0.15478,0.17992 0.0204,0.0236 0.0394,0.0453 0.0546,0.0624 0.0148,0.0167 0.0281,0.0314 0.0362,0.0394 0.0644,0.0799 0.14304,0.14861 0.22635,0.20816 0.0811,0.058 0.17059,0.10997 0.26231,0.15628 0.18361,0.0927 0.38479,0.16695 0.56246,0.22108 0.52695,0.16053 0.69154,0.1237 0.69836,0.10326 z"
         id="path4523" />
    </g>
    <g
       id="layer6"
       style="display:inline"
       transform="translate(48.505752,103.97765)">
      <path
         style="fill:#9f6850;fill-opacity:1;fill-rule:nonzero;stroke:none;stroke-width:1.89953px;stroke-linecap:round;stroke-linejoin:miter;stroke-opacity:1"
         d="m 31.870389,-19.899832 c -0.03084,0.370104 -0.200692,2.184409 0.491489,2.750407 0.765397,0.625867 3.3206,0.818188 8.031514,1.068836 2.175542,0.115752 4.527473,0.226128 6.327961,0.330113 0.943983,0.05452 1.643886,0.101265 2.215672,0.146548 0.279216,0.02211 0.496772,0.04268 0.621197,0.05017 0.06356,0.0038 0.10365,0.004 0.103674,-0.0072 2.5e-5,-0.01206 -0.03842,-0.03086 -0.167077,-0.114707 0.0425,0.0046 0.133715,0.04529 0.235956,0.102023 0.01207,0.0067 0.02446,0.01369 0.03717,0.02096 0.12359,0.07077 0.275022,0.167547 0.44983,0.286328 0.337822,0.229548 0.757438,0.537471 1.232175,0.895763 0.963744,0.727354 2.180628,1.682104 3.144371,2.409457 1.742689,1.31714 3.076483,2.2353659 3.864209,2.2963341 0.86429,0.066894 1.638777,-0.8999601 1.836151,-1.1722001 v 0 c 0.197319,-0.272165 0.87516,-1.30974 0.536232,-2.112413 -0.305552,-0.723633 -1.522454,-1.658149 -3.435248,-2.942642 -1.109499,-0.745059 -2.345949,-1.530812 -3.375968,-2.186316 -0.513188,-0.326592 -0.977689,-0.622528 -1.349732,-0.866272 -0.195473,-0.128063 -0.365812,-0.241933 -0.51738,-0.346677 -0.01556,-0.01075 -0.0309,-0.02139 -0.04603,-0.03193 -0.151887,-0.105774 -0.228852,-0.164191 -0.373501,-0.269305 -0.197469,-0.122222 -0.39352,-0.213666 -0.528313,-0.272678 -0.14383,-0.06297 -0.29078,-0.120405 -0.431285,-0.171685 -0.274003,-0.100002 -0.582005,-0.197912 -0.921286,-0.295192 -0.657436,-0.188501 -1.470922,-0.38549 -2.419524,-0.58884 -1.878431,-0.402677 -4.22308,-0.815498 -6.423059,-1.15032 -4.702223,-0.715647 -7.344868,-0.922913 -8.184323,-0.455802 -0.790374,0.4398 -0.923977,2.256575 -0.954867,2.62726 z"
         id="path5506" />
      <path
         style="fill:#9f6850;fill-opacity:1;fill-rule:nonzero;stroke:none;stroke-width:1.89953px;stroke-linecap:round;stroke-linejoin:miter;stroke-opacity:1"
         d="m 8.8013988,-22.371513 c 0.059392,-0.364839 0.3160694,-1.992867 -0.48809,-2.629928 -0.5395881,-0.427465 -1.8178104,-0.757704 -3.7077552,-1.057261 -1.1362987,-0.180103 -2.4554667,-0.342683 -3.63244357,-0.452713 -0.54775664,-0.05121 -1.06087979,-0.0905 -1.50428265,-0.11372 -0.21836348,-0.01143 -0.41897912,-0.01893 -0.60051758,-0.02222 -0.1817098,-0.0033 -0.340386,-0.0023 -0.4858105,0.0027 -0.4773825,0.02349 -1.2333859,0.06272 -1.8751181,0.09659 -0.6423588,0.0339 -1.6657452,0.08925 -2.3043246,0.119009 -0.1389831,0.0065 -0.2768355,0.01261 -0.4119474,0.01821 -0.6639115,0.0275 -1.3658129,0.05908 -2.0569231,0.115032 -0.8185873,0.06627 -1.6502977,0.168685 -2.4155741,0.349494 -0.275718,0.06631 -0.54615,0.157003 -0.795966,0.252949 -0.257117,0.09875 -0.519595,0.213617 -0.779988,0.336932 -0.53389,0.252836 -1.103042,0.562152 -1.663951,0.891438 -1.23775,0.726629 -2.512863,1.594792 -3.523218,2.371821 -0.560764,0.431264 -1.051544,0.842669 -1.456209,1.222736 -2.096342,1.968914 -1.950411,3.166003 -1.75203,3.442319 0.21696,0.302195 1.252537,0.761115 3.801962,-0.414733 0.493762,-0.227734 1.040628,-0.512483 1.640665,-0.841934 1.055378,-0.579457 2.411613,-1.380593 3.466991,-1.96005 0.51612,-0.284626 0.98325,-0.531171 1.3822,-0.721752 0.1929,-0.09215 0.355889,-0.1645 0.4914542,-0.219539 0.1507893,-0.06122 0.2060631,-0.0771 0.2546154,-0.09413 0.462807,-0.12661 1.0477725,-0.230976 1.7231972,-0.294179 0.5603653,-0.05244 1.1523165,-0.07354 1.7346274,-0.06067 0.1178591,0.0026 0.238027,0.0072 0.3600941,0.01368 0.6615304,0.03516 1.3658839,0.125382 2.0275468,0.247743 0.6077306,0.112388 1.1603659,0.248589 1.568482,0.3798 0.085347,0.03019 0.2156756,0.06776 0.3657521,0.107576 0.1524275,0.04044 0.3336015,0.08543 0.5328375,0.13276 0.40511803,0.09624 0.89674556,0.205018 1.42198483,0.315121 1.13272547,0.237446 2.42864447,0.483305 3.55730467,0.660826 1.8772403,0.295261 3.1892811,0.384108 3.8333444,0.147821 0.959154,-0.351883 1.231675,-1.976727 1.2910902,-2.341706 z"
         id="path5510" />
      <path
         style="fill:#7e4831;fill-opacity:1;stroke:none;stroke-width:1.89953px;stroke-linecap:butt;stroke-linejoin:miter;stroke-opacity:1"
         d="m -19.082564,33.334126 c 0,0 1.107463,0.730992 2.75525,0.730992 1.64778,0 10.0926757,-2.265705 12.7703315,-1.853755 2.67764856,0.411951 12.7703317,3.089592 14.4181115,3.295567 1.647787,0.205975 13.8002,0.411951 15.242012,0.617926 1.441812,0.205975 10.710602,1.853762 12.564357,3.089599 1.853762,1.235836 5.355304,3.295567 6.385166,3.707517 1.029868,0.41195 1.853762,0.41195 1.853762,0.41195 0,0 1.441812,-4.325435 1.029861,-5.355297 -0.41195,-1.029868 -2.883623,-2.883624 -2.883623,-2.883624 l -2.677649,-3.501542 c 0,0 -5.355297,-0.617925 -6.797109,-1.647787 -1.441812,-1.029868 -4.119468,-3.295574 -5.973223,-3.501542 -1.853755,-0.205975 -6.797109,-0.205975 -8.032952,-0.205975 -1.235837,0 -7.20906,3.295567 -8.444897,3.295567 -1.235836,0 -8.8568388,-5.76724 -9.6807323,-5.76724 -0.8238935,0 -3.70751729,1.64778 -4.737386,1.64778 -1.0298615,0 -7.8269777,-1.029862 -8.8568397,-1.029862 -1.029868,0 -3.913492,0.617926 -5.149329,1.64778 -1.235836,1.029869 -3.718063,3.011567 -3.924031,3.83546 -0.205976,0.823894 -0.159525,3.170252 -0.159525,3.170252 z"
         id="path5784" />
      <path
         style="fill:#7e4831;fill-opacity:1;stroke:none;stroke-width:1.89953px;stroke-linecap:butt;stroke-linejoin:miter;stroke-opacity:1"
         d="m 11.685023,56.310215 c -2.677649,-0.205975 -6.1791911,-0.617926 -7.8269781,0 -1.6477799,0.617925 -3.29556696,1.235837 -3.29556696,2.471673 0,1.235844 1.02986156,4.119461 1.02986156,4.119461 l 2.2657054,1.647787 12.1524131,1.441819 c 0,0 4.119461,-1.85377 4.737386,-2.883624 0.617926,-1.029869 0.617926,-4.325443 -0.41195,-4.943361 -1.029862,-0.617926 -8.650871,-1.853755 -8.650871,-1.853755 z"
         id="path5854" />
      <path
         id="path5922"
         style="fill:#7e4831;fill-opacity:1;stroke:none;stroke-width:1.89953px;stroke-linecap:butt;stroke-linejoin:miter;stroke-opacity:1;paint-order:stroke fill markers"
         d="m -37.905823,-0.9727138 c 0,0 -0.137279,6.2950234 -0.137279,7.9023531 0,1.6073315 0.937898,3.3488787 1.205759,5.0901557 0.267889,1.741277 -0.934521,12.186926 -1.068487,13.660312 -0.133898,1.473393 0,7.902353 0,7.902353 l -0.02969,0.537955 c 0.09551,-0.32705 0.152115,-0.608445 0.152115,-0.608445 0,0 0.671403,6.168273 1.61015,9.252803 0.938757,3.084458 1.74032,5.766013 3.483715,9.252803 1.743393,3.486789 4.830451,9.119242 4.830451,9.119242 v 0.0038 c 1.087538,1.721827 8.717144,13.746782 12.454555,17.982494 4.018325,4.554111 13.9298692,7.904184 15.67114627,8.573864 1.74127713,0.669718 6.02816183,1.338582 8.84099013,1.606454 2.8128286,0.267853 12.3217706,-0.535288 15.9382676,-1.472879 3.616498,-0.937609 10.813112,-4.194795 11.972251,-5.086455 1.159133,-0.891641 10.341699,-7.221929 11.67916,-8.291898 1.337467,-1.069969 6.579189,-5.794582 6.579189,-5.794582 1.10976,-1.142743 1.963346,-1.873562 2.981545,-2.883111 0.655187,-0.655187 2.809675,-4.58622 3.465166,-5.335026 0.655187,-0.748803 3.088565,-5.897728 3.275935,-6.459152 0.187294,-0.561641 1.179799,-4.912075 1.179799,-4.912075 0.845578,-4.811771 3.056235,-10.243227 3.85968,-12.737243 0.378938,-1.176312 1.378738,-4.118788 1.79069,-5.5606 0.411952,-1.441811 3.502264,-12.565856 3.502264,-12.565856 0,0 -17.095283,35.633989 -18.743052,38.105669 -1.647788,2.471674 -11.741687,14.622997 -13.389475,14.828982 -1.647786,0.205985 -1.649174,-2.264509 -1.443198,-3.70633 0.205975,-1.441803 -1.440878,-4.941751 -2.88269,-4.941751 -1.441812,0 -5.765971,7.619731 -9.679455,9.67947 -3.913494,2.05972 -11.123832,4.326015 -18.950809,3.914063 C -0.67587515,75.454885 -5.3608659,70.952802 -8.1736942,68.675737 -10.98653,66.398691 -15.137289,55.817121 -16.476731,55.683226 c -1.339442,-0.133955 -5.357154,7.09959 -6.696596,6.295913 -1.33944,-0.803662 -9.911303,-20.49252 -10.580991,-22.36774 -0.669724,-1.875223 -2.545482,-21.700454 -2.411517,-24.111455 0.133936,-2.410993 -1.740001,-16.47251153 -1.740001,-16.47251153 z" />
    </g>
    <g
       id="layer2"
       style="display:inline"
       transform="translate(48.505752,103.97765)">
      <path
         id="path1084"
         style="fill:#6f402f;fill-opacity:1;stroke:#000000;stroke-width:0.56986;stroke-linecap:butt;stroke-linejoin:miter;stroke-miterlimit:4;stroke-dasharray:none;stroke-opacity:1;paint-order:stroke fill markers"
         d="m 20.11897,-102.97614 c -1.776409,0.0362 -4.898667,0.66538 -5.516807,0.81991 -0.70659,0.17662 -5.9174897,2.737999 -5.9174897,2.737999 0,0 -4.5050803,0.178822 -5.5650386,0.267122 -1.0598862,0.08831 -4.857533,0.881121 -5.9174894,2.029385 -1.0598862,1.148262 1.1501083,2.474586 1.1501083,2.474586 0,0 -1.7681764,6.99e-4 -2.0330948,0.530534 -0.265133,0.529979 0.6195745,1.851302 0.6195745,1.851302 0,0 -4.5956995,1.857217 -5.3906673,2.122135 -0.7949678,0.264989 -2.294962,0.970521 -3.00141,1.235439 -0.706662,0.264916 -0.971003,-0.08905 -1.765971,-0.08905 -0.794968,0 -3.534149,0.88666 -3.799066,1.328189 -0.26499,0.44153 0.882985,0.704906 0.882985,0.704906 0,0 -6.007964,1.414952 -6.626105,2.033094 -0.618356,0.618283 -1.146396,2.296505 -1.146396,2.296505 -2e-6,0 -1.501055,1.410508 -1.765973,1.940343 -0.264989,0.529907 0.175802,0.971005 0.793946,1.765972 0.618284,0.794968 1.413518,0.972026 1.413518,0.972026 0,0 -0.795414,1.239112 -0.972025,1.680642 -0.176619,0.441601 0.531303,1.322238 0.178081,1.498851 -0.353296,0.176618 -2.652633,2.916043 -3.094162,3.357572 -0.441672,0.441672 -4.767381,5.034503 -4.767381,5.034503 0,0 0.969894,1.680606 0.704903,2.122136 -0.264981,0.441671 -2.470768,0.971255 -2.912369,1.324477 -0.441636,0.353296 -2.122869,3.177951 -2.211175,3.884397 -0.08831,0.70659 -0.26481,3.620948 -0.441493,4.062478 -0.176618,0.441601 0.178081,2.384776 0.178081,2.737998 0,0.353296 -1.500982,2.386246 -1.765971,2.916081 -0.265011,0.529977 0.881587,2.294962 0.704904,3.00141 -0.176657,0.706662 -2.294193,3.623152 -2.470876,4.3296 -0.176619,0.70659 0.08764,4.328647 -0.08903,5.123543 -0.176656,0.794968 -1.591601,4.5032 -1.591601,4.856424 0,0.353296 0.356162,7.067597 0.356162,7.067597 0,0 -0.706301,1.588589 -0.882984,2.118426 -0.176695,0.529977 -0.267122,3.09156 -0.267122,4.151516 0,1.059959 0.353186,2.739433 0.441493,3.357573 0.08521,0.596632 -0.149778,4.665756 -0.16695,4.960305 1.69026,2.7576869 3.613195,5.9446832 3.687765,6.3923727 0.119499,0.7169996 0.716627,4.78014219 1.194627,4.54107078 0.477995,-0.23899922 2.51013,-9.55746728 2.74913,-10.63293148 0.238993,-1.075536 1.193885,-5.380795 1.313348,-6.336724 0.119481,-0.956001 0.715292,-4.300362 0.834756,-5.375826 0.119499,-1.075537 0.958595,-9.561027 1.31706,-11.233955 0.358493,-1.673002 2.510128,-11.591305 2.749127,-12.547306 0.239001,-0.955928 2.506797,-6.092898 3.224013,-7.646362 0.716929,-1.553465 5.738293,-9.56177 7.052758,-11.115235 1.314536,-1.553464 5.138385,-4.659791 5.138385,-4.659791 0,0 4.3002895,4.56e-4 5.3758259,-0.118721 1.0754642,-0.119538 6.3341994,-1.55124 7.29019819,-2.029385 0.9560007,-0.478 7.05067661,-3.587593 9.08214151,-3.587593 2.0314664,0 6.4518054,0.23952 8.7222694,0.478593 2.270466,0.239 9.796981,-0.356612 13.979375,-0.834755 4.182395,-0.47793 20.079183,1.075605 23.425115,2.270534 3.345913,1.195 9.438741,6.81205 10.514199,7.887514 1.075478,1.075465 7.646361,8.006235 7.646361,8.006235 0,0 0.478606,3.941233 0.478606,4.897231 0,0.956001 1.196706,4.779772 1.435781,5.735701 0.238999,0.956 1.432058,9.441641 1.432058,10.636641 0,1.195 -1.312881,9.200933 -1.432058,11.471399 -0.11986,2.270464 0.358233,11.233949 0.597308,11.831269 0.238999,0.597465 1.432514,1.550784 1.313337,2.148105 -0.11986,0.5974642 -0.239512,0.837284 -0.478587,1.5545002 -0.238999,0.7169995 -0.836839,5.3795302 -1.075895,5.9768497 C 74.792708,-2.0633173 74.91236,16.935571 74.91236,16.935571 l 0.597308,1.791942 c 0,0 1.79238,-0.596133 2.27053,-1.313349 0.477999,-0.716929 1.19625,-2.509163 1.554502,-3.465164 0.358537,-0.956001 0.957175,-2.391257 1.554502,-3.227722 0.597536,-0.8364652 1.790747,-1.313341 3.10528,-1.9106624 0.863509,-0.3925347 2.093361,-0.9743844 3.008841,-1.4098105 -0.0019,-9.897e-4 -0.05926,-0.02969 -0.05926,-0.02969 0,0 1.323461,-3.3582696 2.118416,-3.8881063 0.794973,-0.5299773 -0.264909,-5.4744538 0,-6.1809014 0.264928,-0.7065902 0.53128,-0.9734593 0.61959,-1.5916015 0.08833,-0.6182828 -0.08833,-1.6783646 0,-2.2965049 0.08833,-0.6182846 1.057356,-3.887084 1.057356,-4.682052 0,-0.794968 -0.08529,-3.531655 -0.08529,-4.414928 0,-0.883276 2.029384,-9.099741 2.029384,-9.894639 0,-0.794967 -0.705638,-2.559628 -0.793928,-3.442903 -0.08833,-0.883273 0.53052,-4.594193 0.53052,-5.654077 0,-1.059959 -0.531261,-2.650392 -0.61957,-3.268532 -0.08833,-0.618285 0.355421,-3.797525 0.267112,-4.503971 -0.08833,-0.70659 -1.857249,-1.414218 -1.680631,-1.944054 0.176657,-0.529978 -0.529761,-2.648669 -0.882979,-3.531944 -0.353294,-0.883273 -1.765217,-4.326587 -2.118435,-4.856422 -0.353294,-0.529979 -3.357614,-3.79903 -2.916087,-4.240559 0.44168,-0.441529 2.033108,-0.267122 2.033108,-0.267122 0,0 -1.23614,-1.589001 -1.765976,-2.648957 -0.52997,-1.059886 -2.563629,-0.793946 -2.563629,-0.793946 0,0 -0.353142,-1.412749 -0.882979,-1.765973 -0.529912,-0.353438 -3.442903,0.530534 -3.442903,0.530534 0,0 0.263408,-1.943838 0.263408,-2.827039 0,-0.883273 -0.176656,-2.651645 -0.441489,-3.446613 -0.265004,-0.79504 -0.707842,-0.792439 -1.061079,-1.057358 -0.353218,-0.264988 -7.22e-4,-0.796632 -0.08909,-1.591599 -0.08833,-0.794968 -0.617311,-0.795416 -1.235438,-0.972027 -0.618354,-0.176676 -0.794688,-3.354562 -0.882997,-3.884397 -0.08833,-0.529907 -4.591988,-5.742831 -5.386943,-6.626104 -0.794973,-0.883276 -10.688557,-5.211815 -11.130085,-5.565039 -0.441679,-0.353294 -2.03155,-2.913802 -2.738005,-3.531944 -0.706645,-0.618285 -2.38399,-1.326683 -3.090445,-1.5916 -0.706588,-0.26499 -4.327449,-2.737228 -6.358987,-3.09045 -2.031537,-0.353441 -7.334719,-0.793946 -7.334719,-0.793946 -2e-6,0 -4.592725,-2.297975 -5.475998,-2.474588 -0.883273,-0.176676 -3.797827,-1.060112 -5.475998,-1.855012 -1.678241,-0.79497 -5.120835,-1.50032 -6.622395,-1.67693 -0.187693,-0.0221 -0.414031,-0.0311 -0.667803,-0.026 z" />
    </g>
  </g>
</svg>
