<svg width="1440" height="262" viewBox="0 0 1440 262" fill="none" xmlns="http://www.w3.org/2000/svg">
<g id="portfolio">
<path d="M167.429 82.0301C167.429 86.5014 167.312 89.6784 167.076 91.561C165.429 104.975 160.252 117.33 151.544 128.626C142.837 139.922 132.012 148.865 119.068 155.454C106.125 161.808 92.4756 164.985 78.1202 164.985C77.4142 164.985 76.4729 165.103 75.2962 165.338C74.1196 165.338 72.7076 165.22 71.0602 164.985C71.2956 167.809 71.2956 170.633 71.0602 173.457C71.0602 176.281 71.0602 178.87 71.0602 181.223V252.882L67.1772 253.235C60.8232 255.118 49.7626 256.059 33.9952 256.059C22.2286 256.059 11.4032 255.471 1.51922 254.294C0.577884 231.467 0.107217 191.813 0.107217 135.333V92.62C0.107217 54.2607 -0.245783 26.3737 -0.951782 8.95905C17.1689 3.78171 36.1132 1.19304 55.8812 1.19304C86.2392 1.19304 112.008 7.66471 133.188 20.608C154.604 33.316 166.017 53.6724 167.429 81.677V82.0301ZM97.5352 66.145C93.7699 62.8504 89.6516 60.7324 85.1802 59.791C80.7089 58.8497 76.1199 58.379 71.4132 58.379C66.9419 58.1437 63.5296 58.026 61.1762 58.026C61.4116 61.7914 61.5292 68.1454 61.5292 77.0881V80.265C61.5292 87.325 61.6469 93.2084 61.8822 97.915C62.3529 102.386 63.1766 106.387 64.3532 109.917H69.2952C70.9426 109.917 74.3549 109.917 79.5322 109.917C84.9449 109.917 89.5339 109.211 93.2992 107.799C97.2999 106.387 100.359 104.034 102.477 100.739C104.831 96.7384 106.007 92.1494 106.007 86.9721C106.007 80.6181 104.125 74.7347 100.359 69.322L97.5352 66.145Z" fill="#00FFC8"/>
<path d="M331.952 67.91C332.658 75.2054 333.011 82.6184 333.011 90.1491L332.658 96.503V102.857C332.187 110.623 331.952 122.037 331.952 137.098C331.952 153.807 331.599 166.515 330.893 175.222L329.834 186.871C328.657 205.933 323.833 222.171 315.361 235.585C311.831 240.527 306.536 244.881 299.476 248.646C292.416 252.411 284.65 255.471 276.178 257.824C267.471 260.413 257.234 261.707 245.467 261.707C240.054 261.707 236.289 261.589 234.171 261.354C222.64 260.413 212.285 257.942 203.107 253.941C194.164 249.705 187.575 243.586 183.339 235.585C177.691 224.995 174.632 211.699 174.161 195.696L173.455 184.4C173.22 182.517 173.102 178.634 173.102 172.751C171.925 153.454 171.337 134.98 171.337 117.33C171.337 106.505 171.69 95.6794 172.396 84.854C173.102 73.0874 175.102 61.6737 178.397 50.613C181.927 39.317 187.222 29.433 194.282 20.961L202.048 16.7251C217.109 9.42971 233.583 5.78204 251.468 5.78204C262.764 5.78204 273.354 7.31171 283.238 10.371C293.357 13.195 302.182 17.431 309.713 23.0791C317.95 30.6097 323.362 38.0227 325.951 45.318C328.775 52.8487 330.775 60.3794 331.952 67.91ZM277.237 106.387L275.825 88.0311C275.354 81.4417 273.707 75.676 270.883 70.734C268.294 65.5567 264.882 61.909 260.646 59.791C258.763 59.085 256.881 58.732 254.998 58.732C249.35 58.732 243.82 60.6147 238.407 64.3801C235.583 66.7334 232.759 70.1457 229.935 74.617C227.346 78.853 225.346 83.2067 223.934 87.678C221.581 98.0327 220.404 111.211 220.404 127.214C220.404 135.215 220.522 141.216 220.757 145.217V144.864C221.698 149.571 222.404 155.807 222.875 163.573L223.228 168.515C224.169 180.282 225.464 188.989 227.111 194.637V194.284C229.229 198.991 232.288 202.638 236.289 205.227C240.525 207.58 244.996 208.757 249.703 208.757C253.468 208.757 257.234 207.933 260.999 206.286C265 204.403 268.412 201.815 271.236 198.52C273.589 195.461 275.001 192.872 275.472 190.754C276.178 188.636 276.531 185.341 276.531 180.87C276.531 176.869 276.649 173.928 276.884 172.045L277.237 167.456L277.59 160.749V155.807L277.943 149.1V132.156L277.237 108.152V106.387Z" fill="#00FFC8"/>
<path d="M488.472 189.342C497.885 203.697 505.416 215.817 511.064 225.701C516.947 235.585 521.771 245.587 525.537 255.706H519.889C517.065 255.706 510.711 255.941 500.827 256.412C490.943 256.883 483.059 257.118 477.176 257.118C473.881 257.118 468.939 256.883 462.35 256.412L456.349 256.059C441.052 221.23 427.403 195.108 415.401 177.693V186.871C415.401 201.462 416.224 220.288 417.872 243.351V242.998C418.107 244.645 418.225 247.469 418.225 251.47C410.223 255.235 397.045 257.118 378.689 257.118L370.217 256.765H351.508C348.919 256.765 347.625 235.467 347.625 192.872C347.625 154.277 347.272 115.683 346.566 77.0881C345.86 38.258 344.801 14.96 343.389 7.19405L352.92 5.78204C367.04 3.89937 378.689 2.48737 387.867 1.54604C397.045 0.604701 406.458 0.134033 416.107 0.134033C426.461 0.134033 435.286 0.604701 442.582 1.54604C456.231 3.19338 468.939 7.90004 480.706 15.666C492.708 23.432 502.239 32.963 509.299 44.2591C516.594 55.5551 520.242 67.204 520.242 79.206C520.242 90.7374 516.476 103.328 508.946 116.977C504.239 125.449 498.003 132.509 490.237 138.157C482.471 143.805 473.175 147.217 462.35 148.394C468.704 159.69 476.117 171.457 484.589 183.694C486.236 186.518 487.53 188.401 488.472 189.342ZM437.64 99.327C440.934 98.3857 443.523 96.0324 445.406 92.267C447.288 88.5017 448.23 84.0304 448.23 78.8531C448.23 69.2044 445.876 62.968 441.17 60.144C438.11 58.2614 434.933 57.0847 431.639 56.614C428.579 56.1434 425.049 55.9081 421.049 55.9081L405.87 58.379C406.34 65.439 406.576 71.44 406.576 76.382C406.576 89.09 406.929 96.856 407.635 99.68C411.635 100.151 416.577 100.386 422.461 100.386C427.873 100.386 432.933 100.033 437.64 99.327Z" fill="#00FFC8"/>
<path d="M677.884 7.90004C678.354 15.9014 678.59 23.432 678.59 30.492C678.59 44.1414 677.766 56.3787 676.119 67.2041C668.353 65.792 662.234 65.086 657.763 65.086L641.172 64.733C635.053 64.733 631.994 65.086 631.994 65.7921C631.523 69.0867 631.288 76.0291 631.288 86.619C631.288 107.328 632.111 163.102 633.759 253.941C626.934 255.118 618.933 255.706 609.755 255.706H599.518C587.751 255.706 576.926 256.53 567.042 258.177C566.336 257 565.747 254.647 565.277 251.117C565.041 247.352 565.041 243.939 565.277 240.88V223.583L565.63 191.813C565.63 148.982 564.688 107.211 562.806 66.498C560.217 65.3214 556.569 64.733 551.863 64.733L537.743 65.086C529.741 65.086 523.976 64.4977 520.446 63.321C519.74 61.909 519.151 58.026 518.681 51.672C518.21 45.318 517.975 38.1404 517.975 30.139C517.975 18.3724 518.092 9.90037 518.328 4.72304H533.507L547.274 4.37004H567.042L587.516 4.01705C622.58 4.01705 651.173 5.31138 673.295 7.90004H677.884Z" fill="#00FFC8"/>
<path d="M801.914 164.632C798.854 165.103 791.206 165.926 778.969 167.103C776.615 167.338 773.791 167.574 770.497 167.809C767.202 167.809 763.907 168.162 760.613 168.868L758.142 243.704V256.059C748.258 257.236 733.902 257.824 715.076 257.824C698.838 257.824 689.071 256.647 685.777 254.294L686.13 196.755V150.512C686.365 125.802 686.483 80.265 686.483 13.901C696.602 12.2537 711.193 10.724 730.255 9.31204C749.552 7.90005 768.026 7.19405 785.676 7.19405C814.622 7.19405 837.684 9.31205 854.864 13.548V20.255C854.864 21.1964 854.864 23.1967 854.864 26.2561C855.099 29.08 855.334 35.5517 855.57 45.671C855.57 53.9077 855.334 61.3207 854.864 67.91L816.034 70.028L790.618 71.44C777.204 71.9107 767.084 72.499 760.26 73.205L759.201 75.676C758.495 77.794 758.142 80.8534 758.142 84.854C758.142 88.6194 758.377 92.3847 758.848 96.15C759.318 99.68 759.789 101.798 760.26 102.504C766.143 103.21 771.791 103.563 777.204 103.563C788.029 103.563 797.56 102.975 805.797 101.798C806.973 104.387 807.562 109.329 807.562 116.624V123.684L807.209 132.156L806.856 138.863V145.57C806.856 150.512 807.091 156.042 807.562 162.161C807.562 163.338 805.679 164.161 801.914 164.632Z" fill="#00FFC8"/>
<path d="M1016.23 67.91C1016.94 75.2054 1017.29 82.6184 1017.29 90.1491L1016.94 96.503V102.857C1016.47 110.623 1016.23 122.037 1016.23 137.098C1016.23 153.807 1015.88 166.515 1015.18 175.222L1014.12 186.871C1012.94 205.933 1008.12 222.171 999.643 235.585C996.113 240.527 990.818 244.881 983.758 248.646C976.698 252.411 968.932 255.471 960.46 257.824C951.753 260.413 941.516 261.707 929.749 261.707C924.337 261.707 920.571 261.589 918.453 261.354C906.922 260.413 896.567 257.942 887.389 253.941C878.447 249.705 871.857 243.586 867.621 235.585C861.973 224.995 858.914 211.699 858.443 195.696L857.737 184.4C857.502 182.517 857.384 178.634 857.384 172.751C856.208 153.454 855.619 134.98 855.619 117.33C855.619 106.505 855.972 95.6794 856.678 84.854C857.384 73.0874 859.385 61.6737 862.679 50.613C866.209 39.317 871.504 29.433 878.564 20.961L886.33 16.7251C901.392 9.42971 917.865 5.78204 935.75 5.78204C947.046 5.78204 957.636 7.31171 967.52 10.371C977.64 13.195 986.465 17.431 993.995 23.0791C1002.23 30.6097 1007.64 38.0227 1010.23 45.318C1013.06 52.8487 1015.06 60.3794 1016.23 67.91ZM961.519 106.387L960.107 88.0311C959.637 81.4417 957.989 75.676 955.165 70.734C952.577 65.5567 949.164 61.909 944.928 59.791C943.046 59.085 941.163 58.732 939.28 58.732C933.632 58.732 928.102 60.6147 922.689 64.3801C919.865 66.7334 917.041 70.1457 914.217 74.617C911.629 78.853 909.628 83.2067 908.216 87.678C905.863 98.0327 904.686 111.211 904.686 127.214C904.686 135.215 904.804 141.216 905.039 145.217V144.864C905.981 149.571 906.687 155.807 907.157 163.573L907.51 168.515C908.452 180.282 909.746 188.989 911.393 194.637V194.284C913.511 198.991 916.571 202.638 920.571 205.227C924.807 207.58 929.279 208.757 933.985 208.757C937.751 208.757 941.516 207.933 945.281 206.286C949.282 204.403 952.694 201.815 955.518 198.52C957.872 195.461 959.284 192.872 959.754 190.754C960.46 188.636 960.813 185.341 960.813 180.87C960.813 176.869 960.931 173.928 961.166 172.045L961.519 167.456L961.872 160.749V155.807L962.225 149.1V132.156L961.519 108.152V106.387Z" fill="#00FFC8"/>
<path d="M1188.64 229.584C1188.87 232.408 1188.99 236.526 1188.99 241.939C1188.99 246.881 1188.52 250.411 1187.58 252.529C1186.87 254.412 1185.7 255.588 1184.05 256.059C1182.4 256.53 1179.58 256.765 1175.58 256.765H1173.11L1167.46 256.412L1158.28 256.765C1143.69 257.236 1122.16 257.471 1093.68 257.471C1066.62 257.471 1045.09 257.353 1029.08 257.118V248.999C1030.73 210.169 1031.55 171.104 1031.55 131.803C1031.55 120.272 1031.32 100.386 1030.85 72.146V50.613C1030.61 46.6124 1030.49 39.4347 1030.49 29.08L1030.14 6.13504C1033.44 4.95837 1038.03 4.01704 1043.91 3.31103C1049.79 2.36971 1055.68 1.89905 1061.56 1.89905C1068.15 1.89905 1074.74 2.36971 1081.33 3.31103C1087.92 4.25237 1093.21 5.54671 1097.21 7.19405C1096.74 24.138 1096.51 37.6697 1096.51 47.7891C1096.51 61.9091 1096.74 83.0891 1097.21 111.329C1097.45 125.449 1097.56 146.276 1097.56 173.81V196.755C1105.33 196.755 1114.86 197.108 1126.16 197.814L1144.87 198.52C1154.75 199.226 1164.05 199.579 1172.75 199.579C1178.87 199.579 1184.29 199.344 1188.99 198.873C1188.99 204.286 1188.87 207.816 1188.64 209.463V209.11C1188.17 215.464 1188.05 220.053 1188.29 222.877L1188.64 229.584Z" fill="#00FFC8"/>
<path d="M1268.04 8.25303C1268.04 35.787 1267.69 63.5564 1266.98 91.561C1266.04 128.744 1265.57 158.043 1265.57 179.458C1265.57 204.168 1266.28 228.76 1267.69 253.235C1264.16 256.765 1254.98 258.53 1240.15 258.53C1231.68 258.53 1225.45 258.412 1221.45 258.177L1217.21 257.824L1210.86 257.471C1206.15 257.471 1200.15 258.412 1192.85 260.295C1194.26 239.821 1194.97 218.053 1194.97 194.99C1194.97 185.812 1194.74 172.28 1194.26 154.395L1193.91 133.921C1192.97 108.976 1192.5 88.737 1192.5 73.205C1192.5 49.907 1193.56 26.962 1195.68 4.37004C1198.74 3.89938 1202.03 3.66405 1205.56 3.66405C1207.44 3.66405 1210.03 3.89938 1213.33 4.37004C1216.62 4.60537 1220.5 4.60537 1224.98 4.37004C1237.21 5.07605 1246.98 5.31138 1254.27 5.07605H1268.04V8.25303Z" fill="#00FFC8"/>
<path d="M1441.28 67.91C1441.99 75.2054 1442.34 82.6184 1442.34 90.1491L1441.99 96.503V102.857C1441.52 110.623 1441.28 122.037 1441.28 137.098C1441.28 153.807 1440.93 166.515 1440.22 175.222L1439.16 186.871C1437.99 205.933 1433.16 222.171 1424.69 235.585C1421.16 240.527 1415.87 244.881 1408.81 248.646C1401.75 252.411 1393.98 255.471 1385.51 257.824C1376.8 260.413 1366.56 261.707 1354.8 261.707C1349.38 261.707 1345.62 261.589 1343.5 261.354C1331.97 260.413 1321.62 257.942 1312.44 253.941C1303.49 249.705 1296.91 243.586 1292.67 235.585C1287.02 224.995 1283.96 211.699 1283.49 195.696L1282.79 184.4C1282.55 182.517 1282.43 178.634 1282.43 172.751C1281.26 153.454 1280.67 134.98 1280.67 117.33C1280.67 106.505 1281.02 95.6794 1281.73 84.854C1282.43 73.0874 1284.43 61.6737 1287.73 50.613C1291.26 39.317 1296.55 29.433 1303.61 20.961L1311.38 16.7251C1326.44 9.42971 1342.91 5.78204 1360.8 5.78204C1372.09 5.78204 1382.68 7.31171 1392.57 10.371C1402.69 13.195 1411.51 17.431 1419.04 23.0791C1427.28 30.6097 1432.69 38.0227 1435.28 45.318C1438.11 52.8487 1440.11 60.3794 1441.28 67.91ZM1386.57 106.387L1385.16 88.0311C1384.68 81.4417 1383.04 75.676 1380.21 70.734C1377.62 65.5567 1374.21 61.909 1369.98 59.791C1368.09 59.085 1366.21 58.732 1364.33 58.732C1358.68 58.732 1353.15 60.6147 1347.74 64.3801C1344.91 66.7334 1342.09 70.1457 1339.27 74.617C1336.68 78.853 1334.68 83.2067 1333.26 87.678C1330.91 98.0327 1329.73 111.211 1329.73 127.214C1329.73 135.215 1329.85 141.216 1330.09 145.217V144.864C1331.03 149.571 1331.73 155.807 1332.21 163.573L1332.56 168.515C1333.5 180.282 1334.79 188.989 1336.44 194.637V194.284C1338.56 198.991 1341.62 202.638 1345.62 205.227C1349.86 207.58 1354.33 208.757 1359.03 208.757C1362.8 208.757 1366.56 207.933 1370.33 206.286C1374.33 204.403 1377.74 201.815 1380.57 198.52C1382.92 195.461 1384.33 192.872 1384.8 190.754C1385.51 188.636 1385.86 185.341 1385.86 180.87C1385.86 176.869 1385.98 173.928 1386.21 172.045L1386.57 167.456L1386.92 160.749V155.807L1387.27 149.1V132.156L1386.57 108.152V106.387Z" fill="#00FFC8"/>
</g>
</svg>
