<?xml version="1.0" encoding="UTF-8" standalone="no"?>
<!-- Created with Inkscape (http://www.inkscape.org/) -->

<svg
   width="27.20854mm"
   height="27.202339mm"
   viewBox="0 0 27.20854 27.202339"
   version="1.1"
   id="svg1072"
   xmlns="http://www.w3.org/2000/svg"
   xmlns:svg="http://www.w3.org/2000/svg">
  <defs
     id="defs1069" />
  <g
     id="layer1"
     transform="translate(-92.84053,-136.08683)">
    <path
       id="path1553-4-7-7"
       style="display:inline;fill:#2a122e;fill-opacity:1;stroke:none;stroke-width:1.27659;stroke-linejoin:round;paint-order:stroke markers fill;stop-color:#000000"
       d="m 106.28921,136.08789 c -1.13612,0.0149 -2.26876,0.17626 -3.37073,0.45617 -0.0339,0.0108 -0.0682,0.0214 -0.10215,0.0323 -1.58257,0.44846 -3.09081,1.16663 -4.41503,2.14395 -1.48284,1.07989 -2.7313,2.47036 -3.66991,4.04502 -0.97704,1.66526 -1.6076,3.53518 -1.8108,5.45668 -0.19335,1.76379 -0.0357,3.56781 0.46441,5.27034 0.54092,1.87129 1.49518,3.61886 2.76728,5.09273 1.19999,1.38587 2.67997,2.52624 4.3289,3.32802 1.77844,0.86951 3.74884,1.34077 5.72845,1.37431 2.8909,0.0467 5.79968,-0.83749 8.14874,-2.53194 3.30147,-2.33272 5.44216,-6.20649 5.66512,-10.24223 0.0926,-1.44574 -0.0696,-2.96933 -0.43165,-4.32186 -0.44722,-1.64462 -1.19721,-3.20982 -2.21189,-4.57907 -1.14203,-1.55859 -2.62912,-2.85878 -4.31386,-3.80189 -1.72904,-0.9623 -3.66735,-1.54354 -5.64061,-1.68755 -0.37843,-0.0285 -0.75757,-0.0399 -1.13627,-0.0349 z" />
    <path
       id="path1120-9-9-9-9-7-9-9"
       style="display:inline;fill:#ffffff;fill-opacity:1;stroke:none;stroke-width:1.2423;stroke-linejoin:round;stroke-miterlimit:4;stroke-dasharray:none;stroke-opacity:1;paint-order:stroke markers fill;stop-color:#000000"
       d="m 103.32842,137.93742 c -0.22517,5.3e-4 -0.45026,0.0125 -0.67386,0.0356 -3.18027,0.33811 -5.86418,2.6364 -7.21713,5.45858 -1.56639,2.90089 -2.15147,6.68998 -0.36483,9.62836 0.66956,1.11192 1.61088,2.05048 2.69699,2.75694 0.25122,0.52387 0.0773,1.10631 -0.42271,1.36477 -0.59471,0.30907 -0.99191,-0.20853 -1.50637,-0.41238 -0.32462,-0.20824 -0.71717,-0.15679 -0.98185,0.0481 0.38294,0.62257 0.81586,1.2145 1.29346,1.76785 0.87605,1.01176 1.9021,1.89168 3.03341,2.60553 2.1554,0.46489 4.37559,0.71798 6.5784,0.62218 3.51087,-0.23735 6.99585,-1.50403 9.85367,-3.52743 1.08791,-0.78537 2.17918,-1.71902 3.12177,-2.78381 0.7399,-1.56102 1.18864,-3.25943 1.28416,-4.98833 0.0765,-1.19387 -0.0214,-2.44093 -0.26148,-3.60081 -0.91007,0.0761 -0.92923,1.27151 -0.86352,1.96887 0.25726,1.2604 0.19537,2.60155 -0.46612,3.73569 -1.24724,2.19441 -3.24902,3.89925 -5.41104,5.15731 -3.85942,2.16294 -8.6201,2.70794 -12.84159,1.34359 -0.34194,-0.57067 -0.21796,-1.04276 0.14934,-1.5503 0.45209,-0.66106 1.26684,-0.2152 1.91565,-0.20464 6.07127,0.6236 12.27403,-3.8332 13.38781,-9.87795 0.41967,-1.83114 0.0697,-3.87874 -1.2671,-5.26169 -1.52062,-1.70786 -3.9006,-2.38596 -6.1309,-2.23656 -0.78488,-0.29881 -1.26179,-1.11522 -2.07842,-1.40456 -0.87376,-0.43692 -1.85196,-0.64763 -2.82774,-0.64492 z m 0.30438,2.45514 c 0.0908,0.001 0.18195,0.005 0.27337,0.0104 0.47968,0.33571 0.50307,0.97937 -0.10284,1.20509 -2.21013,1.64368 -3.32356,4.29683 -3.87521,6.88692 -0.33542,1.59956 -0.5477,3.18065 -0.84388,4.79299 -0.52656,0.28464 -1.05373,0.42 -1.40612,-0.17415 -2.11997,-2.20664 -2.04237,-5.74909 -0.65164,-8.31732 1.26678,-2.4149 3.7902,-4.44275 6.60632,-4.40387 z m 6.44767,2.14302 c 2.01786,0.49083 3.72889,2.42887 3.45095,4.5806 -0.26879,2.93265 -2.41146,5.40819 -4.90048,6.81406 -2.07353,1.14029 -4.53818,1.62526 -6.87503,1.17409 -0.51121,-0.43776 -0.41768,-0.99992 -0.24184,-1.58027 0.56929,-3.17366 0.78566,-6.71886 3.05872,-9.22786 0.5055,-0.46829 1.03713,-1.1254 1.74563,-1.19993 0.79946,0.10093 0.53437,1.10562 0.52245,1.67174 -0.10258,1.14382 -0.68938,2.15905 -1.19837,3.15071 -0.20203,1.2568 1.65338,2.24563 2.45359,1.12913 1.30895,-1.63348 1.7068,-3.88904 1.3162,-5.92212 0.22328,-0.19231 0.44073,-0.41824 0.66818,-0.59015 z" />
  </g>
</svg>
