<?xml version="1.0" encoding="UTF-8" standalone="no"?>
<!-- Created with Inkscape (http://www.inkscape.org/) -->

<svg
   width="27.20854mm"
   height="27.202339mm"
   viewBox="0 0 27.20854 27.202339"
   version="1.1"
   id="svg1264"
   xmlns="http://www.w3.org/2000/svg"
   xmlns:svg="http://www.w3.org/2000/svg">
  <defs
     id="defs1261" />
  <g
     id="layer1"
     transform="translate(-91.89013,-130.85963)">
    <path
       id="path1553-4-7"
       style="display:inline;fill:#ff9a02;fill-opacity:1;stroke:none;stroke-width:1.27659;stroke-linejoin:round;paint-order:stroke markers fill;stop-color:#000000"
       d="m 105.33881,130.86069 c -1.13612,0.0149 -2.26876,0.17626 -3.37073,0.45617 -0.0339,0.0108 -0.0682,0.0214 -0.10215,0.0323 -1.58257,0.44846 -3.09081,1.16663 -4.41503,2.14395 -1.48284,1.07989 -2.7313,2.47036 -3.66991,4.04502 -0.97704,1.66526 -1.6076,3.53518 -1.8108,5.45668 -0.19335,1.76379 -0.0357,3.56781 0.46441,5.27034 0.54092,1.87129 1.49518,3.61886 2.76728,5.09273 1.19999,1.38587 2.67997,2.52624 4.3289,3.32802 1.77844,0.86951 3.74884,1.34077 5.72845,1.37431 2.8909,0.0467 5.79968,-0.83749 8.14874,-2.53194 3.30147,-2.33272 5.44216,-6.20649 5.66512,-10.24223 0.0926,-1.44574 -0.0696,-2.96933 -0.43165,-4.32186 -0.44722,-1.64462 -1.19721,-3.20982 -2.21189,-4.57907 -1.14203,-1.55859 -2.62912,-2.85878 -4.31386,-3.80189 -1.72904,-0.9623 -3.66735,-1.54354 -5.64061,-1.68755 -0.37843,-0.0285 -0.75757,-0.0399 -1.13627,-0.0349 z" />
    <path
       id="path1120-9-9-9-9-7-9"
       style="display:inline;fill:#ffffff;fill-opacity:1;stroke:none;stroke-width:1.2423;stroke-linejoin:round;stroke-miterlimit:4;stroke-dasharray:none;stroke-opacity:1;paint-order:stroke markers fill;stop-color:#000000"
       d="m 102.37803,132.71022 c -0.22518,5.3e-4 -0.45026,0.0125 -0.67386,0.0357 -3.180274,0.33811 -5.864186,2.6364 -7.217135,5.45858 -1.566389,2.90088 -2.151476,6.68997 -0.364834,9.62835 0.66956,1.11192 1.610881,2.05049 2.696993,2.75694 0.251219,0.52387 0.07731,1.10631 -0.422714,1.36477 -0.59471,0.30907 -0.991907,-0.20852 -1.506368,-0.41237 -0.32462,-0.20825 -0.717175,-0.15679 -0.981853,0.0481 0.382942,0.62257 0.815864,1.2145 1.29346,1.76785 0.876057,1.01176 1.9021,1.89168 3.033408,2.60552 2.155403,0.46489 4.375593,0.71799 6.578413,0.62219 3.51087,-0.23735 6.99584,-1.50404 9.85366,-3.52744 1.08791,-0.78537 2.17918,-1.71902 3.12177,-2.78381 0.7399,-1.56102 1.18865,-3.25943 1.28416,-4.98832 0.0765,-1.19388 -0.0214,-2.44093 -0.26148,-3.60082 -0.91006,0.0761 -0.92923,1.27152 -0.86351,1.96888 0.25726,1.26039 0.19536,2.60154 -0.46613,3.73569 -1.24724,2.1944 -3.24902,3.89924 -5.41103,5.1573 -3.85943,2.16294 -8.62011,2.70794 -12.841599,1.34359 -0.341939,-0.57067 -0.217955,-1.04275 0.149344,-1.55029 0.452091,-0.66106 1.266835,-0.2152 1.915645,-0.20464 6.07127,0.6236 12.27404,-3.83321 13.38782,-9.87795 0.41966,-1.83114 0.0697,-3.87875 -1.26711,-5.26169 -1.52062,-1.70787 -3.90059,-2.38596 -6.13089,-2.23656 -0.78489,-0.29881 -1.2618,-1.11523 -2.07843,-1.40457 -0.87375,-0.43691 -1.85196,-0.64762 -2.82773,-0.64492 z m 0.30437,2.45515 c 0.0908,0.001 0.18195,0.005 0.27337,0.0103 0.47968,0.33571 0.50307,0.97938 -0.10284,1.2051 -2.21013,1.64368 -3.323554,4.29682 -3.875212,6.88691 -0.335421,1.59956 -0.547696,3.18065 -0.843876,4.79299 -0.52656,0.28464 -1.053727,0.42 -1.406117,-0.17415 -2.119969,-2.20664 -2.042369,-5.74909 -0.65164,-8.31732 1.266777,-2.4149 3.790199,-4.44275 6.606315,-4.40386 z m 6.44767,2.14302 c 2.01786,0.49082 3.72889,2.42887 3.45095,4.5806 -0.26879,2.93264 -2.41145,5.40818 -4.90047,6.81405 -2.07354,1.14029 -4.53819,1.62526 -6.87504,1.17409 -0.51121,-0.43776 -0.41768,-0.99991 -0.24184,-1.58026 0.5693,-3.17366 0.78566,-6.71886 3.05873,-9.22786 0.5055,-0.46829 1.03713,-1.1254 1.74562,-1.19993 0.79946,0.10093 0.53437,1.10561 0.52245,1.67173 -0.10258,1.14382 -0.68938,2.15905 -1.19837,3.15072 -0.20203,1.2568 1.65338,2.24563 2.45359,1.12912 1.30896,-1.63348 1.7068,-3.88904 1.3162,-5.92212 0.22328,-0.19231 0.44073,-0.41823 0.66818,-0.59014 z" />
  </g>
</svg>
